<svg xmlns="http://www.w3.org/2000/svg" width="1200" height="320" viewBox="0 0 1200 320">
  <rect width="1200" height="320" fill="#fafafa" />
  <text x="56" y="14" font-size="14" fill="#111827">Anomaly score timeline</text>
  <rect x="284.48" y="18" width="170.29" height="262" fill="#fecaca" fill-opacity="0.35" />
  <line x1="56" y1="18" x2="56" y2="280" stroke="#777777" />
  <line x1="56" y1="280" x2="1184" y2="280" stroke="#777777" />
  <line x1="56" y1="189.74" x2="1184" y2="189.74" stroke="#b45309" stroke-dasharray="5 5" />
  <line x1="56" y1="173.92" x2="1184" y2="173.92" stroke="#b91c1c" stroke-dasharray="4 4" />
  <text x="1180" y="183.74" text-anchor="end" font-size="12" fill="#b45309">alert 0.34</text>
  <text x="1180" y="167.92" text-anchor="end" font-size="12" fill="#b91c1c">high 0.40</text>
  <polyline fill="none" stroke="#166534" stroke-width="2" points="56.00,248.04 57.01,248.04 58.28,248.04 59.54,248.04 60.81,248.04 62.83,194.80 63.34,194.80 64.60,194.80 65.87,194.80 67.13,194.80 68.40,194.80 69.66,194.80 70.93,194.80 72.19,194.80 73.46,194.80 74.72,194.80 75.99,194.80 77.25,194.80 78.52,194.80 79.78,194.80 81.05,194.80 82.31,194.80 83.33,194.80 84.59,194.80 85.86,194.80 87.12,194.80 88.39,194.80 89.65,194.80 90.92,194.80 92.18,194.80 93.45,194.80 94.71,194.80 95.98,194.80 97.24,194.80 98.51,194.80 99.77,194.80 101.04,194.80 102.30,194.80 103.57,194.80 104.83,194.80 106.10,194.80 107.36,194.80 108.63,194.80 109.90,194.80 110.91,194.80 112.17,194.80 113.69,191.34 114.70,191.34 115.97,191.34 117.23,191.34 118.50,191.34 119.76,191.34 121.03,191.34 122.29,191.34 123.56,191.34 124.82,191.34 126.09,200.88 127.35,200.88 128.62,200.88 129.88,200.88 131.15,200.88 132.41,200.88 133.68,200.88 134.94,200.88 136.21,200.88 137.48,200.88 138.49,200.88 139.75,200.88 141.02,200.88 142.28,200.88 143.55,200.88 144.81,200.88 146.08,200.88 147.34,200.88 148.61,200.88 149.87,200.88 151.14,200.88 152.40,200.88 153.67,200.88 154.93,200.88 156.20,200.88 157.46,200.88 158.73,200.88 159.99,200.88 161.26,200.88 162.52,200.88 163.79,200.88 165.06,200.88 166.07,200.88 167.33,200.88 168.60,200.88 169.86,200.88 171.13,200.88 172.39,200.88 173.66,200.88 174.92,200.88 176.19,200.88 177.45,200.88 178.72,200.88 179.98,200.88 181.25,200.88 182.51,200.88 183.78,200.88 185.04,200.88 186.31,200.88 187.57,200.88 188.84,200.88 190.10,200.88 191.37,200.88 192.64,200.88 193.65,200.88 194.91,200.88 196.18,200.88 197.44,200.88 198.71,200.88 199.97,200.88 201.24,200.88 202.50,200.88 203.77,200.88 205.03,200.88 206.30,200.88 207.56,200.88 208.83,200.88 210.09,200.88 211.36,200.88 212.62,200.88 213.89,200.88 215.15,200.88 216.42,200.88 217.69,200.88 218.95,200.88 220.22,200.88 221.23,200.88 222.49,200.88 223.76,200.88 225.02,200.88 226.29,200.88 227.55,200.88 228.82,200.88 230.08,200.88 231.35,200.88 232.61,200.88 233.88,200.88 235.14,200.88 236.41,200.88 237.67,200.88 238.94,200.88 240.20,200.88 241.47,200.88 242.73,200.88 244.00,200.88 245.27,200.88 246.53,200.88 247.80,200.88 248.81,200.88 250.07,200.88 251.34,200.88 252.60,200.88 253.87,200.88 255.13,200.88 256.40,200.88 257.92,190.95 258.93,190.95 260.19,190.95 261.46,190.95 262.72,190.95 263.99,190.95 265.25,190.95 266.52,190.95 267.78,190.95 269.05,190.95 270.31,190.95 271.58,190.95 272.85,190.95 274.11,190.95 275.38,190.95 276.39,190.95 277.65,190.95 278.92,190.95 280.18,190.95 281.45,190.95 282.71,190.95 283.98,190.95 285.24,190.95 286.76,177.32 287.77,177.32 289.04,177.32 290.30,177.32 291.57,177.32 292.83,177.32 294.10,177.32 295.36,177.32 296.63,177.32 297.90,177.32 299.16,177.32 300.43,177.32 301.69,177.32 302.96,177.32 303.97,177.32 305.23,177.32 306.50,177.32 307.76,177.32 309.03,177.32 310.29,177.32 311.56,177.32 312.82,177.32 314.09,177.32 315.35,177.32 316.62,177.32 317.88,177.32 319.15,177.32 320.41,177.32 321.68,177.32 322.94,177.32 324.21,177.32 325.48,177.32 326.74,177.32 328.01,177.32 329.27,177.32 330.54,177.32 331.55,177.32 332.81,177.32 334.08,177.32 335.34,177.32 336.61,177.32 337.87,177.32 339.14,177.32 340.40,177.32 341.67,177.32 342.93,173.92 344.20,173.92 345.46,173.92 346.73,173.92 347.99,173.92 349.26,173.92 350.52,173.92 351.79,173.92 353.06,173.92 354.32,173.92 355.59,173.92 356.85,173.92 358.12,173.92 359.13,173.92 360.39,173.92 361.66,173.92 362.92,173.92 364.19,173.92 365.45,173.92 366.72,173.92 367.98,173.92 369.25,173.92 370.51,173.92 371.78,173.92 373.04,173.92 374.31,173.92 375.57,173.92 376.84,173.92 378.10,173.92 379.37,174.70 380.64,174.70 381.90,174.70 383.17,174.70 384.43,174.70 385.70,174.70 386.71,174.70 387.97,174.70 389.24,174.70 390.50,174.70 391.77,174.70 393.03,174.70 394.30,174.70 395.56,174.70 396.83,174.70 398.09,174.70 399.36,174.70 400.62,174.70 401.89,174.70 403.15,174.70 404.42,174.70 405.69,174.70 406.95,174.70 408.22,174.70 409.48,174.70 410.75,174.70 412.01,174.70 413.28,174.70 414.29,174.70 415.55,174.70 416.82,174.70 418.08,174.70 419.35,174.70 420.61,174.70 421.88,174.70 423.14,174.70 424.41,174.70 425.67,174.70 426.94,174.70 428.20,174.70 429.47,174.70 430.73,174.70 432.00,189.45 433.27,189.45 434.53,189.45 435.80,189.45 437.06,189.45 438.33,189.45 439.59,189.45 440.86,189.45 441.87,189.45 443.13,189.45 444.40,189.45 445.66,189.45 447.94,188.54 448.19,188.54 449.46,188.54 450.72,188.54 451.99,188.54 453.25,188.54 454.52,188.54 455.78,188.54 457.05,199.04 458.31,199.04 459.58,199.04 460.85,199.04 462.11,199.04 463.38,199.04 464.64,199.04 465.91,199.04 467.17,199.04 468.44,199.04 469.45,199.04 470.71,199.04 471.98,199.04 473.24,199.04 474.51,199.04 475.77,199.04 477.04,199.04 478.30,199.04 479.57,199.04 480.83,199.04 482.10,199.04 483.36,199.04 484.63,210.81 485.90,210.81 487.16,210.81 488.43,210.81 489.69,210.81 490.96,210.81 492.22,221.26 493.49,221.26 494.75,221.26 496.02,221.26 497.03,221.26 498.29,221.26 499.56,221.26 500.82,221.26 502.09,221.26 503.35,221.26 504.62,221.26 505.88,221.26 507.15,221.26 508.41,221.26 509.68,221.26 510.94,221.26 512.21,221.26 513.48,221.26 514.74,221.26 516.01,221.26 517.27,221.26 518.54,221.26 519.80,221.26 521.07,221.26 522.33,221.26 523.60,221.26 524.61,221.26 525.87,232.05 527.14,232.05 528.40,232.05 529.67,232.05 530.93,232.05 532.20,232.05 533.46,232.05 534.73,232.05 535.99,232.05 537.26,232.05 538.52,232.05 539.79,232.05 541.06,232.05 542.32,232.05 543.59,232.05 544.85,232.05 546.12,232.05 547.38,232.05 548.65,232.05 549.91,232.05 551.18,232.05 552.19,232.05 553.45,232.05 554.72,232.05 555.98,232.05 557.25,232.05 558.51,232.05 559.78,232.05 561.04,232.05 562.31,232.05 563.57,232.05 564.84,232.05 566.10,232.05 567.37,232.05 568.64,232.05 569.90,232.05 571.17,232.05 572.43,232.05 573.70,232.05 574.96,232.05 576.23,232.05 577.49,232.05 578.76,232.05 579.77,232.05 581.03,232.05 582.30,232.05 583.56,232.05 584.83,232.05 586.09,232.05 587.36,232.05 588.62,232.05 589.89,232.05 591.15,232.05 592.42,232.05 593.69,232.05 594.95,232.05 596.22,232.05 597.48,232.05 598.75,232.05 600.01,232.05 601.28,232.05 602.54,232.05 603.81,232.05 605.07,232.05 606.34,232.05 607.35,232.05 608.61,232.05 609.88,232.05 611.14,232.05 612.41,232.05 613.67,232.05 614.94,232.05 616.20,232.05 617.47,232.05 618.73,232.05 620.00,232.05 621.27,232.05 622.53,232.05 623.80,232.05 625.06,232.05 626.33,232.05 627.59,232.05 628.86,232.05 630.12,232.05 631.39,232.05 632.65,232.05 633.66,232.05 634.93,232.05 636.19,232.05 637.46,232.05 638.72,232.05 639.99,232.05 641.25,232.05 642.52,232.05 643.78,232.05 645.05,232.05 646.31,232.05 647.58,232.05 648.85,232.05 650.11,232.05 651.38,232.05 652.64,232.05 653.91,232.05 655.17,232.05 656.44,232.05 657.70,232.05 658.97,232.05 660.23,232.05 661.24,232.05 662.51,232.05 663.77,232.05 665.04,232.05 666.30,232.05 667.57,232.05 668.83,232.05 670.10,232.05 671.36,232.05 672.63,232.05 673.90,232.05 675.16,232.05 676.43,232.05 677.69,232.05 678.96,232.05 680.22,232.05 681.49,232.05 682.75,232.05 684.02,232.05 685.28,232.05 686.55,232.05 687.81,232.05 688.82,232.05 690.09,232.05 691.35,232.05 692.62,232.05 693.88,232.05 695.15,232.05 696.41,232.05 697.68,232.05 698.94,232.05 700.21,232.05 701.48,232.05 702.74,232.05 704.01,232.05 705.27,232.05 706.54,232.05 707.80,232.05 709.07,232.05 710.33,232.05 711.60,232.05 712.86,232.05 714.13,232.05 715.39,232.05 716.40,232.05 717.67,232.05 718.93,232.05 720.20,232.05 721.46,232.05 722.73,232.05 723.99,232.05 725.26,232.05 726.52,232.05 727.79,232.05 729.06,232.05 730.32,232.05 731.59,232.05 732.85,232.05 734.12,232.05 735.38,232.05 736.65,232.05 737.91,232.05 739.18,232.05 740.44,232.05 741.71,232.05 742.97,232.05 743.98,232.05 745.25,232.05 746.51,232.05 747.78,232.05 749.04,232.05 750.31,232.05 751.57,232.05 752.84,232.05 754.10,232.05 755.37,232.05 756.64,232.05 757.90,232.05 759.17,232.05 760.43,232.05 761.70,232.05 762.96,232.05 764.23,232.05 765.49,232.05 766.76,232.05 768.02,232.05 769.29,232.05 770.55,232.05 771.56,232.05 772.83,232.05 774.09,232.05 775.36,232.05 776.62,232.05 777.89,232.05 779.15,232.05 780.42,232.05 781.69,232.05 782.95,232.05 784.22,232.05 785.48,232.05 786.75,232.05 788.01,232.05 789.28,232.05 790.54,232.05 791.81,232.05 793.07,232.05 794.34,232.05 795.60,232.05 796.87,232.05 798.13,232.05 799.14,232.05 800.41,232.05 801.67,232.05 802.94,232.05 804.20,232.05 805.47,232.05 806.73,232.05 808.00,232.05 809.27,232.05 810.53,232.05 811.80,232.05 813.06,232.05 814.33,232.05 815.59,232.05 816.86,232.05 818.12,232.05 819.39,232.05 820.65,232.05 821.92,232.05 823.18,232.05 824.45,232.05 825.71,232.05 826.72,232.05 827.99,232.05 829.25,232.05 830.52,232.05 831.78,232.05 833.05,232.05 834.31,232.05 835.58,232.05 836.85,232.05 838.11,232.05 839.38,232.05 840.64,232.05 841.91,232.05 843.17,232.05 844.44,232.05 845.70,232.05 846.97,232.05 848.23,232.05 849.50,232.05 850.76,232.05 852.03,232.05 853.29,232.05 854.30,232.05 855.57,232.05 856.83,232.05 858.10,232.05 859.36,232.05 860.63,232.05 861.90,232.05 863.16,232.05 864.43,232.05 865.69,232.05 866.96,232.05 868.22,232.05 869.49,232.05 870.75,232.05 872.02,232.05 873.28,232.05 874.55,232.05 875.81,232.05 877.08,232.05 878.34,232.05 879.61,232.05 880.87,232.05 881.88,232.05 883.15,232.05 884.41,232.05 885.68,232.05 886.94,232.05 888.21,232.05 889.48,232.05 890.74,232.05 892.01,232.05 893.27,232.05 894.54,232.05 895.80,232.05 897.07,232.05 898.33,232.05 899.60,232.05 900.86,232.05 902.13,232.05 903.39,232.05 904.66,232.05 905.92,232.05 907.19,232.05 908.45,232.05 909.46,232.05 910.73,232.05 911.99,232.05 913.26,232.05 914.52,232.05 915.79,232.05 917.06,232.05 918.32,232.05 919.59,232.05 920.85,232.05 922.12,232.05 923.38,232.05 924.65,232.05 925.91,232.05 927.18,232.05 928.44,232.05 929.71,232.05 930.97,232.05 932.24,232.05 933.50,232.05 934.77,232.05 936.03,232.05 937.04,232.05 938.31,232.05 939.57,232.05 940.84,232.05 942.10,232.05 943.37,232.05 944.64,232.05 945.90,232.05 947.17,232.05 948.43,232.05 949.70,232.05 950.96,232.05 952.23,232.05 953.49,232.05 954.76,232.05 956.02,232.05 957.29,232.05 958.55,232.05 959.82,232.05 961.08,232.05 962.35,232.05 963.61,232.05 964.62,232.05 965.89,232.05 967.15,232.05 968.42,236.01 969.69,236.01 970.95,236.01 972.22,236.01 973.48,236.01 974.75,238.53 976.01,238.53 977.28,238.53 978.54,238.53 979.81,238.53 981.07,238.53 982.34,238.53 983.60,238.53 984.87,238.53 986.13,238.53 987.40,238.53 988.66,238.53 989.93,238.53 991.19,238.53 992.20,238.53 993.47,238.53 994.73,238.53 996.00,238.53 997.27,238.53 998.53,238.53 999.80,238.53 1001.06,238.53 1002.33,238.53 1003.59,238.53 1004.86,238.53 1006.12,238.53 1007.39,238.53 1008.65,238.53 1009.92,238.53 1011.18,238.53 1012.45,238.53 1013.71,238.53 1014.98,238.53 1016.24,238.53 1017.51,238.53 1018.77,238.53 1019.78,238.53 1021.05,238.53 1022.31,238.53 1023.58,238.53 1024.85,238.53 1026.11,238.53 1027.38,238.53 1028.64,238.53 1029.91,238.53 1031.17,238.53 1032.44,238.53 1033.70,238.53 1034.97,238.53 1036.23,238.53 1037.50,238.53 1038.76,238.53 1040.03,238.53 1041.29,238.53 1042.56,238.53 1043.82,238.53 1045.09,238.53 1046.35,238.53 1047.36,238.53 1048.63,238.53 1049.90,238.53 1051.16,238.53 1052.43,238.53 1053.69,238.53 1054.96,238.53 1056.22,238.53 1057.49,238.53 1058.75,238.53 1060.02,238.53 1061.28,238.53 1062.55,238.53 1063.81,238.53 1065.08,238.53 1066.34,238.53 1067.61,238.53 1068.87,238.53 1070.14,238.53 1071.40,238.53 1072.67,238.53 1073.93,238.53 1074.94,238.53 1076.21,238.53 1077.48,238.53 1078.74,238.53 1080.01,238.53 1081.27,238.53 1082.54,238.53 1083.80,238.53 1085.07,238.53 1086.33,238.53 1087.60,238.53 1088.86,238.53 1090.13,238.53 1091.39,238.53 1092.66,238.53 1093.92,238.53 1095.19,238.53 1096.45,238.53 1097.72,238.53 1098.98,238.53 1100.25,238.53 1101.51,238.53 1102.52,238.53 1103.79,238.53 1105.06,238.53 1106.32,238.53 1107.59,238.53 1108.85,238.53 1110.12,238.53 1111.38,238.53 1112.65,238.53 1113.91,238.53 1115.18,238.53 1116.44,238.53 1117.71,238.53 1118.97,238.53 1120.24,238.53 1121.50,238.53 1122.77,238.53 1124.03,238.53 1125.30,238.53 1126.56,238.53 1127.83,238.53 1129.09,238.53 1130.10,238.53 1131.37,238.53 1132.64,238.53 1133.90,248.93 1135.17,248.93 1136.43,248.93 1137.70,248.93 1138.96,248.93 1140.23,248.93 1141.49,248.93 1142.76,248.93 1144.02,248.93 1145.29,248.93 1146.55,248.93 1147.82,248.93 1149.08,248.93 1150.35,248.93 1151.61,248.93 1153.38,247.67 1154.14,247.67 1155.41,247.67 1156.67,247.67 1157.69,247.67 1158.95,247.67 1160.22,247.67 1161.48,247.67 1162.75,247.67 1164.01,247.67 1165.28,247.67 1166.54,247.67 1167.81,247.67 1169.07,247.67 1170.34,247.67 1171.60,247.67 1172.87,247.67 1174.13,247.67 1175.40,247.67 1176.66,247.67 1177.93,247.67 1179.19,247.67 1180.46,247.67 1181.72,247.67 1182.99,247.67 1184.00,247.67" />
  <line x1="56.00" y1="280" x2="56.00" y2="286" stroke="#777777" /><text x="56.00" y="308" text-anchor="middle" font-size="12" fill="#777777">0</text><line x1="281.45" y1="280" x2="281.45" y2="286" stroke="#777777" /><text x="281.45" y="308" text-anchor="middle" font-size="12" fill="#777777">891</text><line x1="507.15" y1="280" x2="507.15" y2="286" stroke="#777777" /><text x="507.15" y="308" text-anchor="middle" font-size="12" fill="#777777">1783</text><line x1="732.60" y1="280" x2="732.60" y2="286" stroke="#777777" /><text x="732.60" y="308" text-anchor="middle" font-size="12" fill="#777777">2674</text><line x1="958.30" y1="280" x2="958.30" y2="286" stroke="#777777" /><text x="958.30" y="308" text-anchor="middle" font-size="12" fill="#777777">3566</text><line x1="1184.00" y1="280" x2="1184.00" y2="286" stroke="#777777" /><text x="1184.00" y="308" text-anchor="middle" font-size="12" fill="#777777">4458</text>
  <line x1="50" y1="280.00" x2="56" y2="280.00" stroke="#777777" /><text x="46" y="284.00" text-anchor="end" font-size="12" fill="#777777">0.00</text><line x1="50" y1="214.50" x2="56" y2="214.50" stroke="#777777" /><text x="46" y="218.50" text-anchor="end" font-size="12" fill="#777777">0.25</text><line x1="50" y1="149.00" x2="56" y2="149.00" stroke="#777777" /><text x="46" y="153.00" text-anchor="end" font-size="12" fill="#777777">0.50</text><line x1="50" y1="83.50" x2="56" y2="83.50" stroke="#777777" /><text x="46" y="87.50" text-anchor="end" font-size="12" fill="#777777">0.75</text><line x1="50" y1="18.00" x2="56" y2="18.00" stroke="#777777" /><text x="46" y="22.00" text-anchor="end" font-size="12" fill="#777777">1.00</text>
</svg>