<svg xmlns="http://www.w3.org/2000/svg" width="1200" height="320" viewBox="0 0 1200 320">
  <rect width="1200" height="320" fill="#fafafa" />
  <text x="56" y="14" font-size="14" fill="#111827">Anomaly Score Timeline</text>
  <rect x="56.00" y="18" width="168.28" height="262" fill="#fecaca" fill-opacity="0.35" />
  <line x1="56" y1="18" x2="56" y2="280" stroke="#777777" />
  <line x1="56" y1="280" x2="1184" y2="280" stroke="#777777" />
  <line x1="56" y1="163.86" x2="1184" y2="163.86" stroke="#b45309" stroke-dasharray="5 5" />
  <line x1="56" y1="137.50" x2="1184" y2="137.50" stroke="#b91c1c" stroke-dasharray="4 4" />
  <text x="1180" y="157.86" text-anchor="end" font-size="12" fill="#b45309">alert 0.44</text>
  <text x="1180" y="131.50" text-anchor="end" font-size="12" fill="#b91c1c">high 0.54</text>
  <polyline fill="none" stroke="#166534" stroke-width="2" points="56.00,117.43 57.31,117.43 58.63,137.50 59.94,137.50 61.26,137.50 62.57,137.50 63.89,137.50 65.20,137.50 66.52,137.50 67.83,137.50 69.15,137.50 70.46,137.50 71.78,137.50 73.09,137.50 74.41,137.50 75.72,137.50 77.03,137.50 78.35,137.50 79.66,137.50 80.98,137.50 82.29,137.50 83.61,137.50 84.92,137.50 86.24,137.50 87.55,137.50 88.87,137.50 90.18,137.50 91.50,137.50 92.81,137.50 94.13,137.50 95.44,137.50 96.76,137.50 98.07,137.50 99.38,137.50 100.70,137.50 102.01,137.50 103.33,137.50 104.64,137.50 105.96,137.50 107.27,137.50 108.59,137.50 109.90,137.50 111.22,137.50 112.53,137.50 113.85,137.50 115.16,137.50 116.48,137.50 117.79,137.50 119.10,137.50 120.42,135.74 121.73,135.74 123.05,135.74 124.36,137.87 125.68,137.87 126.99,137.87 128.31,137.87 129.62,137.87 130.94,137.87 132.25,137.87 133.57,137.87 134.88,137.87 136.20,137.87 137.51,137.87 138.83,143.31 140.14,143.31 141.45,143.31 142.77,143.31 144.08,143.31 145.40,143.31 146.71,143.31 148.03,143.31 149.34,143.31 150.66,143.31 151.97,143.31 153.29,143.31 154.60,143.31 155.92,143.31 157.23,143.31 158.55,143.31 159.86,143.31 161.17,143.31 162.49,143.31 163.80,143.31 165.12,143.31 166.43,146.46 167.75,146.46 169.06,146.46 170.38,146.46 171.69,146.46 173.01,146.46 174.32,146.46 175.64,146.46 176.95,146.46 178.27,146.46 179.58,146.46 180.90,146.46 182.21,146.46 183.52,146.46 184.84,146.46 186.15,146.46 187.47,146.46 188.78,146.46 190.10,146.46 191.41,146.46 192.73,146.46 194.04,146.46 195.36,146.46 196.67,146.46 197.99,146.46 199.30,146.46 200.62,162.94 201.93,162.94 203.24,162.94 204.56,162.94 205.87,162.94 207.19,162.94 208.50,162.94 209.82,162.94 211.13,162.94 212.45,162.94 213.76,162.94 215.08,162.94 216.39,162.94 217.71,162.94 219.02,162.94 220.34,162.94 221.65,162.94 222.97,162.94 224.28,162.94 225.59,162.94 226.91,162.94 228.22,162.94 229.54,162.94 230.85,162.94 232.17,162.94 233.48,162.94 234.80,168.18 236.11,168.18 237.43,168.18 238.74,168.18 240.06,168.18 241.37,168.18 242.69,168.18 244.00,168.18 245.31,168.18 246.63,167.81 247.94,167.81 249.26,167.81 250.57,167.81 251.89,167.81 253.20,167.81 254.52,167.81 255.83,167.81 257.15,167.81 258.46,167.81 259.78,167.81 261.09,167.81 262.41,167.81 263.72,167.81 265.03,167.81 266.35,167.81 267.66,167.81 268.98,167.81 270.29,167.81 271.61,167.81 272.92,167.81 274.24,167.81 275.55,167.81 276.87,167.81 278.18,167.81 279.50,167.81 280.81,167.79 282.13,167.79 283.44,167.79 284.76,167.79 286.07,167.79 287.38,167.79 288.70,167.79 290.01,167.79 291.33,167.79 292.64,167.79 293.96,167.79 295.27,167.79 296.59,167.79 297.90,167.79 299.22,167.79 300.53,167.79 301.85,167.79 303.16,167.79 304.48,167.79 305.79,167.79 307.10,167.79 308.42,167.79 309.73,167.79 311.05,167.79 312.36,167.79 313.68,167.79 314.99,167.79 316.31,167.79 317.62,167.79 318.94,167.79 320.25,167.79 321.57,167.79 322.88,167.79 324.20,167.79 325.51,167.79 326.83,167.79 328.14,167.79 329.45,167.79 330.77,167.79 332.08,167.79 333.40,167.79 334.71,167.79 336.03,167.79 337.34,167.79 338.66,167.79 339.97,167.79 341.29,167.79 342.60,167.79 343.92,167.79 345.23,167.79 346.55,174.18 347.86,174.18 349.17,174.18 350.49,174.18 351.80,174.18 353.12,174.18 354.43,174.18 355.75,174.18 357.06,174.18 358.38,174.18 359.69,174.18 361.01,174.18 362.32,174.18 363.64,174.18 364.95,174.18 366.27,174.18 367.58,174.18 368.90,174.18 370.21,174.18 371.52,174.18 372.84,174.18 374.15,174.18 375.47,174.18 376.78,176.12 378.10,176.12 379.41,176.12 380.73,176.12 382.04,176.12 383.36,176.12 384.67,176.12 385.99,176.12 387.30,176.12 388.62,176.12 389.93,176.12 391.24,176.12 392.56,176.12 393.87,176.12 395.19,176.12 396.50,176.12 397.82,176.12 399.13,176.12 400.45,176.12 401.76,176.12 403.08,176.12 404.39,176.12 405.71,176.12 407.02,176.12 408.34,176.12 409.65,176.12 410.97,176.12 412.28,176.12 413.59,176.12 414.91,176.12 416.22,176.12 417.54,176.12 418.85,176.12 420.17,176.12 421.48,176.12 422.80,176.12 424.11,176.12 425.43,176.12 426.74,176.12 428.06,176.12 429.37,176.12 430.69,176.12 432.00,176.12 433.31,176.12 434.63,176.12 435.94,176.12 437.26,182.82 438.57,182.82 439.89,182.82 441.20,182.82 442.52,182.82 443.83,182.82 445.15,182.82 446.46,182.82 447.78,182.82 449.09,182.82 450.41,182.82 451.72,182.82 453.03,182.82 454.35,182.82 455.66,182.82 456.98,182.82 458.29,182.82 459.61,182.82 460.92,182.82 462.24,182.82 463.55,182.82 464.87,182.82 466.18,182.82 467.50,182.82 468.81,182.82 470.13,182.82 471.44,182.82 472.76,180.18 474.07,180.18 475.38,180.18 476.70,180.18 478.01,180.18 479.33,180.18 480.64,180.18 481.96,180.18 483.27,180.18 484.59,180.18 485.90,180.18 487.22,180.18 488.53,180.18 489.85,180.18 491.16,180.18 492.48,180.18 493.79,180.18 495.10,180.18 496.42,180.18 497.73,180.18 499.05,180.18 500.36,180.18 501.68,180.18 502.99,180.18 504.31,180.18 505.62,180.18 506.94,180.18 508.25,180.18 509.57,180.18 510.88,180.18 512.20,180.18 513.51,180.18 514.83,180.18 516.14,180.18 517.45,180.18 518.77,180.18 520.08,180.18 521.40,180.18 522.71,180.18 524.03,180.18 525.34,180.18 526.66,180.18 527.97,180.18 529.29,180.18 530.60,180.18 531.92,180.18 533.23,180.18 534.55,180.18 535.86,180.18 537.17,180.05 538.49,180.05 539.80,180.05 541.12,180.05 542.43,180.05 543.75,180.05 545.06,180.05 546.38,180.05 547.69,180.05 549.01,180.05 550.32,180.05 551.64,180.05 552.95,180.05 554.27,180.05 555.58,180.05 556.90,180.05 558.21,180.05 559.52,180.05 560.84,180.05 562.15,180.05 563.47,180.05 564.78,180.05 566.10,180.05 567.41,186.73 568.73,186.73 570.04,186.73 571.36,186.73 572.67,186.73 573.99,186.73 575.30,186.73 576.62,186.73 577.93,186.73 579.24,186.73 580.56,186.73 581.87,186.73 583.19,186.73 584.50,186.73 585.82,186.73 587.13,186.73 588.45,186.73 589.76,186.73 591.08,186.73 592.39,186.73 593.71,186.73 595.02,186.73 596.34,186.73 597.65,186.73 598.97,186.73 600.28,186.73 601.59,186.73 602.91,186.73 604.22,186.73 605.54,186.73 606.85,186.73 608.17,186.73 609.48,186.73 610.80,186.73 612.11,186.73 613.43,186.73 614.74,186.73 616.06,186.73 617.37,186.73 618.69,186.73 620.00,186.73 621.31,186.73 622.63,186.73 623.94,186.73 625.26,186.73 626.57,186.73 627.89,186.73 629.20,186.73 630.52,186.73 631.83,186.73 633.15,186.73 634.46,186.73 635.78,186.73 637.09,186.73 638.41,186.73 639.72,186.73 641.03,186.73 642.35,186.73 643.66,186.73 644.98,186.73 646.29,186.73 647.61,186.73 648.92,186.73 650.24,186.73 651.55,186.73 652.87,186.73 654.18,186.73 655.50,186.73 656.81,186.73 658.13,186.73 659.44,187.44 660.76,187.44 662.07,187.44 663.38,187.62 664.70,187.62 666.01,187.62 667.33,187.62 668.64,187.62 669.96,187.62 671.27,187.62 672.59,187.62 673.90,187.62 675.22,187.62 676.53,187.62 677.85,187.62 679.16,187.62 680.48,187.62 681.79,187.62 683.10,187.62 684.42,187.62 685.73,187.62 687.05,187.62 688.36,187.62 689.68,187.62 690.99,187.62 692.31,187.62 693.62,187.62 694.94,187.62 696.25,187.62 697.57,192.15 698.88,192.15 700.20,192.15 701.51,192.15 702.83,192.15 704.14,192.15 705.45,192.15 706.77,192.15 708.08,192.15 709.40,192.15 710.71,192.15 712.03,192.15 713.34,192.15 714.66,192.15 715.97,192.15 717.29,192.15 718.60,192.15 719.92,192.15 721.23,192.15 722.55,192.15 723.86,192.15 725.17,192.15 726.49,192.15 727.80,198.73 729.12,198.73 730.43,198.73 731.75,198.73 733.06,198.73 734.38,198.73 735.69,198.73 737.01,198.73 738.32,198.73 739.64,198.73 740.95,198.73 742.27,198.73 743.58,198.73 744.90,198.73 746.21,198.73 747.52,198.73 748.84,198.73 750.15,198.73 751.47,198.73 752.78,198.73 754.10,198.73 755.41,198.73 756.73,198.73 758.04,198.73 759.36,198.73 760.67,198.73 761.99,198.73 763.30,198.73 764.62,198.73 765.93,198.73 767.24,198.73 768.56,198.73 769.87,198.73 771.19,198.73 772.50,198.73 773.82,198.73 775.13,198.73 776.45,198.73 777.76,198.73 779.08,198.73 780.39,198.73 781.71,198.73 783.02,198.73 784.34,198.73 785.65,198.73 786.97,198.73 788.28,198.73 789.59,198.73 790.91,198.73 792.22,198.73 793.54,198.73 794.85,198.73 796.17,198.73 797.48,198.73 798.80,198.73 800.11,198.73 801.43,198.73 802.74,198.73 804.06,198.73 805.37,198.73 806.69,198.73 808.00,198.73 809.31,198.73 810.63,198.73 811.94,198.73 813.26,198.73 814.57,198.73 815.89,198.73 817.20,198.73 818.52,198.73 819.83,198.73 821.15,198.73 822.46,198.73 823.78,198.73 825.09,198.73 826.41,198.73 827.72,198.73 829.03,198.73 830.35,198.73 831.66,198.73 832.98,198.73 834.29,198.73 835.61,198.73 836.92,198.73 838.24,198.73 839.55,198.73 840.87,198.73 842.18,198.73 843.50,198.73 844.81,198.73 846.13,198.73 847.44,198.73 848.76,198.73 850.07,198.73 851.38,198.73 852.70,198.73 854.01,198.73 855.33,198.73 856.64,198.73 857.96,198.73 859.27,198.73 860.59,198.73 861.90,204.99 863.22,204.99 864.53,204.99 865.85,204.99 867.16,204.99 868.48,204.99 869.79,204.99 871.10,204.99 872.42,204.99 873.73,204.99 875.05,204.99 876.36,204.99 877.68,204.99 878.99,204.99 880.31,204.99 881.62,204.99 882.94,204.99 884.25,204.99 885.57,204.99 886.88,204.99 888.20,204.99 889.51,204.99 890.83,204.99 892.14,204.99 893.45,204.99 894.77,204.99 896.08,204.99 897.40,204.99 898.71,204.99 900.03,204.99 901.34,204.99 902.66,204.99 903.97,204.99 905.29,204.99 906.60,204.99 907.92,204.99 909.23,204.99 910.55,204.99 911.86,204.99 913.17,204.99 914.49,204.99 915.80,204.99 917.12,204.99 918.43,204.99 919.75,204.99 921.06,204.99 922.38,204.99 923.69,204.99 925.01,204.99 926.32,204.99 927.64,204.99 928.95,204.99 930.27,204.99 931.58,204.99 932.90,204.99 934.21,204.99 935.52,204.99 936.84,204.99 938.15,204.99 939.47,204.99 940.78,204.99 942.10,204.99 943.41,204.99 944.73,204.99 946.04,212.72 947.36,212.72 948.67,212.72 949.99,212.72 951.30,212.72 952.62,212.72 953.93,212.72 955.24,212.72 956.56,212.72 957.87,212.72 959.19,212.72 960.50,212.72 961.82,212.72 963.13,212.72 964.45,212.72 965.76,212.72 967.08,212.72 968.39,212.72 969.71,212.72 971.02,212.72 972.34,212.72 973.65,212.72 974.97,212.72 976.28,212.72 977.59,212.72 978.91,212.72 980.22,212.72 981.54,212.72 982.85,212.72 984.17,212.72 985.48,212.72 986.80,212.72 988.11,212.72 989.43,212.72 990.74,212.72 992.06,212.72 993.37,212.72 994.69,212.72 996.00,212.72 997.31,212.72 998.63,212.72 999.94,212.72 1001.26,212.72 1002.57,212.72 1003.89,212.72 1005.20,212.72 1006.52,212.72 1007.83,212.72 1009.15,212.72 1010.46,212.72 1011.78,212.72 1013.09,212.72 1014.41,212.72 1015.72,212.72 1017.03,212.72 1018.35,212.72 1019.66,212.72 1020.98,212.72 1022.29,212.72 1023.61,212.72 1024.92,212.72 1026.24,212.72 1027.55,212.72 1028.87,212.72 1030.18,212.72 1031.50,212.72 1032.81,212.72 1034.13,212.72 1035.44,212.72 1036.76,212.72 1038.07,212.72 1039.38,212.72 1040.70,212.72 1042.01,212.72 1043.33,212.72 1044.64,212.72 1045.96,212.72 1047.27,212.72 1048.59,212.72 1049.90,212.72 1051.22,212.72 1052.53,212.72 1053.85,212.72 1055.16,212.72 1056.48,212.72 1057.79,212.72 1059.10,212.72 1060.42,212.72 1061.73,212.72 1063.05,212.72 1064.36,212.72 1065.68,212.72 1066.99,212.72 1068.31,212.72 1069.62,212.72 1070.94,212.72 1072.25,212.72 1073.57,212.72 1074.88,212.72 1076.20,212.72 1077.51,212.72 1078.83,212.72 1080.14,212.72 1081.45,212.72 1082.77,212.72 1084.08,212.72 1085.40,212.72 1086.71,212.72 1088.03,212.72 1089.34,212.72 1090.66,212.72 1091.97,212.72 1093.29,212.72 1094.60,212.72 1095.92,212.72 1097.23,212.72 1098.55,212.72 1099.86,212.72 1101.17,212.72 1102.49,212.72 1103.80,212.72 1105.12,212.72 1106.43,212.72 1107.75,212.72 1109.06,212.72 1110.38,212.72 1111.69,212.72 1113.01,212.72 1114.32,212.72 1115.64,212.72 1116.95,212.72 1118.27,212.72 1119.58,212.72 1120.90,212.72 1122.21,212.72 1123.52,212.72 1124.84,212.72 1126.15,212.72 1127.47,212.72 1128.78,212.72 1130.10,212.72 1131.41,212.72 1132.73,212.72 1134.04,212.72 1135.36,212.72 1136.67,212.72 1137.99,212.72 1139.30,212.72 1140.62,212.72 1141.93,212.72 1143.24,212.72 1144.56,212.72 1145.87,212.72 1147.19,212.72 1148.50,212.72 1149.82,212.72 1151.13,212.72 1152.45,212.72 1153.76,212.72 1155.08,212.72 1156.39,212.72 1157.71,212.72 1159.02,212.72 1160.34,212.72 1161.65,212.72 1162.97,212.72 1164.28,212.72 1165.59,212.72 1166.91,212.72 1168.22,212.72 1169.54,212.72 1170.85,212.72 1172.17,212.72 1173.48,212.72 1174.80,212.72 1176.11,212.72 1177.43,212.72 1178.74,212.72 1180.06,212.72 1181.37,212.72 1182.69,212.72 1184.00,212.72" />
  <line x1="56.00" y1="280" x2="56.00" y2="286" stroke="#777777" /><text x="56.00" y="308" text-anchor="middle" font-size="12" fill="#777777">0</text><line x1="280.81" y1="280" x2="280.81" y2="286" stroke="#777777" /><text x="280.81" y="308" text-anchor="middle" font-size="12" fill="#777777">171</text><line x1="506.94" y1="280" x2="506.94" y2="286" stroke="#777777" /><text x="506.94" y="308" text-anchor="middle" font-size="12" fill="#777777">343</text><line x1="731.75" y1="280" x2="731.75" y2="286" stroke="#777777" /><text x="731.75" y="308" text-anchor="middle" font-size="12" fill="#777777">514</text><line x1="957.87" y1="280" x2="957.87" y2="286" stroke="#777777" /><text x="957.87" y="308" text-anchor="middle" font-size="12" fill="#777777">686</text><line x1="1184.00" y1="280" x2="1184.00" y2="286" stroke="#777777" /><text x="1184.00" y="308" text-anchor="middle" font-size="12" fill="#777777">858</text>
  <line x1="50" y1="280.00" x2="56" y2="280.00" stroke="#777777" /><text x="46" y="284.00" text-anchor="end" font-size="12" fill="#777777">0.00</text><line x1="50" y1="214.50" x2="56" y2="214.50" stroke="#777777" /><text x="46" y="218.50" text-anchor="end" font-size="12" fill="#777777">0.25</text><line x1="50" y1="149.00" x2="56" y2="149.00" stroke="#777777" /><text x="46" y="153.00" text-anchor="end" font-size="12" fill="#777777">0.50</text><line x1="50" y1="83.50" x2="56" y2="83.50" stroke="#777777" /><text x="46" y="87.50" text-anchor="end" font-size="12" fill="#777777">0.75</text><line x1="50" y1="18.00" x2="56" y2="18.00" stroke="#777777" /><text x="46" y="22.00" text-anchor="end" font-size="12" fill="#777777">1.00</text>
</svg>