<svg xmlns="http://www.w3.org/2000/svg" width="1200" height="320" viewBox="0 0 1200 320">
  <rect width="1200" height="320" fill="#fafafa" />
  <text x="56" y="14" font-size="14" fill="#111827">Anomaly Score Timeline</text>
  <rect x="56.00" y="18" width="638.40" height="262" fill="#fecaca" fill-opacity="0.35" />
  <line x1="56" y1="18" x2="56" y2="280" stroke="#777777" />
  <line x1="56" y1="280" x2="1184" y2="280" stroke="#777777" />
  <line x1="56" y1="153.24" x2="1184" y2="153.24" stroke="#b45309" stroke-dasharray="5 5" />
  <line x1="56" y1="142.21" x2="1184" y2="142.21" stroke="#b91c1c" stroke-dasharray="4 4" />
  <text x="1180" y="147.24" text-anchor="end" font-size="12" fill="#b45309">alert 0.48</text>
  <text x="1180" y="136.21" text-anchor="end" font-size="12" fill="#b91c1c">high 0.53</text>
  <polyline fill="none" stroke="#166534" stroke-width="2" points="56.00,142.21 60.80,142.21 65.60,142.21 70.40,142.21 75.20,142.21 80.00,142.21 84.80,142.21 89.60,142.21 94.40,142.21 99.20,142.21 104.00,142.21 108.80,142.21 113.60,142.21 118.40,142.21 123.20,142.21 128.00,142.21 132.80,142.21 137.60,142.21 142.40,142.21 147.20,142.21 152.00,142.21 156.80,142.21 161.60,142.21 166.40,142.21 171.20,142.21 176.00,142.21 180.80,142.21 185.60,150.62 190.40,150.62 195.20,150.62 200.00,150.62 204.80,150.62 209.60,150.62 214.40,150.62 219.20,150.62 224.00,150.62 228.80,150.62 233.60,150.62 238.40,150.62 243.20,150.62 248.00,150.62 252.80,150.62 257.60,150.62 262.40,150.62 267.20,150.62 272.00,150.62 276.80,150.62 281.60,150.62 286.40,150.62 291.20,150.62 296.00,150.62 300.80,150.62 305.60,150.62 310.40,150.62 315.20,150.62 320.00,150.62 324.80,150.62 329.60,150.62 334.40,150.62 339.20,150.62 344.00,150.62 348.80,150.62 353.60,150.62 358.40,150.62 363.20,150.62 368.00,150.62 372.80,150.62 377.60,150.62 382.40,150.62 387.20,150.62 392.00,150.62 396.80,150.62 401.60,150.62 406.40,150.62 411.20,150.62 416.00,150.62 420.80,150.62 425.60,150.62 430.40,150.62 435.20,150.62 440.00,150.62 444.80,150.62 449.60,150.62 454.40,150.62 459.20,150.62 464.00,150.62 468.80,150.62 473.60,150.62 478.40,150.62 483.20,150.62 488.00,150.62 492.80,150.62 497.60,150.62 502.40,150.62 507.20,150.62 512.00,150.62 516.80,150.62 521.60,150.62 526.40,150.62 531.20,150.62 536.00,150.62 540.80,150.62 545.60,150.62 550.40,150.62 555.20,150.62 560.00,150.62 564.80,150.62 569.60,150.62 574.40,150.62 579.20,150.62 584.00,150.62 588.80,150.62 593.60,150.62 598.40,150.62 603.20,150.62 608.00,150.62 612.80,150.62 617.60,150.62 622.40,150.62 627.20,150.62 632.00,150.62 636.80,150.62 641.60,150.62 646.40,150.62 651.20,150.62 656.00,150.62 660.80,150.62 665.60,150.62 670.40,150.62 675.20,150.62 680.00,150.62 684.80,150.62 689.60,150.62 694.40,150.62 699.20,156.44 704.00,156.44 708.80,156.44 713.60,155.97 718.40,155.97 723.20,155.97 728.00,155.97 732.80,155.97 737.60,155.97 742.40,155.97 747.20,155.97 752.00,155.97 756.80,155.97 761.60,155.97 766.40,155.97 771.20,155.97 776.00,155.97 780.80,155.97 785.60,155.97 790.40,155.97 795.20,155.97 800.00,155.97 804.80,155.97 809.60,155.97 814.40,155.97 819.20,155.97 824.00,155.97 828.80,155.97 833.60,155.97 838.40,155.97 843.20,155.97 848.00,155.97 852.80,155.97 857.60,155.97 862.40,155.97 867.20,155.97 872.00,155.97 876.80,155.97 881.60,155.97 886.40,164.88 891.20,164.88 896.00,164.88 900.80,164.88 905.60,164.88 910.40,164.88 915.20,164.88 920.00,164.88 924.80,164.88 929.60,164.88 934.40,164.88 939.20,164.88 944.00,164.88 948.80,164.88 953.60,164.88 958.40,164.88 963.20,164.88 968.00,164.88 972.80,164.88 977.60,164.88 982.40,164.88 987.20,164.88 992.00,164.88 996.80,164.88 1001.60,164.88 1006.40,164.88 1011.20,164.88 1016.00,164.88 1020.80,164.88 1025.60,164.88 1030.40,164.88 1035.20,166.16 1040.00,166.16 1044.80,166.16 1049.60,168.78 1054.40,168.78 1059.20,168.78 1064.00,168.78 1068.80,168.78 1073.60,168.78 1078.40,168.78 1083.20,168.78 1088.00,168.78 1092.80,168.78 1097.60,168.78 1102.40,168.78 1107.20,168.78 1112.00,168.78 1116.80,168.78 1121.60,168.78 1126.40,168.78 1131.20,168.78 1136.00,168.78 1140.80,168.78 1145.60,168.78 1150.40,168.78 1155.20,168.78 1160.00,168.78 1164.80,168.78 1169.60,168.78 1174.40,168.78 1179.20,168.78 1184.00,168.78" />
  <line x1="56.00" y1="280" x2="56.00" y2="286" stroke="#777777" /><text x="56.00" y="308" text-anchor="middle" font-size="12" fill="#777777">0</text><line x1="281.60" y1="280" x2="281.60" y2="286" stroke="#777777" /><text x="281.60" y="308" text-anchor="middle" font-size="12" fill="#777777">47</text><line x1="507.20" y1="280" x2="507.20" y2="286" stroke="#777777" /><text x="507.20" y="308" text-anchor="middle" font-size="12" fill="#777777">94</text><line x1="732.80" y1="280" x2="732.80" y2="286" stroke="#777777" /><text x="732.80" y="308" text-anchor="middle" font-size="12" fill="#777777">141</text><line x1="958.40" y1="280" x2="958.40" y2="286" stroke="#777777" /><text x="958.40" y="308" text-anchor="middle" font-size="12" fill="#777777">188</text><line x1="1184.00" y1="280" x2="1184.00" y2="286" stroke="#777777" /><text x="1184.00" y="308" text-anchor="middle" font-size="12" fill="#777777">235</text>
  <line x1="50" y1="280.00" x2="56" y2="280.00" stroke="#777777" /><text x="46" y="284.00" text-anchor="end" font-size="12" fill="#777777">0.00</text><line x1="50" y1="214.50" x2="56" y2="214.50" stroke="#777777" /><text x="46" y="218.50" text-anchor="end" font-size="12" fill="#777777">0.25</text><line x1="50" y1="149.00" x2="56" y2="149.00" stroke="#777777" /><text x="46" y="153.00" text-anchor="end" font-size="12" fill="#777777">0.50</text><line x1="50" y1="83.50" x2="56" y2="83.50" stroke="#777777" /><text x="46" y="87.50" text-anchor="end" font-size="12" fill="#777777">0.75</text><line x1="50" y1="18.00" x2="56" y2="18.00" stroke="#777777" /><text x="46" y="22.00" text-anchor="end" font-size="12" fill="#777777">1.00</text>
</svg>