<svg xmlns="http://www.w3.org/2000/svg" width="1200" height="320" viewBox="0 0 1200 320">
  <rect width="1200" height="320" fill="#fafafa" />
  <text x="56" y="14" font-size="14" fill="#111827">Anomaly Score Timeline</text>
  <rect x="417.51" y="18" width="176.18" height="262" fill="#fecaca" fill-opacity="0.35" />
  <line x1="56" y1="18" x2="56" y2="280" stroke="#777777" />
  <line x1="56" y1="280" x2="1184" y2="280" stroke="#777777" />
  <line x1="56" y1="203.94" x2="1184" y2="203.94" stroke="#b45309" stroke-dasharray="5 5" />
  <line x1="56" y1="194.82" x2="1184" y2="194.82" stroke="#b91c1c" stroke-dasharray="4 4" />
  <text x="1180" y="197.94" text-anchor="end" font-size="12" fill="#b45309">alert 0.29</text>
  <text x="1180" y="188.82" text-anchor="end" font-size="12" fill="#b91c1c">high 0.33</text>
  <polyline fill="none" stroke="#166534" stroke-width="2" points="56.00,238.42 58.29,238.42 60.58,238.42 62.86,234.10 65.15,234.10 67.44,234.10 69.73,234.10 72.02,234.10 74.30,234.10 76.59,234.10 78.88,234.10 81.17,234.10 83.46,234.10 85.74,234.10 88.03,234.10 90.32,234.10 92.61,234.10 94.90,234.10 97.18,234.10 99.47,234.10 101.76,234.10 104.05,234.10 106.34,234.10 108.62,234.10 110.91,234.10 113.20,234.10 115.49,234.10 117.78,234.10 120.06,234.10 122.35,234.10 124.64,234.10 126.93,234.10 129.22,234.10 131.51,234.10 133.79,234.10 136.08,234.10 138.37,234.10 140.66,234.10 142.95,234.10 145.23,234.10 147.52,234.10 149.81,234.10 152.10,234.10 154.39,234.10 156.67,234.10 158.96,234.10 161.25,234.10 163.54,234.10 165.83,234.10 168.11,234.10 170.40,234.10 172.69,234.10 174.98,234.10 177.27,234.10 179.55,234.10 181.84,234.10 184.13,234.10 186.42,234.10 188.71,234.10 190.99,234.10 193.28,234.10 195.57,234.10 197.86,234.10 200.15,234.10 202.43,234.10 204.72,234.10 207.01,216.41 209.30,216.41 211.59,216.41 213.87,216.41 216.16,216.41 218.45,216.41 220.74,216.41 223.03,216.41 225.31,216.41 227.60,216.41 229.89,216.41 232.18,216.41 234.47,216.41 236.75,216.41 239.04,216.41 241.33,216.41 243.62,216.41 245.91,216.41 248.19,216.41 250.48,216.41 252.77,216.41 255.06,216.41 257.35,216.41 259.63,216.41 261.92,216.41 264.21,216.41 266.50,216.41 268.79,216.41 271.08,216.41 273.36,216.41 275.65,216.41 277.94,216.41 280.23,216.41 282.52,210.49 284.80,210.49 287.09,210.49 289.38,210.49 291.67,210.49 293.96,210.49 296.24,210.49 298.53,210.49 300.82,210.49 303.11,210.49 305.40,210.49 307.68,210.49 309.97,210.49 312.26,210.49 314.55,210.49 316.84,206.80 319.12,206.80 321.41,206.80 323.70,206.80 325.99,206.80 328.28,206.80 330.56,206.80 332.85,206.80 335.14,206.80 337.43,206.80 339.72,206.80 342.00,206.80 344.29,206.80 346.58,206.80 348.87,206.80 351.16,206.80 353.44,206.80 355.73,206.80 358.02,206.80 360.31,206.80 362.60,206.80 364.88,206.80 367.17,206.80 369.46,206.80 371.75,206.80 374.04,206.80 376.32,206.80 378.61,206.80 380.90,206.80 383.19,206.80 385.48,206.80 387.76,206.80 390.05,206.80 392.34,206.80 394.63,203.94 396.92,203.94 399.20,203.94 401.49,203.94 403.78,203.94 406.07,203.94 408.36,203.94 410.65,203.94 412.93,203.94 415.22,203.94 417.51,203.94 419.80,203.94 422.09,203.94 424.37,203.94 426.66,203.94 428.95,203.94 431.24,203.94 433.53,203.94 435.81,203.94 438.10,203.94 440.39,203.94 442.68,203.94 444.97,203.94 447.25,203.94 449.54,203.94 451.83,203.94 454.12,203.94 456.41,203.94 458.69,203.94 460.98,203.94 463.27,203.94 465.56,203.94 467.85,203.94 470.13,194.64 472.42,194.64 474.71,194.64 477.00,194.64 479.29,194.64 481.57,194.64 483.86,195.77 486.15,195.77 488.44,195.77 490.73,195.77 493.01,195.77 495.30,195.77 497.59,195.77 499.88,195.77 502.17,195.77 504.45,195.77 506.74,195.77 509.03,195.77 511.32,194.90 513.61,194.90 515.89,194.90 518.18,194.90 520.47,194.90 522.76,194.90 525.05,194.90 527.33,194.90 529.62,194.90 531.91,194.90 534.20,194.90 536.49,194.90 538.77,194.90 541.06,194.90 543.35,194.90 545.64,194.90 547.93,194.90 550.22,194.90 552.50,194.33 554.79,194.33 557.08,194.33 559.37,199.04 561.66,199.04 563.94,199.04 566.23,199.04 568.52,199.04 570.81,199.04 573.10,203.99 575.38,203.99 577.67,203.99 579.96,203.99 582.25,203.99 584.54,203.99 586.82,203.99 589.11,203.99 591.40,203.99 593.69,203.99 595.98,203.99 598.26,203.99 600.55,203.99 602.84,203.99 605.13,203.99 607.42,203.99 609.70,203.99 611.99,203.99 614.28,203.99 616.57,203.99 618.86,203.99 621.14,203.99 623.43,203.99 625.72,203.99 628.01,203.99 630.30,203.99 632.58,203.99 634.87,203.99 637.16,203.99 639.45,203.99 641.74,203.99 644.02,211.67 646.31,211.67 648.60,211.67 650.89,211.67 653.18,211.67 655.46,211.67 657.75,211.67 660.04,211.67 662.33,211.67 664.62,211.67 666.90,211.67 669.19,211.67 671.48,211.67 673.77,211.67 676.06,211.67 678.34,211.67 680.63,211.67 682.92,211.67 685.21,211.67 687.50,211.67 689.78,211.67 692.07,211.67 694.36,211.67 696.65,211.67 698.94,211.67 701.23,211.67 703.51,211.67 705.80,226.45 708.09,226.45 710.38,226.45 712.67,226.45 714.95,226.45 717.24,226.45 719.53,226.45 721.82,226.45 724.11,226.45 726.39,226.45 728.68,226.45 730.97,226.45 733.26,226.45 735.55,226.45 737.83,226.45 740.12,226.45 742.41,226.45 744.70,226.45 746.99,226.45 749.27,226.45 751.56,226.45 753.85,226.45 756.14,226.45 758.43,226.45 760.71,226.45 763.00,226.45 765.29,226.45 767.58,226.45 769.87,226.45 772.15,226.45 774.44,226.45 776.73,226.45 779.02,226.45 781.31,226.45 783.59,226.45 785.88,226.45 788.17,226.45 790.46,226.45 792.75,226.45 795.03,226.45 797.32,226.45 799.61,226.45 801.90,226.45 804.19,226.45 806.47,226.45 808.76,232.03 811.05,232.03 813.34,232.03 815.63,232.03 817.91,232.03 820.20,232.03 822.49,232.03 824.78,232.03 827.07,232.03 829.35,232.03 831.64,232.03 833.93,232.03 836.22,232.03 838.51,232.03 840.80,232.03 843.08,232.03 845.37,232.03 847.66,232.03 849.95,232.03 852.24,232.03 854.52,232.03 856.81,232.03 859.10,232.03 861.39,232.03 863.68,232.03 865.96,232.03 868.25,232.03 870.54,232.03 872.83,232.03 875.12,232.03 877.40,236.59 879.69,236.59 881.98,236.59 884.27,244.97 886.56,244.97 888.84,244.97 891.13,244.97 893.42,244.97 895.71,244.97 898.00,244.97 900.28,244.97 902.57,244.97 904.86,244.97 907.15,244.97 909.44,244.97 911.72,244.97 914.01,244.97 916.30,244.97 918.59,244.97 920.88,244.97 923.16,244.97 925.45,244.97 927.74,244.97 930.03,244.97 932.32,244.97 934.60,244.97 936.89,244.97 939.18,244.97 941.47,244.97 943.76,244.97 946.04,244.97 948.33,244.97 950.62,244.97 952.91,244.97 955.20,244.97 957.48,244.97 959.77,244.97 962.06,244.97 964.35,244.97 966.64,244.97 968.92,244.97 971.21,244.97 973.50,244.97 975.79,244.97 978.08,244.97 980.37,244.97 982.65,244.97 984.94,244.97 987.23,244.97 989.52,244.97 991.81,244.97 994.09,244.97 996.38,244.97 998.67,244.97 1000.96,244.97 1003.25,244.97 1005.53,244.97 1007.82,244.97 1010.11,244.97 1012.40,244.97 1014.69,244.97 1016.97,244.97 1019.26,244.97 1021.55,244.97 1023.84,244.97 1026.13,244.97 1028.41,244.97 1030.70,244.97 1032.99,244.97 1035.28,244.97 1037.57,244.97 1039.85,244.97 1042.14,244.97 1044.43,244.97 1046.72,244.97 1049.01,244.97 1051.29,244.97 1053.58,244.97 1055.87,244.97 1058.16,244.97 1060.45,244.97 1062.73,244.97 1065.02,244.97 1067.31,244.97 1069.60,244.97 1071.89,244.97 1074.17,244.97 1076.46,244.97 1078.75,244.97 1081.04,244.97 1083.33,244.97 1085.61,244.97 1087.90,244.97 1090.19,244.97 1092.48,244.97 1094.77,244.97 1097.05,244.97 1099.34,244.97 1101.63,244.97 1103.92,244.97 1106.21,244.97 1108.49,244.97 1110.78,244.97 1113.07,244.97 1115.36,244.97 1117.65,244.97 1119.94,244.97 1122.22,244.97 1124.51,244.97 1126.80,244.97 1129.09,244.97 1131.38,244.97 1133.66,244.97 1135.95,244.97 1138.24,244.97 1140.53,244.97 1142.82,244.97 1145.10,244.97 1147.39,244.97 1149.68,244.97 1151.97,244.97 1154.26,244.97 1156.54,244.97 1158.83,244.97 1161.12,244.97 1163.41,244.97 1165.70,244.97 1167.98,244.97 1170.27,244.97 1172.56,244.97 1174.85,244.97 1177.14,244.97 1179.42,244.97 1181.71,244.97 1184.00,244.97" />
  <line x1="56.00" y1="280" x2="56.00" y2="286" stroke="#777777" /><text x="56.00" y="308" text-anchor="middle" font-size="12" fill="#777777">0</text><line x1="280.23" y1="280" x2="280.23" y2="286" stroke="#777777" /><text x="280.23" y="308" text-anchor="middle" font-size="12" fill="#777777">98</text><line x1="506.74" y1="280" x2="506.74" y2="286" stroke="#777777" /><text x="506.74" y="308" text-anchor="middle" font-size="12" fill="#777777">197</text><line x1="730.97" y1="280" x2="730.97" y2="286" stroke="#777777" /><text x="730.97" y="308" text-anchor="middle" font-size="12" fill="#777777">295</text><line x1="957.48" y1="280" x2="957.48" y2="286" stroke="#777777" /><text x="957.48" y="308" text-anchor="middle" font-size="12" fill="#777777">394</text><line x1="1184.00" y1="280" x2="1184.00" y2="286" stroke="#777777" /><text x="1184.00" y="308" text-anchor="middle" font-size="12" fill="#777777">493</text>
  <line x1="50" y1="280.00" x2="56" y2="280.00" stroke="#777777" /><text x="46" y="284.00" text-anchor="end" font-size="12" fill="#777777">0.00</text><line x1="50" y1="214.50" x2="56" y2="214.50" stroke="#777777" /><text x="46" y="218.50" text-anchor="end" font-size="12" fill="#777777">0.25</text><line x1="50" y1="149.00" x2="56" y2="149.00" stroke="#777777" /><text x="46" y="153.00" text-anchor="end" font-size="12" fill="#777777">0.50</text><line x1="50" y1="83.50" x2="56" y2="83.50" stroke="#777777" /><text x="46" y="87.50" text-anchor="end" font-size="12" fill="#777777">0.75</text><line x1="50" y1="18.00" x2="56" y2="18.00" stroke="#777777" /><text x="46" y="22.00" text-anchor="end" font-size="12" fill="#777777">1.00</text>
</svg>