<svg xmlns="http://www.w3.org/2000/svg" width="1200" height="320" viewBox="0 0 1200 320">
  <rect width="1200" height="320" fill="#fafafa" />
  <text x="56" y="14" font-size="14" fill="#111827">Anomaly Score Timeline</text>
  <rect x="248.44" y="18" width="158.99" height="262" fill="#fecaca" fill-opacity="0.35" /><rect x="602.65" y="18" width="12.40" height="262" fill="#fecaca" fill-opacity="0.35" />
  <line x1="56" y1="18" x2="56" y2="280" stroke="#777777" />
  <line x1="56" y1="280" x2="1184" y2="280" stroke="#777777" />
  <line x1="56" y1="138.57" x2="1184" y2="138.57" stroke="#b45309" stroke-dasharray="5 5" />
  <line x1="56" y1="126.28" x2="1184" y2="126.28" stroke="#b91c1c" stroke-dasharray="4 4" />
  <text x="1180" y="132.57" text-anchor="end" font-size="12" fill="#b45309">alert 0.54</text>
  <text x="1180" y="120.28" text-anchor="end" font-size="12" fill="#b91c1c">high 0.59</text>
  <polyline fill="none" stroke="#166534" stroke-width="2" points="56.00,278.93 57.11,278.93 59.34,239.76 59.62,239.76 60.88,239.76 62.13,239.76 63.39,239.76 64.78,236.59 65.89,236.59 67.15,236.59 68.40,236.59 69.66,236.59 70.91,236.59 72.16,236.59 73.42,236.59 74.67,236.59 75.93,236.59 77.18,236.59 78.43,236.59 79.69,236.59 80.94,236.59 82.20,236.59 83.45,236.59 84.71,236.59 85.96,236.59 87.21,236.59 88.47,236.59 89.72,236.59 90.98,236.59 92.23,236.59 93.48,236.59 94.74,236.59 95.99,236.59 97.25,236.59 98.50,236.59 99.75,236.59 101.01,236.59 102.82,226.21 103.52,226.21 104.77,226.21 106.02,226.21 107.28,226.21 108.53,226.21 109.79,226.21 111.04,227.63 112.30,227.63 113.55,227.63 114.80,227.63 116.06,227.63 117.31,227.63 118.57,227.63 119.82,227.63 121.07,227.63 122.33,227.63 123.58,227.63 124.84,227.63 126.09,227.63 127.34,227.63 128.60,227.63 129.85,227.63 132.08,223.77 132.36,223.77 133.62,223.77 134.87,223.77 136.12,223.77 137.38,223.77 138.63,223.77 139.89,225.01 141.14,225.01 142.39,225.01 143.65,225.01 144.90,225.01 146.16,225.01 147.41,225.01 148.66,225.01 149.92,225.01 151.17,225.01 152.43,225.01 153.68,225.01 154.94,225.01 156.19,225.01 157.44,225.01 158.70,225.01 159.95,225.01 161.21,225.01 162.46,225.01 163.71,225.01 164.97,225.01 166.22,225.01 167.48,225.01 168.73,225.01 169.98,225.01 171.24,225.01 172.49,225.01 173.75,225.01 175.00,225.01 176.25,225.01 177.51,225.01 178.76,225.01 180.02,225.01 181.27,225.01 182.53,225.01 183.78,225.01 185.03,225.01 186.29,225.01 187.54,225.01 188.80,225.01 190.05,225.01 191.30,225.01 192.56,225.01 193.81,225.01 195.07,225.01 196.32,225.01 197.57,225.01 198.83,225.01 200.08,225.01 201.34,225.01 202.59,225.01 203.85,225.01 205.10,225.01 206.35,225.01 207.61,225.01 208.86,225.01 210.12,225.01 212.35,215.10 212.62,215.10 213.88,215.10 216.11,198.54 216.53,190.74 217.64,190.74 218.89,190.74 220.15,190.74 221.40,190.74 223.63,163.86 223.91,163.86 225.17,163.86 226.42,163.86 228.23,150.83 228.93,150.83 230.18,150.83 231.44,150.83 232.69,150.83 233.94,150.83 235.20,150.83 236.45,150.83 237.71,150.83 238.96,150.83 241.19,145.49 241.47,145.49 242.72,145.49 243.98,145.49 245.23,145.49 246.48,145.49 248.71,132.15 248.99,132.15 250.25,132.15 251.50,132.15 252.76,132.15 254.01,132.15 255.26,132.15 256.66,131.03 257.77,131.03 259.03,131.03 260.28,131.03 261.53,131.03 262.79,131.03 264.04,131.03 265.30,131.03 266.55,131.03 267.80,136.24 269.06,136.24 270.31,136.24 271.57,136.24 273.38,130.24 274.08,130.24 275.33,130.24 276.58,130.24 277.84,130.24 279.09,130.24 280.35,130.24 281.60,130.24 282.99,130.19 284.11,130.19 285.36,130.19 286.62,130.19 287.87,130.19 289.12,130.19 290.38,130.19 291.63,130.19 292.89,130.19 294.14,130.19 295.40,130.19 296.65,130.19 297.90,130.19 299.16,130.19 300.41,130.19 301.67,130.19 302.92,130.19 304.17,130.19 305.43,130.19 306.68,130.19 307.94,130.19 309.19,130.19 310.44,130.19 311.70,130.19 312.95,130.19 314.21,130.19 315.46,130.19 316.72,130.19 317.97,130.19 319.22,130.19 320.48,130.19 321.73,130.19 322.99,130.19 324.24,130.19 325.49,130.19 326.75,130.19 328.14,128.04 329.26,128.04 330.51,128.04 331.76,128.04 333.58,126.28 334.27,126.28 335.53,126.28 336.78,126.28 337.90,126.28 339.15,126.63 340.40,126.63 341.66,126.63 342.91,126.63 344.17,126.63 345.42,126.63 346.67,126.63 347.93,126.63 349.18,126.63 350.44,132.70 351.69,132.70 352.94,132.70 354.20,132.70 355.45,132.70 356.71,132.70 357.96,132.70 359.22,132.70 360.47,132.70 361.72,132.70 362.98,132.70 364.23,132.70 365.49,132.70 366.74,132.70 367.99,134.62 369.25,134.62 370.50,134.62 371.76,134.62 373.01,134.62 374.26,134.62 375.52,134.62 376.77,134.62 378.03,134.62 379.28,134.62 380.54,134.62 381.79,134.62 383.04,134.62 384.30,134.62 385.97,133.07 386.81,133.07 388.06,133.07 389.31,133.07 390.57,133.07 391.82,133.07 393.08,133.07 394.33,133.07 395.58,133.07 396.84,133.07 398.09,133.07 399.35,133.07 400.60,133.07 401.85,133.07 403.11,133.07 404.36,133.07 405.62,133.07 406.87,140.64 408.13,140.64 409.38,140.64 410.63,140.64 411.89,140.64 413.14,140.64 414.40,140.64 415.65,140.64 416.90,140.64 418.16,140.64 419.41,140.64 420.67,140.64 421.92,140.64 423.17,140.64 424.43,140.64 425.68,140.64 426.94,140.64 428.19,140.64 429.45,140.64 430.70,140.64 431.95,140.64 433.21,155.92 434.46,155.92 435.72,155.92 436.97,155.92 438.22,155.92 439.48,155.92 440.73,155.92 441.99,159.56 443.24,159.56 444.49,159.56 445.75,159.56 447.00,159.56 448.26,159.56 449.51,159.56 450.77,149.63 452.02,149.63 453.27,149.63 454.53,149.63 455.78,149.63 457.04,150.00 458.29,150.00 460.38,144.10 460.80,145.36 462.05,145.36 463.31,145.36 464.56,145.36 465.81,145.36 467.07,145.36 468.32,145.36 469.58,145.36 470.83,145.36 472.08,145.36 473.34,145.36 474.59,145.36 476.68,144.34 477.10,144.34 478.36,144.34 479.61,144.34 480.86,144.34 482.12,144.34 484.21,135.80 484.63,139.57 485.88,139.57 487.13,139.57 488.39,139.57 489.64,139.57 490.90,139.57 492.15,139.57 493.40,139.57 494.66,139.57 495.91,139.57 497.17,139.57 498.42,139.57 499.68,139.57 500.93,139.57 502.18,139.57 503.44,139.57 504.69,139.57 505.95,139.57 507.20,139.57 508.87,144.07 509.71,144.07 510.96,144.07 512.22,144.07 513.47,144.07 514.72,144.07 515.98,144.07 517.23,144.07 518.49,144.07 519.74,144.07 521.00,144.07 522.25,144.07 523.50,144.07 524.76,144.07 526.01,144.07 527.27,144.07 528.52,144.07 529.77,144.07 531.03,144.07 532.28,144.07 533.54,144.07 534.79,144.07 536.04,144.07 537.30,144.07 538.55,144.07 539.81,144.07 541.06,144.07 542.32,144.07 543.57,144.07 544.82,144.07 546.08,144.07 547.33,144.07 548.59,144.07 549.84,144.07 551.09,144.07 552.35,144.07 553.60,144.07 554.86,144.07 556.11,144.07 557.36,144.07 558.62,144.07 559.87,144.07 561.13,151.99 562.38,151.99 563.63,151.99 565.31,148.92 566.14,148.92 567.40,148.92 568.65,148.92 569.91,148.92 571.16,148.92 572.41,155.68 573.67,155.68 574.92,155.68 576.18,155.68 577.43,155.68 578.68,155.68 579.94,155.68 581.19,155.68 583.28,149.21 584.54,144.36 584.95,144.36 586.21,144.36 587.46,144.36 588.72,144.36 589.97,144.36 591.23,144.36 592.48,143.03 593.73,143.03 594.99,143.03 596.24,143.03 597.50,143.03 598.75,143.03 600.00,143.03 601.26,138.39 602.51,138.39 603.77,138.39 605.02,138.39 606.27,138.39 608.36,136.76 608.78,136.76 610.04,136.76 611.29,136.76 612.55,136.76 613.80,136.76 615.05,136.76 616.31,144.34 617.56,144.34 618.82,144.34 620.07,144.34 621.18,144.34 622.44,144.34 623.69,144.34 624.95,144.34 626.20,144.34 627.45,144.34 628.71,149.89 629.96,149.89 631.22,149.89 632.47,149.89 633.73,149.89 634.98,149.89 636.23,149.89 637.49,149.89 638.74,149.89 640.00,149.89 641.25,149.89 642.50,149.89 643.76,149.89 645.01,149.89 646.27,156.00 647.52,156.00 648.77,156.00 650.03,156.00 651.28,156.00 652.54,156.00 653.79,156.00 655.05,156.00 656.30,156.00 657.55,156.00 658.81,156.00 660.06,156.00 661.32,156.00 662.57,156.00 663.82,156.00 665.08,156.00 666.33,156.00 667.59,156.00 668.84,156.00 670.09,156.00 671.35,156.00 672.60,156.00 673.86,156.00 675.11,156.00 676.37,156.00 677.62,156.00 678.87,156.00 680.13,156.00 681.38,156.00 682.64,156.00 683.89,156.00 685.14,156.00 686.40,156.00 687.65,156.00 688.91,156.00 690.16,156.00 691.41,156.00 692.67,156.00 693.92,156.00 695.18,156.00 696.43,156.00 697.68,159.79 698.94,159.79 700.19,159.79 701.45,159.79 702.70,170.56 703.96,170.56 705.21,170.56 706.46,170.56 707.72,171.66 708.97,171.66 710.23,171.66 711.48,171.66 712.73,171.66 713.99,171.66 715.24,171.66 716.50,171.66 717.75,171.66 719.00,171.66 720.26,171.66 721.51,171.66 722.77,171.66 724.02,171.66 725.28,171.66 726.53,171.66 727.78,171.66 729.04,171.66 730.29,171.66 731.55,171.66 733.50,169.91 734.05,169.91 735.31,169.91 736.56,169.91 737.82,169.91 739.35,168.44 740.32,168.44 741.58,168.44 742.83,168.44 744.09,168.44 745.34,168.44 746.60,168.44 747.85,168.44 749.10,168.44 751.05,163.59 751.61,163.59 752.87,163.59 754.12,163.59 755.37,163.59 756.63,163.59 757.88,163.59 759.14,163.59 760.39,163.59 761.64,163.59 762.90,163.59 764.15,163.59 765.41,163.59 766.66,163.59 767.92,163.59 769.17,163.59 770.42,163.59 771.68,163.59 772.93,163.59 774.19,168.99 775.44,168.99 776.69,168.99 777.95,168.99 779.20,168.99 780.46,168.99 781.71,168.99 782.96,168.99 784.22,168.99 785.47,168.99 786.73,168.99 788.68,162.07 789.23,162.07 790.49,162.07 791.74,162.07 793.00,162.07 794.25,162.07 795.51,162.07 796.76,162.07 798.01,162.07 799.27,162.07 801.22,155.24 801.78,155.24 803.03,155.24 805.40,153.14 805.54,153.14 806.79,153.14 809.16,149.60 809.30,149.60 810.55,149.60 811.81,149.60 813.06,149.60 814.32,149.60 815.57,149.60 816.83,149.60 818.08,149.60 819.33,149.60 820.59,149.60 822.12,144.91 823.10,144.91 824.35,144.91 825.60,144.91 826.86,144.91 828.11,144.91 829.37,144.91 830.62,144.91 831.87,144.91 833.13,144.91 834.38,144.91 836.33,141.48 836.89,141.48 838.15,141.48 839.40,141.48 840.65,141.48 841.91,141.48 843.16,141.48 844.42,141.48 845.67,141.48 846.92,147.14 848.18,147.14 849.43,147.14 850.69,147.14 851.94,147.14 853.19,147.14 854.45,150.10 855.70,150.10 856.96,150.10 858.21,150.10 859.46,150.10 860.72,150.10 863.09,143.37 863.23,143.37 864.48,143.37 865.74,143.37 866.99,143.37 868.24,143.37 869.50,143.37 870.75,143.37 872.01,143.37 873.26,143.37 874.51,147.30 875.77,147.30 877.02,147.30 878.28,147.30 879.53,147.30 880.78,159.58 882.04,159.58 883.29,159.58 884.55,159.58 885.80,166.27 887.06,166.27 888.31,166.27 889.56,166.27 890.82,166.27 892.07,166.27 893.60,165.11 894.58,165.11 895.83,165.11 897.09,165.11 898.34,165.11 899.60,165.11 900.85,165.11 901.97,165.11 903.22,165.11 904.47,165.11 905.73,165.11 906.98,165.11 908.24,165.11 909.49,165.11 910.74,165.11 912.00,165.11 913.25,170.46 914.51,170.46 915.76,170.46 917.01,170.46 918.27,170.46 919.52,170.46 920.78,170.46 922.03,170.46 923.28,170.46 924.54,170.46 925.79,172.06 927.05,172.06 928.30,172.06 929.56,172.06 930.81,172.06 932.06,172.06 933.32,172.06 934.57,172.06 935.83,172.06 937.08,173.92 938.33,173.92 940.15,171.90 940.84,171.90 942.10,171.90 943.35,171.90 944.60,171.90 945.86,173.18 947.11,173.18 948.37,173.18 949.62,173.18 950.88,173.18 952.13,173.18 953.38,173.18 954.64,173.18 955.89,173.18 957.15,173.18 958.40,173.18 960.63,171.85 960.91,171.85 962.16,171.85 963.42,171.85 964.67,171.85 965.92,171.85 967.18,171.85 968.43,171.85 969.69,171.85 970.94,171.85 972.20,171.85 973.45,171.85 974.70,171.85 975.96,171.85 977.21,171.85 978.47,171.85 979.72,171.85 980.97,172.27 982.23,172.27 983.48,172.27 984.74,172.27 985.99,172.27 987.24,172.27 988.50,172.27 989.75,172.27 991.01,172.27 992.26,172.27 993.52,172.27 994.77,172.27 996.02,172.27 997.28,172.27 998.53,172.27 999.79,172.27 1001.04,172.27 1002.29,172.27 1003.55,172.27 1004.80,172.27 1006.06,172.27 1007.31,172.27 1008.56,172.27 1009.82,172.27 1011.07,172.27 1012.33,172.27 1013.58,172.27 1014.83,172.27 1016.09,172.27 1017.34,172.27 1018.60,172.27 1019.85,172.27 1021.11,172.27 1022.36,172.27 1023.61,172.27 1024.87,172.27 1026.12,172.27 1027.38,172.27 1028.63,172.27 1029.88,172.27 1031.14,172.27 1032.39,172.27 1033.65,172.27 1034.90,172.27 1036.15,172.27 1037.41,172.27 1039.64,165.14 1039.92,165.14 1041.17,165.14 1042.43,165.14 1043.68,165.14 1044.93,165.14 1046.19,165.14 1047.58,163.83 1048.70,163.83 1049.95,163.83 1051.20,163.83 1052.46,163.83 1053.71,163.83 1054.97,163.83 1056.22,163.83 1057.47,163.83 1058.73,163.83 1059.98,163.83 1061.24,163.83 1062.49,163.83 1063.75,163.83 1065.00,163.83 1067.23,156.49 1067.51,156.49 1068.76,156.49 1070.02,156.49 1071.27,156.49 1072.52,156.49 1073.78,156.49 1075.03,156.49 1076.29,156.49 1077.54,156.49 1078.79,156.49 1080.05,156.49 1081.30,156.49 1082.56,156.49 1083.81,156.49 1085.06,156.49 1086.32,156.49 1087.57,156.49 1088.83,156.49 1090.08,156.49 1091.34,156.49 1092.59,156.49 1093.84,156.49 1095.10,156.49 1096.35,156.49 1097.61,156.49 1098.86,156.49 1100.11,156.49 1101.37,156.49 1102.62,156.49 1103.88,156.49 1105.13,156.49 1106.38,156.49 1107.64,156.49 1108.89,156.49 1110.15,156.49 1111.40,156.49 1112.66,156.49 1113.91,156.49 1115.16,156.49 1116.42,156.49 1117.67,156.49 1118.93,156.49 1120.18,156.49 1122.41,156.10 1122.69,156.10 1123.94,156.10 1125.20,156.10 1126.45,156.10 1127.70,156.10 1128.96,156.10 1130.21,156.10 1131.47,156.10 1132.72,156.10 1133.98,156.10 1135.23,156.10 1136.48,156.10 1137.74,156.10 1138.99,156.10 1140.25,156.10 1141.50,156.10 1142.75,156.10 1144.01,156.10 1145.26,156.10 1146.52,156.10 1147.77,156.10 1149.02,156.10 1150.28,156.10 1151.53,156.10 1153.76,155.94 1154.04,155.94 1155.29,155.94 1156.55,155.94 1157.80,157.91 1159.06,157.91 1160.31,157.91 1161.57,157.91 1162.82,157.91 1164.07,157.91 1165.33,157.91 1166.58,157.91 1167.84,157.91 1169.09,157.91 1170.34,157.91 1171.60,157.91 1172.85,157.91 1174.11,157.91 1175.36,157.91 1176.61,157.91 1177.87,157.91 1179.12,157.91 1180.38,157.91 1181.63,227.34 1182.89,227.34 1184.00,227.34" />
  <line x1="56.00" y1="280" x2="56.00" y2="286" stroke="#777777" /><text x="56.00" y="308" text-anchor="middle" font-size="12" fill="#777777">0</text><line x1="281.60" y1="280" x2="281.60" y2="286" stroke="#777777" /><text x="281.60" y="308" text-anchor="middle" font-size="12" fill="#777777">1619</text><line x1="507.20" y1="280" x2="507.20" y2="286" stroke="#777777" /><text x="507.20" y="308" text-anchor="middle" font-size="12" fill="#777777">3238</text><line x1="732.80" y1="280" x2="732.80" y2="286" stroke="#777777" /><text x="732.80" y="308" text-anchor="middle" font-size="12" fill="#777777">4857</text><line x1="958.40" y1="280" x2="958.40" y2="286" stroke="#777777" /><text x="958.40" y="308" text-anchor="middle" font-size="12" fill="#777777">6476</text><line x1="1184.00" y1="280" x2="1184.00" y2="286" stroke="#777777" /><text x="1184.00" y="308" text-anchor="middle" font-size="12" fill="#777777">8095</text>
  <line x1="50" y1="280.00" x2="56" y2="280.00" stroke="#777777" /><text x="46" y="284.00" text-anchor="end" font-size="12" fill="#777777">0.00</text><line x1="50" y1="214.50" x2="56" y2="214.50" stroke="#777777" /><text x="46" y="218.50" text-anchor="end" font-size="12" fill="#777777">0.25</text><line x1="50" y1="149.00" x2="56" y2="149.00" stroke="#777777" /><text x="46" y="153.00" text-anchor="end" font-size="12" fill="#777777">0.50</text><line x1="50" y1="83.50" x2="56" y2="83.50" stroke="#777777" /><text x="46" y="87.50" text-anchor="end" font-size="12" fill="#777777">0.75</text><line x1="50" y1="18.00" x2="56" y2="18.00" stroke="#777777" /><text x="46" y="22.00" text-anchor="end" font-size="12" fill="#777777">1.00</text>
</svg>