<svg xmlns="http://www.w3.org/2000/svg" width="1200" height="320" viewBox="0 0 1200 320">
  <rect width="1200" height="320" fill="#fafafa" />
  <text x="56" y="14" font-size="14" fill="#111827">Anomaly Score Timeline</text>
  
  <line x1="56" y1="18" x2="56" y2="280" stroke="#777777" />
  <line x1="56" y1="280" x2="1184" y2="280" stroke="#777777" />
  <line x1="56" y1="149.00" x2="1184" y2="149.00" stroke="#b45309" stroke-dasharray="5 5" />
  <line x1="56" y1="83.50" x2="1184" y2="83.50" stroke="#b91c1c" stroke-dasharray="4 4" />
  <text x="1180" y="143.00" text-anchor="end" font-size="12" fill="#b45309">alert 0.50</text>
  <text x="1180" y="77.50" text-anchor="end" font-size="12" fill="#b91c1c">high 0.75</text>
  <polyline fill="none" stroke="#166534" stroke-width="2" points="56.00,280.00 57.26,280.00 58.51,280.00 59.77,280.00 61.02,280.00 62.28,280.00 63.54,280.00 64.79,280.00 66.05,280.00 67.31,280.00 68.56,280.00 69.82,280.00 71.07,280.00 72.33,280.00 73.59,280.00 74.84,280.00 76.10,280.00 77.35,280.00 78.61,280.00 79.87,280.00 81.12,280.00 82.38,280.00 83.63,280.00 84.89,280.00 86.15,280.00 87.40,280.00 88.66,280.00 89.92,280.00 91.17,280.00 92.43,280.00 93.68,280.00 94.94,280.00 96.20,280.00 97.45,280.00 98.71,280.00 99.96,280.00 101.22,280.00 102.48,280.00 103.73,280.00 104.99,280.00 106.24,280.00 107.50,280.00 108.76,280.00 110.01,280.00 111.27,280.00 112.53,280.00 113.78,280.00 115.04,280.00 116.29,280.00 117.55,280.00 118.81,280.00 120.06,280.00 121.32,280.00 122.57,280.00 123.83,280.00 125.09,280.00 126.34,280.00 127.60,280.00 128.86,280.00 130.11,280.00 131.37,280.00 132.62,280.00 133.88,280.00 135.14,280.00 136.39,280.00 137.65,280.00 138.90,280.00 140.16,280.00 141.42,280.00 142.67,280.00 143.93,280.00 145.18,280.00 146.44,280.00 147.70,280.00 148.95,280.00 150.21,280.00 151.47,280.00 152.72,280.00 153.98,280.00 155.23,280.00 156.49,280.00 157.75,280.00 159.00,280.00 160.26,280.00 161.51,280.00 162.77,280.00 164.03,280.00 165.28,280.00 166.54,280.00 167.80,280.00 169.05,280.00 170.31,280.00 171.56,280.00 172.82,280.00 174.08,280.00 175.33,280.00 176.59,280.00 177.84,280.00 179.10,280.00 180.36,280.00 181.61,280.00 182.87,280.00 184.12,280.00 185.38,280.00 186.64,280.00 187.89,280.00 189.15,280.00 190.41,280.00 191.66,280.00 192.92,280.00 194.17,280.00 195.43,280.00 196.69,280.00 197.94,280.00 199.20,280.00 200.45,280.00 201.71,280.00 202.97,280.00 204.22,280.00 205.48,280.00 206.73,280.00 207.99,280.00 209.25,280.00 210.50,280.00 211.76,280.00 213.02,280.00 214.27,280.00 215.53,280.00 216.78,280.00 218.04,280.00 219.30,280.00 220.55,280.00 221.81,280.00 223.06,280.00 224.32,280.00 225.58,280.00 226.83,280.00 228.09,280.00 229.35,280.00 230.60,280.00 231.86,280.00 233.11,280.00 234.37,280.00 235.63,280.00 236.88,280.00 238.14,280.00 239.39,280.00 240.65,280.00 241.91,280.00 243.16,280.00 244.42,280.00 245.67,280.00 246.93,280.00 248.19,280.00 249.44,280.00 250.70,280.00 251.96,280.00 253.21,280.00 254.47,280.00 255.72,280.00 256.98,280.00 258.24,280.00 259.49,280.00 260.75,280.00 262.00,280.00 263.26,280.00 264.52,280.00 265.77,280.00 267.03,280.00 268.29,280.00 269.54,280.00 270.80,280.00 272.05,280.00 273.31,280.00 274.57,280.00 275.82,280.00 277.08,280.00 278.33,280.00 279.59,280.00 280.85,280.00 282.10,280.00 283.36,280.00 284.61,280.00 285.87,280.00 287.13,280.00 288.38,280.00 289.64,280.00 290.90,280.00 292.15,280.00 293.41,280.00 294.66,280.00 295.92,280.00 297.18,280.00 298.43,280.00 299.69,280.00 300.94,280.00 302.20,280.00 303.46,280.00 304.71,280.00 305.97,280.00 307.22,280.00 308.48,280.00 309.74,280.00 310.99,280.00 312.25,280.00 313.51,280.00 314.76,280.00 316.02,280.00 317.27,280.00 318.53,280.00 319.79,280.00 321.04,280.00 322.30,280.00 323.55,280.00 324.81,280.00 326.07,280.00 327.32,280.00 328.58,280.00 329.84,280.00 331.09,280.00 332.35,280.00 333.60,280.00 334.86,280.00 336.12,280.00 337.37,280.00 338.63,280.00 339.88,280.00 341.14,280.00 342.40,280.00 343.65,280.00 344.91,280.00 346.16,280.00 347.42,280.00 348.68,280.00 349.93,280.00 351.19,280.00 352.45,280.00 353.70,280.00 354.96,280.00 356.21,280.00 357.47,280.00 358.73,280.00 359.98,280.00 361.24,280.00 362.49,280.00 363.75,280.00 365.01,280.00 366.26,280.00 367.52,280.00 368.78,280.00 370.03,280.00 371.29,280.00 372.54,280.00 373.80,280.00 375.06,280.00 376.31,280.00 377.57,280.00 378.82,280.00 380.08,280.00 381.34,280.00 382.59,280.00 383.85,280.00 385.10,280.00 386.36,280.00 387.62,280.00 388.87,280.00 390.13,280.00 391.39,280.00 392.64,280.00 393.90,280.00 395.15,280.00 396.41,280.00 397.67,280.00 398.92,280.00 400.18,280.00 401.43,280.00 402.69,280.00 403.95,280.00 405.20,280.00 406.46,280.00 407.71,280.00 408.97,280.00 410.23,280.00 411.48,280.00 412.74,280.00 414.00,280.00 415.25,280.00 416.51,280.00 417.76,280.00 419.02,280.00 420.28,280.00 421.53,280.00 422.79,280.00 424.04,280.00 425.30,280.00 426.56,280.00 427.81,280.00 429.07,280.00 430.33,280.00 431.58,280.00 432.84,280.00 434.09,280.00 435.35,280.00 436.61,280.00 437.86,280.00 439.12,280.00 440.37,280.00 441.63,280.00 442.89,280.00 444.14,280.00 445.40,280.00 446.65,280.00 447.91,280.00 449.17,280.00 450.42,280.00 451.68,280.00 452.94,280.00 454.19,280.00 455.45,280.00 456.70,280.00 457.96,280.00 459.22,280.00 460.47,280.00 461.73,280.00 462.98,280.00 464.24,280.00 465.50,280.00 466.75,280.00 468.01,280.00 469.27,280.00 470.52,280.00 471.78,280.00 473.03,280.00 474.29,280.00 475.55,280.00 476.80,280.00 478.06,280.00 479.31,280.00 480.57,280.00 481.83,280.00 483.08,280.00 484.34,280.00 485.59,280.00 486.85,280.00 488.11,280.00 489.36,280.00 490.62,280.00 491.88,280.00 493.13,280.00 494.39,280.00 495.64,280.00 496.90,280.00 498.16,280.00 499.41,280.00 500.67,280.00 501.92,280.00 503.18,280.00 504.44,280.00 505.69,280.00 506.95,280.00 508.20,280.00 509.46,280.00 510.72,280.00 511.97,280.00 513.23,280.00 514.49,280.00 515.74,280.00 517.00,280.00 518.25,280.00 519.51,280.00 520.77,280.00 522.02,280.00 523.28,280.00 524.53,280.00 525.79,280.00 527.05,280.00 528.30,280.00 529.56,280.00 530.82,280.00 532.07,280.00 533.33,280.00 534.58,280.00 535.84,280.00 537.10,280.00 538.35,280.00 539.61,280.00 540.86,280.00 542.12,280.00 543.38,280.00 544.63,280.00 545.89,280.00 547.14,280.00 548.40,280.00 549.66,280.00 550.91,280.00 552.17,280.00 553.43,280.00 554.68,280.00 555.94,280.00 557.19,280.00 558.45,280.00 559.71,280.00 560.96,280.00 562.22,280.00 563.47,280.00 564.73,280.00 565.99,280.00 567.24,280.00 568.50,280.00 569.76,280.00 571.01,280.00 572.27,280.00 573.52,280.00 574.78,280.00 576.04,280.00 577.29,280.00 578.55,280.00 579.80,280.00 581.06,280.00 582.32,280.00 583.57,280.00 584.83,280.00 586.08,280.00 587.34,280.00 588.60,280.00 589.85,280.00 591.11,280.00 592.37,280.00 593.62,280.00 594.88,280.00 596.13,280.00 597.39,280.00 598.65,280.00 599.90,280.00 601.16,280.00 602.41,280.00 603.67,280.00 604.93,280.00 606.18,280.00 607.44,280.00 608.69,280.00 609.95,280.00 611.21,280.00 612.46,280.00 613.72,280.00 614.98,280.00 616.23,280.00 617.49,280.00 618.74,280.00 620.00,280.00 621.26,280.00 622.51,280.00 623.77,280.00 625.02,280.00 626.28,280.00 627.54,280.00 628.79,280.00 630.05,280.00 631.31,280.00 632.56,280.00 633.82,280.00 635.07,280.00 636.33,280.00 637.59,280.00 638.84,280.00 640.10,280.00 641.35,280.00 642.61,280.00 643.87,280.00 645.12,280.00 646.38,280.00 647.63,280.00 648.89,280.00 650.15,280.00 651.40,280.00 652.66,280.00 653.92,280.00 655.17,280.00 656.43,280.00 657.68,280.00 658.94,280.00 660.20,280.00 661.45,280.00 662.71,280.00 663.96,280.00 665.22,280.00 666.48,280.00 667.73,280.00 668.99,280.00 670.24,280.00 671.50,280.00 672.76,280.00 674.01,280.00 675.27,280.00 676.53,280.00 677.78,280.00 679.04,280.00 680.29,280.00 681.55,280.00 682.81,280.00 684.06,280.00 685.32,280.00 686.57,280.00 687.83,280.00 689.09,280.00 690.34,280.00 691.60,280.00 692.86,280.00 694.11,280.00 695.37,280.00 696.62,280.00 697.88,280.00 699.14,280.00 700.39,280.00 701.65,280.00 702.90,280.00 704.16,280.00 705.42,280.00 706.67,280.00 707.93,280.00 709.18,280.00 710.44,280.00 711.70,280.00 712.95,280.00 714.21,280.00 715.47,280.00 716.72,280.00 717.98,280.00 719.23,280.00 720.49,280.00 721.75,280.00 723.00,280.00 724.26,280.00 725.51,280.00 726.77,280.00 728.03,280.00 729.28,280.00 730.54,280.00 731.80,280.00 733.05,280.00 734.31,280.00 735.56,280.00 736.82,280.00 738.08,280.00 739.33,280.00 740.59,280.00 741.84,280.00 743.10,280.00 744.36,280.00 745.61,280.00 746.87,280.00 748.12,280.00 749.38,280.00 750.64,280.00 751.89,280.00 753.15,280.00 754.41,280.00 755.66,280.00 756.92,280.00 758.17,280.00 759.43,280.00 760.69,280.00 761.94,280.00 763.20,280.00 764.45,280.00 765.71,280.00 766.97,280.00 768.22,280.00 769.48,280.00 770.73,280.00 771.99,280.00 773.25,280.00 774.50,280.00 775.76,280.00 777.02,280.00 778.27,280.00 779.53,280.00 780.78,280.00 782.04,280.00 783.30,280.00 784.55,280.00 785.81,280.00 787.06,280.00 788.32,280.00 789.58,280.00 790.83,280.00 792.09,280.00 793.35,280.00 794.60,280.00 795.86,280.00 797.11,280.00 798.37,280.00 799.63,280.00 800.88,280.00 802.14,280.00 803.39,280.00 804.65,280.00 805.91,280.00 807.16,280.00 808.42,280.00 809.67,280.00 810.93,280.00 812.19,280.00 813.44,280.00 814.70,280.00 815.96,280.00 817.21,280.00 818.47,280.00 819.72,280.00 820.98,280.00 822.24,280.00 823.49,280.00 824.75,280.00 826.00,280.00 827.26,280.00 828.52,280.00 829.77,280.00 831.03,280.00 832.29,280.00 833.54,280.00 834.80,280.00 836.05,280.00 837.31,280.00 838.57,280.00 839.82,280.00 841.08,280.00 842.33,280.00 843.59,280.00 844.85,280.00 846.10,280.00 847.36,280.00 848.61,280.00 849.87,280.00 851.13,280.00 852.38,280.00 853.64,280.00 854.90,280.00 856.15,280.00 857.41,280.00 858.66,280.00 859.92,280.00 861.18,280.00 862.43,280.00 863.69,280.00 864.94,280.00 866.20,280.00 867.46,280.00 868.71,280.00 869.97,280.00 871.22,280.00 872.48,280.00 873.74,280.00 874.99,280.00 876.25,280.00 877.51,280.00 878.76,280.00 880.02,280.00 881.27,280.00 882.53,280.00 883.79,280.00 885.04,280.00 886.30,280.00 887.55,280.00 888.81,280.00 890.07,280.00 891.32,280.00 892.58,280.00 893.84,280.00 895.09,280.00 896.35,280.00 897.60,280.00 898.86,280.00 900.12,280.00 901.37,280.00 902.63,280.00 903.88,280.00 905.14,280.00 906.40,280.00 907.65,280.00 908.91,280.00 910.16,280.00 911.42,280.00 912.68,280.00 913.93,280.00 915.19,280.00 916.45,280.00 917.70,280.00 918.96,280.00 920.21,280.00 921.47,280.00 922.73,280.00 923.98,280.00 925.24,280.00 926.49,280.00 927.75,280.00 929.01,280.00 930.26,280.00 931.52,280.00 932.78,280.00 934.03,280.00 935.29,280.00 936.54,280.00 937.80,280.00 939.06,280.00 940.31,280.00 941.57,280.00 942.82,280.00 944.08,280.00 945.34,280.00 946.59,280.00 947.85,280.00 949.10,280.00 950.36,280.00 951.62,280.00 952.87,280.00 954.13,280.00 955.39,280.00 956.64,280.00 957.90,280.00 959.15,280.00 960.41,280.00 961.67,280.00 962.92,280.00 964.18,280.00 965.43,280.00 966.69,280.00 967.95,280.00 969.20,280.00 970.46,280.00 971.71,280.00 972.97,280.00 974.23,280.00 975.48,280.00 976.74,280.00 978.00,280.00 979.25,280.00 980.51,280.00 981.76,280.00 983.02,280.00 984.28,280.00 985.53,280.00 986.79,280.00 988.04,280.00 989.30,280.00 990.56,280.00 991.81,280.00 993.07,280.00 994.33,280.00 995.58,280.00 996.84,280.00 998.09,280.00 999.35,280.00 1000.61,280.00 1001.86,280.00 1003.12,280.00 1004.37,280.00 1005.63,280.00 1006.89,280.00 1008.14,280.00 1009.40,280.00 1010.65,280.00 1011.91,280.00 1013.17,280.00 1014.42,280.00 1015.68,280.00 1016.94,280.00 1018.19,280.00 1019.45,280.00 1020.70,280.00 1021.96,280.00 1023.22,280.00 1024.47,280.00 1025.73,280.00 1026.98,280.00 1028.24,280.00 1029.50,280.00 1030.75,280.00 1032.01,280.00 1033.27,280.00 1034.52,280.00 1035.78,280.00 1037.03,280.00 1038.29,280.00 1039.55,280.00 1040.80,280.00 1042.06,280.00 1043.31,280.00 1044.57,280.00 1045.83,280.00 1047.08,280.00 1048.34,280.00 1049.59,280.00 1050.85,280.00 1052.11,280.00 1053.36,280.00 1054.62,280.00 1055.88,280.00 1057.13,280.00 1058.39,280.00 1059.64,280.00 1060.90,280.00 1062.16,280.00 1063.41,280.00 1064.67,280.00 1065.92,280.00 1067.18,280.00 1068.44,280.00 1069.69,280.00 1070.95,280.00 1072.20,280.00 1073.46,280.00 1074.72,280.00 1075.97,280.00 1077.23,280.00 1078.49,280.00 1079.74,280.00 1081.00,280.00 1082.25,280.00 1083.51,280.00 1084.77,280.00 1086.02,280.00 1087.28,280.00 1088.53,280.00 1089.79,280.00 1091.05,280.00 1092.30,280.00 1093.56,280.00 1094.82,280.00 1096.07,280.00 1097.33,280.00 1098.58,280.00 1099.84,280.00 1101.10,280.00 1102.35,280.00 1103.61,280.00 1104.86,280.00 1106.12,280.00 1107.38,280.00 1108.63,280.00 1109.89,280.00 1111.14,280.00 1112.40,280.00 1113.66,280.00 1114.91,280.00 1116.17,280.00 1117.43,280.00 1118.68,280.00 1119.94,280.00 1121.19,280.00 1122.45,280.00 1123.71,280.00 1124.96,280.00 1126.22,280.00 1127.47,280.00 1128.73,280.00 1129.99,280.00 1131.24,280.00 1132.50,280.00 1133.76,280.00 1135.01,280.00 1136.27,280.00 1137.52,280.00 1138.78,280.00 1140.04,280.00 1141.29,280.00 1142.55,280.00 1143.80,280.00 1145.06,280.00 1146.32,280.00 1147.57,280.00 1148.83,280.00 1150.08,280.00 1151.34,280.00 1152.60,280.00 1153.85,280.00 1155.11,280.00 1156.37,280.00 1157.62,280.00 1158.88,280.00 1160.13,280.00 1161.39,280.00 1162.65,280.00 1163.90,280.00 1165.16,280.00 1166.41,280.00 1167.67,280.00 1168.93,280.00 1170.18,280.00 1171.44,280.00 1172.69,280.00 1173.95,280.00 1175.21,280.00 1176.46,280.00 1177.72,280.00 1178.98,280.00 1180.23,280.00 1181.49,280.00 1182.74,280.00 1184.00,280.00" />
  <line x1="56.00" y1="280" x2="56.00" y2="286" stroke="#777777" /><text x="56.00" y="308" text-anchor="middle" font-size="12" fill="#777777">0</text><line x1="280.85" y1="280" x2="280.85" y2="286" stroke="#777777" /><text x="280.85" y="308" text-anchor="middle" font-size="12" fill="#777777">179</text><line x1="506.95" y1="280" x2="506.95" y2="286" stroke="#777777" /><text x="506.95" y="308" text-anchor="middle" font-size="12" fill="#777777">359</text><line x1="731.80" y1="280" x2="731.80" y2="286" stroke="#777777" /><text x="731.80" y="308" text-anchor="middle" font-size="12" fill="#777777">538</text><line x1="957.90" y1="280" x2="957.90" y2="286" stroke="#777777" /><text x="957.90" y="308" text-anchor="middle" font-size="12" fill="#777777">718</text><line x1="1184.00" y1="280" x2="1184.00" y2="286" stroke="#777777" /><text x="1184.00" y="308" text-anchor="middle" font-size="12" fill="#777777">898</text>
  <line x1="50" y1="280.00" x2="56" y2="280.00" stroke="#777777" /><text x="46" y="284.00" text-anchor="end" font-size="12" fill="#777777">0.00</text><line x1="50" y1="214.50" x2="56" y2="214.50" stroke="#777777" /><text x="46" y="218.50" text-anchor="end" font-size="12" fill="#777777">0.25</text><line x1="50" y1="149.00" x2="56" y2="149.00" stroke="#777777" /><text x="46" y="153.00" text-anchor="end" font-size="12" fill="#777777">0.50</text><line x1="50" y1="83.50" x2="56" y2="83.50" stroke="#777777" /><text x="46" y="87.50" text-anchor="end" font-size="12" fill="#777777">0.75</text><line x1="50" y1="18.00" x2="56" y2="18.00" stroke="#777777" /><text x="46" y="22.00" text-anchor="end" font-size="12" fill="#777777">1.00</text>
</svg>