<svg xmlns="http://www.w3.org/2000/svg" width="1200" height="320" viewBox="0 0 1200 320">
  <rect width="1200" height="320" fill="#fafafa" />
  <text x="56" y="14" font-size="14" fill="#111827">Anomaly Score Timeline</text>
  
  <line x1="56" y1="18" x2="56" y2="280" stroke="#777777" />
  <line x1="56" y1="280" x2="1184" y2="280" stroke="#777777" />
  <line x1="56" y1="149.00" x2="1184" y2="149.00" stroke="#b45309" stroke-dasharray="5 5" />
  <line x1="56" y1="83.50" x2="1184" y2="83.50" stroke="#b91c1c" stroke-dasharray="4 4" />
  <text x="1180" y="143.00" text-anchor="end" font-size="12" fill="#b45309">alert 0.50</text>
  <text x="1180" y="77.50" text-anchor="end" font-size="12" fill="#b91c1c">high 0.75</text>
  <polyline fill="none" stroke="#166534" stroke-width="2" points="56.00,280.00 84.92,280.00 113.85,280.00 142.77,280.00 171.69,280.00 200.62,280.00 229.54,280.00 258.46,280.00 287.38,280.00 316.31,280.00 345.23,280.00 374.15,280.00 403.08,280.00 432.00,280.00 460.92,280.00 489.85,280.00 518.77,280.00 547.69,280.00 576.62,280.00 605.54,280.00 634.46,280.00 663.38,280.00 692.31,280.00 721.23,280.00 750.15,280.00 779.08,280.00 808.00,280.00 836.92,280.00 865.85,280.00 894.77,280.00 923.69,280.00 952.62,280.00 981.54,280.00 1010.46,280.00 1039.38,280.00 1068.31,280.00 1097.23,280.00 1126.15,280.00 1155.08,280.00 1184.00,280.00" />
  <line x1="56.00" y1="280" x2="56.00" y2="286" stroke="#777777" /><text x="56.00" y="308" text-anchor="middle" font-size="12" fill="#777777">0</text><line x1="258.46" y1="280" x2="258.46" y2="286" stroke="#777777" /><text x="258.46" y="308" text-anchor="middle" font-size="12" fill="#777777">7</text><line x1="489.85" y1="280" x2="489.85" y2="286" stroke="#777777" /><text x="489.85" y="308" text-anchor="middle" font-size="12" fill="#777777">15</text><line x1="721.23" y1="280" x2="721.23" y2="286" stroke="#777777" /><text x="721.23" y="308" text-anchor="middle" font-size="12" fill="#777777">23</text><line x1="952.62" y1="280" x2="952.62" y2="286" stroke="#777777" /><text x="952.62" y="308" text-anchor="middle" font-size="12" fill="#777777">31</text><line x1="1184.00" y1="280" x2="1184.00" y2="286" stroke="#777777" /><text x="1184.00" y="308" text-anchor="middle" font-size="12" fill="#777777">39</text>
  <line x1="50" y1="280.00" x2="56" y2="280.00" stroke="#777777" /><text x="46" y="284.00" text-anchor="end" font-size="12" fill="#777777">0.00</text><line x1="50" y1="214.50" x2="56" y2="214.50" stroke="#777777" /><text x="46" y="218.50" text-anchor="end" font-size="12" fill="#777777">0.25</text><line x1="50" y1="149.00" x2="56" y2="149.00" stroke="#777777" /><text x="46" y="153.00" text-anchor="end" font-size="12" fill="#777777">0.50</text><line x1="50" y1="83.50" x2="56" y2="83.50" stroke="#777777" /><text x="46" y="87.50" text-anchor="end" font-size="12" fill="#777777">0.75</text><line x1="50" y1="18.00" x2="56" y2="18.00" stroke="#777777" /><text x="46" y="22.00" text-anchor="end" font-size="12" fill="#777777">1.00</text>
</svg>