<svg xmlns="http://www.w3.org/2000/svg" width="1200" height="320" viewBox="0 0 1200 320">
  <rect width="1200" height="320" fill="#fafafa" />
  <text x="56" y="14" font-size="14" fill="#111827">Anomaly score timeline</text>
  <rect x="381.26" y="18" width="399.77" height="262" fill="#fecaca" fill-opacity="0.35" />
  <line x1="56" y1="18" x2="56" y2="280" stroke="#777777" />
  <line x1="56" y1="280" x2="1184" y2="280" stroke="#777777" />
  <line x1="56" y1="207.79" x2="1184" y2="207.79" stroke="#b45309" stroke-dasharray="5 5" />
  <line x1="56" y1="201.50" x2="1184" y2="201.50" stroke="#b91c1c" stroke-dasharray="4 4" />
  <text x="1180" y="201.79" text-anchor="end" font-size="12" fill="#b45309">alert 0.28</text>
  <text x="1180" y="195.50" text-anchor="end" font-size="12" fill="#b91c1c">high 0.30</text>
  <polyline fill="none" stroke="#166534" stroke-width="2" points="56.00,226.92 56.80,226.92 58.40,215.08 59.20,215.08 60.81,215.08 61.61,215.08 63.21,215.08 64.01,215.08 65.61,215.08 67.22,215.08 68.02,215.08 69.62,215.08 70.42,215.08 72.02,215.08 72.82,215.08 74.43,215.08 76.03,215.08 76.83,215.08 78.43,215.08 79.23,215.08 80.84,215.08 81.64,215.08 83.24,215.08 84.84,215.08 85.64,215.08 87.24,215.08 88.05,215.08 89.65,215.08 90.45,215.08 92.05,215.08 92.85,215.08 94.45,215.08 96.06,215.08 96.86,215.08 98.46,215.08 99.26,215.08 100.86,215.08 101.66,215.08 103.27,215.08 104.87,215.08 105.67,215.08 107.27,215.08 108.07,215.08 109.68,215.08 110.48,215.08 112.08,215.08 113.68,215.08 114.48,215.08 116.09,215.08 116.89,215.08 118.49,215.08 119.29,215.08 120.89,215.08 121.69,215.08 123.30,215.08 124.90,215.08 125.70,215.08 127.30,215.08 128.10,215.08 129.70,215.08 130.51,215.08 132.11,215.08 133.71,215.08 134.51,215.08 136.11,215.08 136.91,215.08 138.52,215.08 139.32,215.08 140.92,215.08 142.52,215.08 143.32,215.08 144.93,215.08 145.73,215.08 147.33,215.08 148.13,215.08 149.73,215.08 150.53,215.08 152.14,215.08 153.74,215.08 154.54,215.08 156.14,215.08 156.94,215.08 158.55,215.08 159.35,215.08 160.95,215.08 162.55,215.08 163.35,215.08 164.95,215.08 165.76,215.08 167.36,215.08 168.16,215.08 169.76,215.08 171.36,215.08 172.16,215.08 173.77,215.08 174.57,215.08 176.17,215.08 176.97,215.08 178.57,215.08 179.38,215.08 180.98,215.08 182.58,215.08 183.38,215.08 184.98,215.08 185.78,215.08 187.39,215.08 188.19,215.08 189.79,215.08 191.39,215.08 192.19,215.08 193.80,215.08 194.60,215.08 196.20,215.08 197.00,215.08 198.60,215.08 200.20,215.08 201.01,215.08 202.61,215.08 203.41,215.08 205.01,215.08 205.81,215.08 207.41,215.08 208.22,215.08 209.82,215.08 211.42,215.08 212.22,215.08 213.82,215.08 214.62,215.08 216.23,215.08 217.03,215.08 218.63,215.08 220.23,215.08 221.03,215.08 222.64,215.08 223.44,215.08 225.04,215.08 225.84,215.08 227.44,215.08 229.05,215.08 229.85,215.08 231.45,215.08 232.25,215.08 233.85,215.08 234.65,215.08 236.26,215.08 237.86,215.08 238.66,215.08 240.26,215.08 241.06,215.08 242.66,215.08 243.47,215.08 245.07,215.08 245.87,215.08 247.47,215.08 249.07,215.08 249.88,215.08 251.48,215.08 252.28,215.08 253.88,215.08 254.68,215.08 256.28,215.08 257.89,215.08 258.69,215.08 260.29,215.08 261.09,215.08 262.69,215.08 263.49,215.08 265.10,215.08 266.70,215.08 267.50,215.08 269.10,215.08 269.90,215.08 271.51,215.08 272.31,215.08 273.91,215.08 274.71,215.08 276.31,215.08 277.91,215.08 278.72,215.08 280.32,215.08 281.12,215.08 282.72,215.08 283.52,215.08 285.12,215.08 286.73,215.08 287.53,215.08 289.13,215.08 289.93,215.08 291.53,215.08 292.34,215.08 293.94,215.08 295.54,215.08 296.34,215.08 297.94,215.08 298.74,215.08 300.35,215.08 301.15,215.08 302.75,215.08 303.55,215.08 305.15,215.08 306.76,215.08 307.56,215.08 309.16,215.08 309.96,215.08 311.56,215.08 312.36,215.08 313.97,215.08 315.57,215.08 316.37,215.08 317.97,215.08 318.77,215.08 320.38,215.08 321.18,215.08 322.78,215.08 324.38,215.08 325.18,215.08 326.78,215.08 327.59,215.08 329.19,215.08 329.99,215.08 331.59,215.08 332.39,215.08 333.99,215.08 335.60,215.08 336.40,215.08 338.00,215.08 338.80,215.08 340.40,215.08 341.20,215.08 342.81,215.08 344.41,215.08 345.21,215.08 346.81,215.08 347.61,215.08 349.22,215.08 350.02,215.08 351.62,215.08 353.22,215.08 354.02,215.08 355.62,215.08 356.43,215.08 358.03,215.08 358.83,215.08 360.43,215.08 361.23,215.08 362.84,215.08 364.44,215.08 365.24,215.08 366.84,215.08 367.64,215.08 369.24,215.08 370.05,215.08 371.65,215.08 373.25,215.08 374.05,207.03 375.65,207.03 376.45,207.03 378.06,207.03 378.86,207.03 380.46,207.03 382.06,207.03 382.86,207.03 384.47,207.03 385.27,207.03 386.87,207.03 387.67,207.03 389.27,207.03 390.88,207.03 391.68,207.03 393.28,207.03 394.08,207.03 395.68,207.03 396.48,207.03 398.09,207.03 398.89,207.03 400.49,207.03 402.09,207.03 402.89,207.03 404.49,207.03 405.30,207.03 406.90,207.03 407.70,207.03 409.30,207.03 410.90,207.03 411.70,207.03 413.31,207.03 414.11,207.03 415.71,207.03 416.51,207.03 418.11,207.03 419.72,207.03 420.52,207.03 422.12,207.03 422.92,207.03 424.52,207.03 425.32,207.03 426.93,205.30 427.73,205.30 429.33,205.30 430.93,205.30 431.73,205.30 433.34,205.30 434.14,204.05 435.74,204.05 436.54,204.05 438.14,204.05 439.74,204.05 440.55,204.05 442.15,204.05 442.95,204.05 444.55,204.05 445.35,204.05 446.95,204.05 448.56,204.05 449.36,204.05 450.96,204.05 451.76,204.05 453.36,204.05 454.16,204.05 455.77,204.05 456.57,204.05 458.17,204.05 459.77,204.05 460.57,204.05 462.18,204.05 462.98,206.33 464.58,206.33 465.38,206.33 466.98,206.33 468.59,206.33 469.39,206.33 470.99,206.33 471.79,206.33 473.39,206.33 474.19,206.33 475.80,206.33 477.40,206.33 478.20,206.33 479.80,206.33 480.60,206.33 482.20,206.33 483.01,206.33 484.61,206.33 485.41,206.33 487.01,206.33 488.61,206.33 489.41,206.33 491.02,206.33 491.82,206.33 493.42,206.33 494.22,201.50 495.82,201.50 497.43,201.50 498.23,201.50 499.83,201.50 500.63,201.50 502.23,201.50 503.03,201.50 504.64,201.50 506.24,201.50 507.04,201.50 508.64,201.50 509.44,201.50 511.05,201.50 511.85,201.50 513.45,201.50 514.25,201.50 515.85,201.50 517.45,201.50 518.26,201.50 519.86,201.50 520.66,201.50 522.26,201.50 523.06,201.50 524.66,201.50 526.27,201.50 527.07,201.50 528.67,201.50 529.47,201.50 531.07,201.50 531.88,201.50 533.48,201.50 535.08,201.50 535.88,201.50 537.48,206.90 538.28,206.90 539.89,206.90 540.69,206.90 542.29,206.90 543.89,206.90 544.69,206.90 546.30,206.90 547.10,206.90 548.70,206.90 549.50,206.90 551.10,206.90 551.90,206.90 553.51,206.90 555.11,206.90 555.91,206.90 557.51,206.90 558.31,206.90 559.91,206.90 560.72,206.90 562.32,206.90 563.92,206.90 564.72,206.90 566.32,207.19 567.12,207.19 568.73,207.19 569.53,207.19 571.13,207.19 572.73,207.19 573.53,207.19 575.14,207.19 575.94,207.19 577.54,207.19 578.34,207.19 579.94,207.19 580.74,207.19 582.35,207.19 583.95,207.19 584.75,207.19 586.35,207.19 587.15,207.19 588.76,207.19 589.56,207.19 591.16,207.19 592.76,207.19 593.56,207.19 595.16,204.20 595.97,204.20 597.57,204.20 598.37,204.20 599.97,204.20 601.57,204.20 602.38,204.20 603.98,204.20 604.78,204.20 606.38,204.20 607.18,204.20 608.78,204.20 609.59,204.20 611.19,204.20 612.79,204.20 613.59,204.20 615.19,204.20 615.99,204.20 617.60,204.20 618.40,204.20 620.00,204.20 621.60,204.20 622.40,204.20 624.01,204.20 624.81,204.20 626.41,204.20 627.21,204.20 628.81,204.20 630.41,204.20 631.22,204.20 632.82,204.20 633.62,204.20 635.22,204.20 636.02,204.20 637.62,204.20 638.43,204.20 640.03,204.20 641.63,204.20 642.43,204.20 644.03,204.20 644.84,204.20 646.44,204.20 647.24,204.20 648.84,204.20 650.44,204.20 651.24,204.20 652.85,204.20 653.65,204.20 655.25,204.20 656.05,204.20 657.65,204.20 659.26,204.20 660.06,204.20 661.66,204.20 662.46,204.20 664.06,204.20 664.86,204.20 666.47,204.20 667.27,204.20 668.87,204.20 670.47,204.20 671.27,204.20 672.88,204.20 673.68,204.20 675.28,204.20 676.08,204.20 677.68,204.20 679.28,204.20 680.09,204.20 681.69,204.20 682.49,204.20 684.09,204.20 684.89,204.20 686.49,204.20 688.10,204.20 688.90,204.20 690.50,204.20 691.30,204.20 692.90,204.20 693.70,204.20 695.31,204.20 696.11,204.20 697.71,204.20 699.31,204.20 700.11,204.20 701.72,204.20 702.52,204.20 704.12,204.20 704.92,204.20 706.52,204.20 708.12,204.20 708.93,204.20 710.53,204.20 711.33,204.20 712.93,204.20 713.73,204.20 715.34,204.20 716.94,204.20 717.74,204.20 719.34,204.20 720.14,204.20 721.74,204.20 722.55,204.20 724.15,204.20 725.75,204.20 726.55,204.20 728.15,204.20 728.95,204.20 730.56,204.20 731.36,204.20 732.96,204.20 733.76,204.20 735.36,204.20 736.97,204.20 737.77,204.20 739.37,204.20 740.17,204.20 741.77,204.20 742.57,204.20 744.18,204.20 745.78,204.20 746.58,204.20 748.18,204.20 748.98,204.20 750.59,204.20 751.39,204.20 752.99,204.20 754.59,204.20 755.39,204.20 756.99,204.20 757.80,204.20 759.40,204.20 760.20,204.20 761.80,204.20 762.60,204.20 764.20,204.20 765.81,204.20 766.61,204.20 768.21,204.20 769.01,204.20 770.61,204.20 771.41,204.20 773.02,204.20 774.62,204.20 775.42,204.20 777.02,204.20 777.82,204.20 779.43,204.20 780.23,204.20 781.83,204.20 783.43,212.64 784.23,212.64 785.84,212.64 786.64,212.64 788.24,212.64 789.04,212.64 790.64,212.64 791.44,212.64 793.05,212.64 794.65,212.64 795.45,223.70 797.05,223.70 797.85,223.70 799.45,223.70 800.26,223.70 801.86,223.70 803.46,223.70 804.26,223.70 805.86,223.70 806.66,223.70 808.27,223.70 809.07,223.70 810.67,223.70 812.27,223.70 813.07,223.70 814.68,223.70 815.48,223.70 817.08,226.32 817.88,226.32 819.48,226.32 820.28,226.32 821.89,226.32 823.49,226.32 824.29,226.32 825.89,226.32 826.69,226.32 828.30,226.32 829.10,226.32 830.70,226.32 832.30,226.32 833.10,226.32 834.70,226.32 835.51,226.32 837.11,226.32 837.91,226.32 839.51,226.32 841.11,226.32 841.91,226.32 843.52,226.32 844.32,226.32 845.92,226.32 846.72,226.32 848.32,226.32 849.12,226.32 850.73,226.32 852.33,226.32 853.13,226.32 854.73,226.32 855.53,226.32 857.14,226.32 857.94,226.32 859.54,226.32 861.14,226.32 861.94,226.32 863.55,226.32 864.35,226.32 865.95,226.32 866.75,226.32 868.35,226.32 869.95,226.32 870.76,226.32 872.36,226.32 873.16,226.32 874.76,226.32 875.56,226.32 877.16,226.32 878.77,226.32 879.57,226.32 881.17,226.32 881.97,226.32 883.57,226.32 884.38,226.32 885.98,226.32 886.78,226.32 888.38,226.32 889.98,226.32 890.78,226.32 892.39,226.32 893.19,226.32 894.79,226.32 895.59,226.32 897.19,226.32 898.80,226.32 899.60,226.32 901.20,226.32 902.00,226.32 903.60,226.32 904.40,226.32 906.01,226.32 907.61,226.32 908.41,226.32 910.01,226.32 910.81,226.32 912.41,226.32 913.22,226.32 914.82,226.32 915.62,226.32 917.22,227.05 918.82,227.05 919.62,227.05 921.23,227.05 922.03,227.05 923.63,227.05 924.43,227.05 926.03,227.05 927.64,227.05 928.44,227.05 930.04,227.05 930.84,227.05 932.44,227.05 933.24,227.05 934.85,227.05 936.45,227.05 937.25,227.05 938.85,227.05 939.65,227.05 941.26,227.05 942.06,227.05 943.66,227.05 944.46,227.05 946.06,227.05 947.66,227.05 948.47,227.05 950.07,227.05 950.87,227.05 952.47,227.05 953.27,227.05 954.88,227.05 956.48,227.05 957.28,227.05 958.88,227.05 959.68,227.05 961.28,227.05 962.09,227.05 963.69,227.05 965.29,227.05 966.09,227.05 967.69,227.05 969.30,220.37 970.10,220.37 970.90,220.37 972.50,220.37 973.30,220.37 974.90,220.37 976.51,220.37 977.31,220.37 978.91,220.37 979.71,220.37 981.31,220.37 982.11,220.37 983.72,220.37 985.32,220.37 986.12,220.37 987.72,220.37 988.52,220.37 990.12,220.37 990.93,220.37 992.53,220.37 994.13,220.37 994.93,220.37 996.53,220.37 997.34,220.37 998.94,220.37 999.74,220.37 1001.34,220.37 1002.14,220.37 1003.74,220.37 1005.35,220.37 1006.15,220.37 1007.75,220.37 1008.55,220.37 1010.15,220.37 1010.95,220.37 1012.56,220.37 1014.16,220.37 1014.96,220.37 1016.56,220.37 1017.36,220.37 1018.97,220.37 1019.77,220.37 1021.37,220.37 1022.97,220.37 1023.77,220.37 1025.38,220.37 1026.18,220.37 1027.78,220.37 1028.58,220.37 1030.18,220.37 1031.78,220.37 1032.59,220.37 1034.19,220.37 1034.99,220.37 1036.59,220.37 1037.39,220.37 1038.99,220.37 1039.80,220.37 1041.40,220.37 1043.00,220.37 1043.80,220.37 1045.40,220.37 1046.20,220.37 1047.81,220.37 1048.61,220.37 1050.21,220.37 1051.81,220.37 1052.61,220.37 1054.22,220.37 1055.02,220.37 1056.62,220.37 1057.42,220.37 1059.02,220.37 1060.62,220.37 1061.43,220.37 1063.03,220.37 1063.83,220.37 1065.43,220.37 1066.23,220.37 1067.84,220.37 1068.64,220.37 1070.24,220.37 1071.84,220.37 1072.64,220.37 1074.24,220.37 1075.05,220.37 1076.65,220.37 1077.45,220.37 1079.05,220.37 1080.65,220.37 1081.45,220.37 1083.06,220.37 1083.86,220.37 1085.46,220.37 1086.26,220.37 1087.86,220.37 1089.47,220.37 1090.27,220.37 1091.87,220.37 1092.67,220.37 1094.27,220.37 1095.07,220.37 1096.68,220.37 1097.48,220.37 1099.08,220.37 1100.68,220.37 1101.48,220.37 1103.09,220.37 1103.89,220.37 1105.49,220.37 1106.29,220.37 1107.89,220.37 1109.49,220.37 1110.30,220.37 1111.90,220.37 1112.70,220.37 1114.30,220.37 1115.10,220.37 1116.70,220.37 1118.31,220.37 1119.11,220.37 1120.71,220.37 1121.51,220.37 1123.11,220.37 1123.91,220.37 1125.52,220.37 1126.32,220.37 1127.92,220.37 1129.52,220.37 1130.32,220.37 1131.93,220.37 1132.73,220.37 1134.33,220.37 1135.13,220.37 1136.73,220.37 1138.34,220.37 1139.14,220.37 1140.74,220.37 1141.54,220.37 1143.14,220.37 1143.94,220.37 1145.55,220.37 1147.15,220.37 1147.95,220.37 1149.55,220.37 1150.35,220.37 1151.95,220.37 1152.76,220.37 1154.36,220.37 1155.16,220.37 1156.76,220.37 1158.36,220.37 1159.16,220.37 1160.77,220.37 1161.57,220.37 1163.17,220.37 1163.97,220.37 1165.57,220.37 1167.18,220.37 1167.98,220.37 1169.58,220.37 1170.38,220.37 1171.98,220.37 1172.78,220.37 1174.39,220.37 1175.99,220.37 1176.79,220.37 1178.39,220.37 1179.19,220.37 1180.80,220.37 1181.60,220.37 1183.20,220.37 1184.00,220.37" />
  <line x1="56.00" y1="280" x2="56.00" y2="286" stroke="#777777" /><text x="56.00" y="308" text-anchor="middle" font-size="12" fill="#777777">0</text><line x1="281.12" y1="280" x2="281.12" y2="286" stroke="#777777" /><text x="281.12" y="308" text-anchor="middle" font-size="12" fill="#777777">281</text><line x1="507.04" y1="280" x2="507.04" y2="286" stroke="#777777" /><text x="507.04" y="308" text-anchor="middle" font-size="12" fill="#777777">563</text><line x1="732.16" y1="280" x2="732.16" y2="286" stroke="#777777" /><text x="732.16" y="308" text-anchor="middle" font-size="12" fill="#777777">844</text><line x1="958.08" y1="280" x2="958.08" y2="286" stroke="#777777" /><text x="958.08" y="308" text-anchor="middle" font-size="12" fill="#777777">1126</text><line x1="1184.00" y1="280" x2="1184.00" y2="286" stroke="#777777" /><text x="1184.00" y="308" text-anchor="middle" font-size="12" fill="#777777">1408</text>
  <line x1="50" y1="280.00" x2="56" y2="280.00" stroke="#777777" /><text x="46" y="284.00" text-anchor="end" font-size="12" fill="#777777">0.00</text><line x1="50" y1="214.50" x2="56" y2="214.50" stroke="#777777" /><text x="46" y="218.50" text-anchor="end" font-size="12" fill="#777777">0.25</text><line x1="50" y1="149.00" x2="56" y2="149.00" stroke="#777777" /><text x="46" y="153.00" text-anchor="end" font-size="12" fill="#777777">0.50</text><line x1="50" y1="83.50" x2="56" y2="83.50" stroke="#777777" /><text x="46" y="87.50" text-anchor="end" font-size="12" fill="#777777">0.75</text><line x1="50" y1="18.00" x2="56" y2="18.00" stroke="#777777" /><text x="46" y="22.00" text-anchor="end" font-size="12" fill="#777777">1.00</text>
</svg>