<svg xmlns="http://www.w3.org/2000/svg" width="1200" height="320" viewBox="0 0 1200 320">
  <rect width="1200" height="320" fill="#fafafa" />
  <text x="56" y="14" font-size="14" fill="#111827">Anomaly Score Timeline</text>
  <rect x="264.74" y="18" width="919.26" height="262" fill="#fecaca" fill-opacity="0.35" />
  <line x1="56" y1="18" x2="56" y2="280" stroke="#777777" />
  <line x1="56" y1="280" x2="1184" y2="280" stroke="#777777" />
  <line x1="56" y1="195.92" x2="1184" y2="195.92" stroke="#b45309" stroke-dasharray="5 5" />
  <line x1="56" y1="188.61" x2="1184" y2="188.61" stroke="#b91c1c" stroke-dasharray="4 4" />
  <text x="1180" y="189.92" text-anchor="end" font-size="12" fill="#b45309">alert 0.32</text>
  <text x="1180" y="182.61" text-anchor="end" font-size="12" fill="#b91c1c">high 0.35</text>
  <polyline fill="none" stroke="#166534" stroke-width="2" points="56.00,208.50 57.00,208.50 58.01,208.50 59.01,208.50 61.02,208.50 62.02,208.50 63.02,208.50 64.03,208.50 66.04,208.50 67.04,208.50 68.04,208.50 69.05,208.50 71.05,208.50 72.06,208.50 73.06,208.50 74.06,208.50 76.07,208.50 77.07,208.50 78.08,208.50 79.08,208.50 81.09,208.50 82.09,208.50 83.10,208.50 84.10,208.50 86.11,208.50 87.11,208.50 88.11,208.50 89.12,208.50 91.12,208.50 92.13,208.50 93.13,208.50 94.14,208.50 96.14,208.50 97.15,208.50 98.15,208.50 99.15,208.50 101.16,208.50 102.16,208.50 103.17,208.50 104.17,208.50 106.18,208.50 107.18,208.50 108.19,208.50 109.19,208.50 111.20,208.50 112.20,208.50 113.20,208.50 114.21,208.50 116.21,208.50 117.22,208.50 118.22,208.50 119.22,208.50 121.23,208.50 122.23,208.50 123.24,208.50 124.24,208.50 126.25,208.50 127.25,208.50 128.26,208.50 129.26,208.50 131.27,208.50 132.27,208.50 133.27,208.50 134.28,208.50 136.28,208.50 137.29,208.50 138.29,208.50 139.30,208.50 141.30,208.50 142.31,208.50 143.31,208.50 144.31,208.50 146.32,208.50 147.32,208.50 148.33,208.50 149.33,208.50 151.34,208.50 152.34,208.50 153.35,208.50 154.35,208.50 156.36,208.50 157.36,208.50 158.36,208.50 159.37,208.50 161.37,208.50 162.38,208.50 163.38,208.50 164.38,208.50 166.39,208.50 167.40,208.50 168.40,208.50 169.40,208.50 171.41,208.50 172.41,208.50 173.42,208.50 174.42,208.50 176.43,208.50 177.43,208.50 178.43,208.50 179.44,208.50 181.44,208.50 182.45,208.50 183.45,208.50 184.46,208.50 186.46,208.50 187.47,208.50 188.47,208.50 189.47,208.50 191.48,208.50 192.48,208.50 193.49,208.50 194.49,208.50 196.50,208.50 197.50,208.50 198.51,208.50 199.51,208.50 201.52,208.50 202.52,208.50 203.52,208.50 204.53,208.50 206.53,208.50 207.54,208.50 208.54,208.50 209.54,208.50 211.55,208.50 212.56,208.50 213.56,208.50 214.56,208.50 216.57,208.50 217.57,208.50 218.58,208.50 219.58,208.50 221.59,208.50 222.59,208.50 223.59,208.50 224.60,208.50 226.60,208.50 227.61,208.50 228.61,208.50 229.62,208.50 231.62,208.50 232.63,208.50 233.63,206.74 234.63,206.74 236.64,206.74 237.64,206.74 238.65,206.74 239.65,206.74 241.66,206.74 242.66,206.74 243.67,206.74 244.67,206.74 246.68,206.74 247.68,206.74 248.68,206.74 249.69,206.74 251.69,206.74 252.70,206.74 253.70,206.74 254.70,206.74 256.71,206.74 257.72,206.74 258.72,206.74 260.73,190.95 261.73,190.95 262.73,190.95 263.74,190.63 264.74,190.63 266.75,190.63 267.75,190.63 268.75,190.63 269.76,190.63 271.77,190.63 272.77,190.63 273.77,190.63 274.78,190.63 276.78,190.63 277.79,190.63 278.79,190.63 279.79,190.63 281.80,190.63 282.80,190.63 283.81,190.63 284.81,190.63 286.82,190.63 287.82,190.63 288.83,190.63 289.83,190.63 291.84,190.63 292.84,190.63 293.84,190.63 294.85,190.63 296.85,190.63 297.86,190.63 298.86,190.63 299.86,190.63 301.87,190.63 302.88,190.63 303.88,190.63 304.88,190.63 306.89,190.63 307.89,190.63 308.90,190.63 309.90,190.63 311.91,190.63 312.91,190.63 313.91,190.63 314.92,190.63 316.93,190.63 317.93,190.63 318.93,190.63 319.94,190.63 321.94,190.63 322.95,190.63 323.95,190.63 324.95,190.63 326.96,190.63 327.96,190.63 328.97,190.63 329.97,190.63 331.98,190.63 332.98,190.63 333.99,190.63 334.99,190.63 337.00,190.63 338.00,190.63 339.00,190.63 340.01,190.63 342.01,190.63 343.02,190.63 344.02,190.63 345.02,190.63 347.03,190.63 348.04,190.63 349.04,190.63 350.04,190.63 352.05,190.63 353.05,190.63 354.06,190.63 355.06,190.63 357.07,190.63 358.07,190.63 359.07,190.63 360.08,190.63 362.09,190.63 363.09,190.63 364.09,190.63 365.10,190.63 367.10,190.63 368.11,190.63 369.11,190.63 370.11,190.63 372.12,190.63 373.12,190.63 374.13,190.63 375.13,190.63 377.14,190.63 378.14,190.63 379.15,190.63 380.15,190.63 382.16,190.63 383.16,190.63 384.16,190.63 385.17,190.63 387.17,190.63 388.18,190.63 389.18,190.63 390.19,190.63 392.19,190.63 393.20,190.63 394.20,190.63 395.20,190.63 397.21,190.63 398.21,190.63 399.22,190.63 400.22,190.63 402.23,190.63 403.23,190.63 404.23,190.63 405.24,190.63 407.25,190.63 408.25,190.63 409.25,190.63 410.26,190.63 412.26,190.63 413.27,190.63 414.27,190.63 415.27,190.63 417.28,190.63 418.28,190.63 419.29,190.63 420.29,190.63 422.30,190.63 423.30,190.63 424.31,190.63 425.31,190.63 427.32,190.63 428.32,190.63 429.32,190.63 430.33,190.63 432.33,190.63 433.34,190.63 434.34,190.63 435.35,190.63 437.35,190.63 438.36,190.63 439.36,190.63 440.36,190.63 442.37,190.63 443.37,190.63 444.38,190.63 445.38,190.63 447.39,190.63 448.39,190.63 449.40,190.63 450.40,190.63 452.41,190.63 453.41,190.63 454.41,190.63 455.42,190.63 457.42,190.63 458.43,190.63 459.43,190.63 460.43,190.63 462.44,190.63 463.44,190.63 464.45,190.63 465.45,190.63 467.46,190.63 468.46,190.63 469.47,190.63 470.47,190.63 472.48,190.63 473.48,190.63 474.48,190.63 475.49,190.63 477.49,190.63 478.50,190.63 479.50,190.63 480.51,190.63 482.51,190.63 483.52,190.63 484.52,190.63 485.52,190.63 487.53,190.63 488.53,190.63 489.54,190.63 490.54,190.63 492.55,190.63 493.55,190.63 494.56,190.63 495.56,190.63 497.57,190.63 498.57,190.63 499.57,190.63 500.58,190.63 502.58,190.63 503.59,190.63 504.59,190.63 505.59,190.63 507.60,190.63 508.60,190.63 509.61,190.63 510.61,190.63 512.62,190.63 513.62,190.63 514.63,190.63 515.63,190.63 517.64,190.63 518.64,190.63 519.64,190.63 520.65,190.63 522.65,190.63 523.66,190.63 524.66,190.63 525.67,190.63 527.67,190.63 528.68,190.63 529.68,190.63 530.68,190.63 532.69,190.63 533.69,190.63 534.70,190.63 535.70,190.63 537.71,190.63 538.71,190.63 539.72,190.63 540.72,190.63 542.73,190.63 543.73,190.63 544.73,190.63 545.74,190.63 547.74,190.63 548.75,190.63 549.75,194.54 550.75,194.54 552.76,194.54 553.77,194.54 554.77,194.54 555.77,194.46 557.78,194.46 558.78,194.46 559.79,194.46 560.79,194.46 562.80,194.46 563.80,194.46 564.80,194.46 565.81,194.46 567.81,194.46 568.82,194.46 569.82,194.46 570.83,194.46 572.83,194.46 573.84,194.46 574.84,194.46 575.84,194.46 577.85,194.46 578.85,194.46 579.86,194.46 580.86,194.46 582.87,194.46 583.87,194.46 584.88,194.46 585.88,194.46 587.89,194.46 588.89,194.46 589.89,194.46 590.90,194.46 592.90,194.46 593.91,194.46 594.91,194.46 595.91,194.46 597.92,194.46 598.93,194.46 599.93,194.46 600.93,194.46 602.94,194.46 603.94,194.46 604.95,194.46 605.95,194.46 607.96,194.46 608.96,194.46 609.96,194.46 610.97,194.46 612.98,194.46 613.98,194.46 614.98,194.46 615.99,194.46 617.99,194.46 619.00,194.46 620.00,194.46 621.00,194.46 623.01,194.46 624.01,194.46 625.02,194.46 626.02,194.46 628.03,194.46 629.03,194.46 630.04,194.46 631.04,194.46 633.05,194.46 634.05,194.46 635.05,194.46 636.06,194.46 638.06,194.46 639.07,194.46 640.07,194.46 641.07,194.46 643.08,194.46 644.09,194.46 645.09,194.46 646.09,194.46 648.10,194.46 649.10,194.46 650.11,194.46 651.11,194.46 653.12,194.46 654.12,194.46 655.12,194.46 656.13,194.46 658.14,194.46 659.14,194.46 660.14,194.46 661.15,194.46 663.15,194.46 664.16,194.46 665.16,194.46 666.16,194.46 668.17,194.46 669.17,194.46 670.18,194.46 671.18,194.46 673.19,194.46 674.19,194.46 675.20,194.46 676.20,194.46 678.21,194.46 679.21,194.46 680.21,194.46 681.22,194.46 683.22,194.46 684.23,194.46 685.23,194.46 686.23,194.46 688.24,194.46 689.25,194.46 690.25,194.46 691.25,194.46 693.26,194.46 694.26,194.46 695.27,194.46 696.27,194.46 698.28,194.46 699.28,194.46 700.28,194.46 701.29,194.46 703.30,194.46 704.30,194.46 705.30,194.46 706.31,194.46 708.31,194.46 709.32,194.46 710.32,194.46 711.32,194.46 713.33,194.46 714.33,194.46 715.34,194.46 716.34,194.46 718.35,194.46 719.35,194.46 720.36,194.46 721.36,194.46 723.37,194.46 724.37,194.46 725.37,194.46 726.38,194.46 728.38,194.46 729.39,194.46 730.39,194.46 731.40,194.46 733.40,194.46 734.41,194.46 735.41,194.46 736.41,194.46 738.42,194.46 739.42,194.46 740.43,194.46 741.43,194.46 743.44,194.46 744.44,194.46 745.44,194.46 746.45,194.46 748.46,194.46 749.46,194.46 750.46,194.46 751.47,194.46 753.47,194.46 754.48,194.46 755.48,194.46 756.48,194.46 758.49,194.46 759.49,194.46 760.50,194.46 761.50,194.46 763.51,194.46 764.51,194.46 765.52,194.46 766.52,194.46 768.53,194.46 769.53,194.46 770.53,194.46 771.54,194.46 773.54,188.61 774.55,188.61 775.55,188.61 776.56,188.61 778.56,188.61 779.57,188.61 780.57,188.61 781.57,188.61 783.58,188.61 784.58,188.61 785.59,188.61 786.59,188.61 788.60,188.61 789.60,188.61 790.60,188.61 791.61,188.61 793.62,188.61 794.62,188.61 795.62,188.61 796.63,188.61 798.63,188.61 799.64,188.61 800.64,188.61 801.64,188.61 803.65,188.61 804.65,188.61 805.66,188.61 806.66,188.61 808.67,188.61 809.67,188.61 810.68,188.61 811.68,188.61 813.69,188.61 814.69,188.61 815.69,188.61 816.70,188.61 818.70,188.61 819.71,188.61 820.71,188.61 821.72,188.61 823.72,188.61 824.73,188.61 825.73,188.61 826.73,188.61 828.74,188.61 829.74,188.61 830.75,188.61 831.75,188.61 833.76,188.61 834.76,188.61 835.77,188.61 836.77,188.61 838.78,188.61 839.78,188.61 840.78,188.61 841.79,188.61 843.79,188.61 844.80,188.61 845.80,188.61 846.80,188.61 848.81,188.61 849.81,188.61 850.82,188.61 851.82,188.61 853.83,188.61 854.83,188.61 855.84,188.61 856.84,188.61 858.85,188.61 859.85,188.61 860.85,188.61 861.86,188.61 863.86,188.61 864.87,188.61 865.87,188.61 866.88,188.61 868.88,188.61 869.89,188.61 870.89,188.61 871.89,188.61 873.90,188.61 874.90,188.61 875.91,188.61 876.91,188.61 878.92,188.61 879.92,188.61 880.93,188.61 881.93,188.61 883.94,188.61 884.94,188.61 885.94,188.61 886.95,188.61 888.95,188.61 889.96,188.61 890.96,188.61 891.96,188.61 893.97,188.61 894.98,188.61 895.98,188.61 896.98,188.61 898.99,188.61 899.99,188.61 901.00,188.61 902.00,188.61 904.01,188.61 905.01,188.61 906.01,188.61 907.02,188.61 909.02,188.61 910.03,188.61 911.03,188.61 912.04,188.61 914.04,188.61 915.05,188.61 916.05,188.61 917.05,188.61 919.06,188.61 920.06,188.61 921.07,188.61 922.07,188.61 924.08,188.61 925.08,188.61 926.09,188.61 927.09,188.61 929.10,188.61 930.10,188.61 931.10,188.61 932.11,188.61 934.11,188.61 935.12,188.61 936.12,188.61 937.12,188.61 939.13,188.61 940.14,188.61 941.14,188.61 942.14,188.61 944.15,188.61 945.15,188.61 946.16,188.61 947.16,188.61 949.17,188.61 950.17,188.61 951.17,188.61 952.18,188.61 954.19,188.61 955.19,188.61 956.19,188.61 957.20,188.61 959.20,188.61 960.21,188.61 961.21,188.61 962.21,188.61 964.22,188.61 965.22,188.61 966.23,188.61 967.23,188.61 969.24,188.61 970.24,188.61 971.25,188.61 972.25,188.61 974.26,188.61 975.26,188.61 976.26,188.61 977.27,188.61 979.27,188.61 980.28,188.61 981.28,188.61 982.28,188.61 984.29,188.61 985.30,188.61 986.30,188.61 987.30,188.61 989.31,188.61 990.31,188.61 991.32,188.61 992.32,188.61 994.33,188.61 995.33,188.61 996.33,188.61 997.34,188.61 999.35,188.61 1000.35,188.61 1001.35,188.61 1002.36,188.61 1004.36,188.61 1005.37,188.61 1006.37,188.61 1007.37,188.61 1009.38,188.61 1010.38,188.61 1011.39,188.61 1012.39,188.61 1014.40,188.61 1015.40,188.61 1016.41,188.61 1017.41,188.61 1019.42,188.61 1020.42,188.61 1021.42,188.61 1022.43,188.61 1024.43,188.61 1025.44,188.61 1026.44,188.61 1027.44,188.61 1029.45,188.61 1030.46,188.61 1031.46,188.61 1032.46,188.61 1034.47,188.61 1035.47,188.61 1036.48,188.61 1037.48,188.61 1039.49,188.61 1040.49,188.61 1041.49,188.61 1042.50,188.61 1044.51,188.61 1045.51,188.61 1046.51,188.61 1047.52,188.61 1049.52,188.61 1050.53,188.61 1051.53,188.61 1052.53,188.61 1054.54,188.61 1055.54,188.61 1056.55,190.13 1057.55,190.13 1059.56,190.13 1060.56,190.13 1061.57,190.13 1062.57,190.13 1064.58,190.13 1065.58,190.13 1066.58,190.13 1067.59,190.13 1069.59,190.13 1070.60,190.13 1071.60,190.13 1072.60,190.13 1074.61,190.13 1075.62,190.13 1076.62,190.13 1077.62,190.13 1079.63,190.13 1080.63,190.13 1081.64,190.13 1082.64,190.13 1084.65,190.13 1085.65,190.13 1086.65,190.13 1087.66,190.13 1089.67,190.13 1090.67,190.13 1091.67,190.13 1092.68,190.13 1094.68,190.13 1095.69,190.13 1096.69,190.13 1097.69,190.13 1099.70,190.13 1100.70,190.13 1101.71,190.13 1102.71,190.13 1104.72,191.57 1105.72,191.57 1106.73,191.57 1107.73,191.57 1109.74,191.57 1110.74,191.57 1111.74,191.57 1112.75,191.57 1114.75,191.57 1115.76,191.57 1116.76,191.57 1117.77,191.57 1119.77,191.57 1120.78,191.57 1121.78,191.57 1122.78,191.57 1124.79,191.57 1125.79,191.57 1126.80,191.57 1127.80,191.57 1129.81,191.57 1130.81,191.57 1131.81,191.57 1132.82,191.57 1134.83,191.57 1135.83,191.57 1136.83,191.57 1137.84,191.57 1139.84,191.57 1140.85,191.57 1141.85,191.57 1142.85,191.57 1144.86,191.57 1145.86,191.57 1146.87,191.57 1147.87,191.57 1149.88,191.57 1150.88,191.57 1151.89,191.57 1152.89,191.57 1154.90,191.57 1155.90,191.57 1156.90,191.57 1157.91,191.57 1159.91,191.57 1160.92,191.57 1161.92,191.57 1162.93,191.57 1164.93,191.57 1165.94,191.57 1166.94,191.57 1167.94,191.57 1169.95,191.57 1170.95,191.57 1171.96,191.57 1172.96,191.57 1174.97,191.57 1175.97,191.57 1176.98,191.57 1177.98,191.57 1179.99,191.57 1180.99,191.57 1181.99,191.57 1183.00,191.57 1184.00,191.57" />
  <line x1="56.00" y1="280" x2="56.00" y2="286" stroke="#777777" /><text x="56.00" y="308" text-anchor="middle" font-size="12" fill="#777777">0</text><line x1="280.80" y1="280" x2="280.80" y2="286" stroke="#777777" /><text x="280.80" y="308" text-anchor="middle" font-size="12" fill="#777777">224</text><line x1="506.60" y1="280" x2="506.60" y2="286" stroke="#777777" /><text x="506.60" y="308" text-anchor="middle" font-size="12" fill="#777777">449</text><line x1="732.40" y1="280" x2="732.40" y2="286" stroke="#777777" /><text x="732.40" y="308" text-anchor="middle" font-size="12" fill="#777777">674</text><line x1="958.20" y1="280" x2="958.20" y2="286" stroke="#777777" /><text x="958.20" y="308" text-anchor="middle" font-size="12" fill="#777777">899</text><line x1="1184.00" y1="280" x2="1184.00" y2="286" stroke="#777777" /><text x="1184.00" y="308" text-anchor="middle" font-size="12" fill="#777777">1124</text>
  <line x1="50" y1="280.00" x2="56" y2="280.00" stroke="#777777" /><text x="46" y="284.00" text-anchor="end" font-size="12" fill="#777777">0.00</text><line x1="50" y1="214.50" x2="56" y2="214.50" stroke="#777777" /><text x="46" y="218.50" text-anchor="end" font-size="12" fill="#777777">0.25</text><line x1="50" y1="149.00" x2="56" y2="149.00" stroke="#777777" /><text x="46" y="153.00" text-anchor="end" font-size="12" fill="#777777">0.50</text><line x1="50" y1="83.50" x2="56" y2="83.50" stroke="#777777" /><text x="46" y="87.50" text-anchor="end" font-size="12" fill="#777777">0.75</text><line x1="50" y1="18.00" x2="56" y2="18.00" stroke="#777777" /><text x="46" y="22.00" text-anchor="end" font-size="12" fill="#777777">1.00</text>
</svg>