<svg xmlns="http://www.w3.org/2000/svg" width="1200" height="320" viewBox="0 0 1200 320">
  <rect width="1200" height="320" fill="#fafafa" />
  <text x="56" y="14" font-size="14" fill="#111827">Anomaly Score Timeline</text>
  <rect x="56.00" y="18" width="171.62" height="262" fill="#fecaca" fill-opacity="0.35" />
  <line x1="56" y1="18" x2="56" y2="280" stroke="#777777" />
  <line x1="56" y1="280" x2="1184" y2="280" stroke="#777777" />
  <line x1="56" y1="166.63" x2="1184" y2="166.63" stroke="#b45309" stroke-dasharray="5 5" />
  <line x1="56" y1="142.76" x2="1184" y2="142.76" stroke="#b91c1c" stroke-dasharray="4 4" />
  <text x="1180" y="160.63" text-anchor="end" font-size="12" fill="#b45309">alert 0.43</text>
  <text x="1180" y="136.76" text-anchor="end" font-size="12" fill="#b91c1c">high 0.52</text>
  <polyline fill="none" stroke="#166534" stroke-width="2" points="56.00,142.76 57.38,142.76 58.77,142.76 60.15,142.76 61.54,142.76 62.92,142.76 64.30,142.76 65.69,142.76 67.07,142.76 68.46,142.76 69.84,142.76 71.22,142.76 72.61,142.76 73.99,142.76 75.38,142.76 76.76,142.76 78.14,142.76 79.53,142.76 80.91,142.76 82.30,142.76 83.68,142.76 85.07,142.76 86.45,142.76 87.83,142.76 89.22,142.76 90.60,142.76 91.99,142.76 93.37,138.02 94.75,138.02 96.14,138.02 97.52,138.02 98.91,138.02 100.29,138.02 101.67,138.02 103.06,138.02 104.44,138.02 105.83,138.02 107.21,138.02 108.59,138.02 109.98,138.02 111.36,138.02 112.75,138.02 114.13,144.78 115.51,144.78 116.90,144.78 118.28,144.78 119.67,144.78 121.05,144.78 122.43,150.99 123.82,150.99 125.20,150.99 126.59,150.99 127.97,150.99 129.35,150.99 130.74,150.99 132.12,150.99 133.51,150.99 134.89,150.99 136.27,150.99 137.66,150.99 139.04,150.99 140.43,150.99 141.81,150.99 143.20,150.99 144.58,150.99 145.96,150.99 147.35,150.99 148.73,150.99 150.12,150.99 151.50,150.99 152.88,150.99 154.27,150.99 155.65,150.99 157.04,150.99 158.42,150.99 159.80,150.99 161.19,150.99 162.57,150.99 163.96,150.99 165.34,150.99 166.72,150.99 168.11,150.99 169.49,150.99 170.88,150.99 172.26,154.58 173.64,154.58 175.03,154.58 176.41,154.58 177.80,154.58 179.18,154.58 180.56,156.65 181.95,156.65 183.33,156.65 184.72,156.65 186.10,156.65 187.48,156.65 188.87,156.65 190.25,156.65 191.64,156.65 193.02,160.82 194.40,160.82 195.79,160.82 197.17,166.63 198.56,166.63 199.94,166.63 201.33,166.63 202.71,166.63 204.09,166.63 205.48,166.63 206.86,166.63 208.25,166.63 209.63,166.63 211.01,166.63 212.40,166.63 213.78,166.63 215.17,166.63 216.55,166.63 217.93,166.63 219.32,166.63 220.70,166.63 222.09,166.63 223.47,166.63 224.85,166.63 226.24,166.63 227.62,166.63 229.01,166.63 230.39,166.63 231.77,166.63 233.16,166.63 234.54,166.63 235.93,166.63 237.31,166.63 238.69,166.63 240.08,166.63 241.46,166.63 242.85,172.82 244.23,172.82 245.61,172.82 247.00,172.82 248.38,172.82 249.77,172.82 251.15,172.82 252.53,172.82 253.92,172.82 255.30,172.82 256.69,172.82 258.07,172.82 259.46,172.82 260.84,172.82 262.22,172.82 263.61,172.82 264.99,172.82 266.38,172.82 267.76,172.82 269.14,172.82 270.53,172.82 271.91,172.82 273.30,172.82 274.68,172.82 276.06,172.82 277.45,172.82 278.83,172.82 280.22,172.82 281.60,172.82 282.98,172.82 284.37,172.82 285.75,172.82 287.14,172.82 288.52,172.82 289.90,172.82 291.29,172.82 292.67,172.82 294.06,172.82 295.44,172.82 296.82,172.82 298.21,172.82 299.59,172.82 300.98,172.82 302.36,172.82 303.74,172.82 305.13,172.82 306.51,172.82 307.90,172.82 309.28,172.82 310.67,172.82 312.05,172.82 313.43,172.82 314.82,172.82 316.20,172.82 317.59,172.82 318.97,172.82 320.35,172.82 321.74,172.82 323.12,172.82 324.51,172.82 325.89,172.82 327.27,172.82 328.66,172.82 330.04,172.82 331.43,172.82 332.81,172.82 334.19,172.82 335.58,172.82 336.96,172.82 338.35,172.82 339.73,172.82 341.11,172.82 342.50,174.52 343.88,174.52 345.27,174.52 346.65,174.52 348.03,174.52 349.42,174.52 350.80,174.52 352.19,174.52 353.57,174.52 354.95,174.52 356.34,174.52 357.72,174.52 359.11,174.52 360.49,174.52 361.87,174.52 363.26,174.52 364.64,174.52 366.03,174.52 367.41,174.52 368.80,174.52 370.18,174.52 371.56,174.68 372.95,174.68 374.33,174.68 375.72,174.68 377.10,174.68 378.48,174.68 379.87,174.68 381.25,174.68 382.64,174.68 384.02,174.65 385.40,174.65 386.79,174.65 388.17,174.65 389.56,174.65 390.94,174.65 392.32,174.65 393.71,174.65 395.09,174.65 396.48,174.73 397.86,174.73 399.24,174.73 400.63,174.73 402.01,174.73 403.40,174.73 404.78,176.12 406.16,176.12 407.55,176.12 408.93,176.12 410.32,176.12 411.70,176.12 413.08,176.12 414.47,176.12 415.85,176.12 417.24,176.12 418.62,176.12 420.00,176.12 421.39,176.12 422.77,176.12 424.16,176.12 425.54,176.12 426.93,176.12 428.31,176.12 429.69,176.12 431.08,176.12 432.46,176.12 433.85,176.12 435.23,176.12 436.61,176.12 438.00,176.12 439.38,176.12 440.77,176.12 442.15,176.12 443.53,176.12 444.92,176.12 446.30,176.12 447.69,176.12 449.07,176.12 450.45,176.12 451.84,176.12 453.22,176.12 454.61,176.12 455.99,176.12 457.37,176.12 458.76,176.12 460.14,176.12 461.53,176.12 462.91,176.12 464.29,176.12 465.68,176.12 467.06,176.12 468.45,176.12 469.83,176.12 471.21,217.93 472.60,217.93 473.98,217.93 475.37,217.93 476.75,217.93 478.13,217.93 479.52,217.93 480.90,217.93 482.29,217.93 483.67,217.93 485.06,217.93 486.44,217.93 487.82,217.93 489.21,217.93 490.59,217.93 491.98,217.93 493.36,217.93 494.74,217.93 496.13,217.93 497.51,217.93 498.90,217.93 500.28,217.93 501.66,217.93 503.05,217.93 504.43,215.68 505.82,215.68 507.20,215.68 508.58,211.75 509.97,211.75 511.35,211.75 512.74,211.75 514.12,211.75 515.50,211.75 516.89,211.75 518.27,211.75 519.66,211.75 521.04,211.75 522.42,211.75 523.81,211.75 525.19,211.75 526.58,211.75 527.96,211.75 529.34,211.75 530.73,211.75 532.11,211.75 533.50,211.75 534.88,211.75 536.27,211.75 537.65,211.75 539.03,211.75 540.42,211.75 541.80,211.75 543.19,211.75 544.57,211.75 545.95,207.40 547.34,207.40 548.72,207.40 550.11,207.40 551.49,207.40 552.87,207.40 554.26,207.40 555.64,207.40 557.03,207.40 558.41,207.40 559.79,207.40 561.18,207.40 562.56,207.40 563.95,207.40 565.33,207.40 566.71,207.40 568.10,207.40 569.48,207.40 570.87,207.40 572.25,207.40 573.63,207.40 575.02,207.40 576.40,207.40 577.79,207.40 579.17,207.40 580.55,207.40 581.94,207.40 583.32,207.40 584.71,207.40 586.09,207.40 587.47,207.40 588.86,207.40 590.24,207.40 591.63,207.40 593.01,207.40 594.40,207.40 595.78,207.40 597.16,207.40 598.55,207.40 599.93,207.40 601.32,207.40 602.70,207.40 604.08,207.40 605.47,207.40 606.85,207.40 608.24,207.40 609.62,207.40 611.00,207.40 612.39,207.40 613.77,207.40 615.16,207.40 616.54,207.40 617.92,207.40 619.31,207.40 620.69,207.40 622.08,207.40 623.46,207.40 624.84,207.40 626.23,207.40 627.61,207.40 629.00,207.40 630.38,207.40 631.76,207.40 633.15,207.40 634.53,206.77 635.92,206.77 637.30,206.77 638.68,206.77 640.07,206.77 641.45,206.77 642.84,206.77 644.22,206.77 645.60,206.77 646.99,206.77 648.37,206.77 649.76,206.77 651.14,206.77 652.53,206.77 653.91,206.77 655.29,206.77 656.68,206.77 658.06,206.77 659.45,206.77 660.83,206.77 662.21,206.77 663.60,206.77 664.98,206.77 666.37,206.77 667.75,206.77 669.13,206.77 670.52,206.77 671.90,206.77 673.29,206.77 674.67,206.77 676.05,206.77 677.44,206.77 678.82,206.77 680.21,206.77 681.59,206.77 682.97,206.77 684.36,206.77 685.74,206.77 687.13,206.77 688.51,206.77 689.89,206.77 691.28,206.77 692.66,206.77 694.05,206.77 695.43,206.77 696.81,206.77 698.20,206.77 699.58,206.77 700.97,206.77 702.35,206.77 703.73,206.77 705.12,206.77 706.50,206.77 707.89,206.77 709.27,204.33 710.66,204.33 712.04,204.33 713.42,204.33 714.81,204.33 716.19,204.33 717.58,204.33 718.96,204.33 720.34,204.33 721.73,204.33 723.11,204.33 724.50,204.33 725.88,204.33 727.26,204.33 728.65,204.33 730.03,204.33 731.42,204.33 732.80,204.33 734.18,204.33 735.57,204.33 736.95,204.33 738.34,204.33 739.72,204.33 741.10,204.33 742.49,204.33 743.87,204.33 745.26,204.33 746.64,204.33 748.02,204.33 749.41,204.33 750.79,204.33 752.18,204.33 753.56,204.33 754.94,204.33 756.33,204.33 757.71,204.33 759.10,204.33 760.48,204.33 761.87,204.33 763.25,204.33 764.63,204.33 766.02,204.33 767.40,204.33 768.79,204.33 770.17,204.33 771.55,204.33 772.94,204.33 774.32,204.33 775.71,204.33 777.09,204.33 778.47,204.33 779.86,204.33 781.24,204.33 782.63,204.33 784.01,204.33 785.39,204.33 786.78,204.33 788.16,204.33 789.55,204.33 790.93,204.33 792.31,204.33 793.70,204.33 795.08,204.33 796.47,204.33 797.85,204.33 799.23,204.33 800.62,204.33 802.00,204.33 803.39,204.33 804.77,204.33 806.15,204.33 807.54,204.33 808.92,204.33 810.31,204.33 811.69,204.33 813.07,204.33 814.46,204.33 815.84,204.33 817.23,204.33 818.61,204.33 820.00,204.33 821.38,204.33 822.76,204.33 824.15,204.33 825.53,204.33 826.92,204.33 828.30,204.33 829.68,204.33 831.07,204.33 832.45,204.33 833.84,204.33 835.22,204.33 836.60,204.33 837.99,204.33 839.37,204.33 840.76,204.33 842.14,204.33 843.52,204.33 844.91,204.33 846.29,204.33 847.68,204.33 849.06,204.33 850.44,204.33 851.83,204.33 853.21,204.33 854.60,204.33 855.98,204.33 857.36,204.33 858.75,204.33 860.13,204.33 861.52,204.33 862.90,204.31 864.28,204.31 865.67,204.31 867.05,197.73 868.44,197.73 869.82,197.73 871.20,197.73 872.59,197.73 873.97,197.73 875.36,197.73 876.74,197.73 878.13,197.73 879.51,197.73 880.89,197.73 882.28,197.73 883.66,197.73 885.05,197.73 886.43,197.73 887.81,197.73 889.20,197.73 890.58,197.73 891.97,197.73 893.35,197.73 894.73,197.73 896.12,197.73 897.50,197.73 898.89,197.73 900.27,197.73 901.65,197.73 903.04,197.73 904.42,197.73 905.81,197.73 907.19,197.73 908.57,197.73 909.96,197.73 911.34,197.73 912.73,197.73 914.11,197.73 915.49,197.73 916.88,192.54 918.26,192.54 919.65,192.54 921.03,192.54 922.41,192.54 923.80,192.54 925.18,192.54 926.57,192.54 927.95,192.54 929.33,192.54 930.72,192.54 932.10,192.54 933.49,192.54 934.87,192.54 936.26,192.54 937.64,192.54 939.02,192.54 940.41,192.54 941.79,192.54 943.18,192.54 944.56,192.54 945.94,192.54 947.33,192.54 948.71,192.54 950.10,192.54 951.48,192.54 952.86,192.54 954.25,192.54 955.63,192.54 957.02,192.54 958.40,192.54 959.78,192.54 961.17,192.54 962.55,192.96 963.94,192.96 965.32,192.96 966.70,192.96 968.09,192.96 969.47,192.96 970.86,192.96 972.24,192.96 973.62,192.96 975.01,192.96 976.39,192.96 977.78,192.96 979.16,192.96 980.54,192.96 981.93,192.96 983.31,192.96 984.70,192.96 986.08,192.96 987.47,192.96 988.85,192.96 990.23,192.96 991.62,192.96 993.00,192.96 994.39,192.96 995.77,192.96 997.15,192.96 998.54,192.96 999.92,192.96 1001.31,192.96 1002.69,192.96 1004.07,192.96 1005.46,192.96 1006.84,192.96 1008.23,192.96 1009.61,192.96 1010.99,192.96 1012.38,192.96 1013.76,192.96 1015.15,192.96 1016.53,192.96 1017.91,192.96 1019.30,192.96 1020.68,192.96 1022.07,192.96 1023.45,192.96 1024.83,192.96 1026.22,192.96 1027.60,192.96 1028.99,192.96 1030.37,192.96 1031.75,192.96 1033.14,192.96 1034.52,192.96 1035.91,192.96 1037.29,192.96 1038.67,192.96 1040.06,192.96 1041.44,192.96 1042.83,192.96 1044.21,192.96 1045.60,192.96 1046.98,192.96 1048.36,192.96 1049.75,192.96 1051.13,192.96 1052.52,192.96 1053.90,192.96 1055.28,192.96 1056.67,192.96 1058.05,192.96 1059.44,192.96 1060.82,192.96 1062.20,195.35 1063.59,195.35 1064.97,195.35 1066.36,195.35 1067.74,195.35 1069.12,195.35 1070.51,195.35 1071.89,195.35 1073.28,195.35 1074.66,195.35 1076.04,195.35 1077.43,195.35 1078.81,195.35 1080.20,195.35 1081.58,195.35 1082.96,195.35 1084.35,195.35 1085.73,195.35 1087.12,195.35 1088.50,195.35 1089.88,195.35 1091.27,195.35 1092.65,195.35 1094.04,195.35 1095.42,193.15 1096.80,193.15 1098.19,193.15 1099.57,193.15 1100.96,193.15 1102.34,193.15 1103.73,193.15 1105.11,193.15 1106.49,193.15 1107.88,193.15 1109.26,193.15 1110.65,193.15 1112.03,193.15 1113.41,193.15 1114.80,193.15 1116.18,193.15 1117.57,193.15 1118.95,193.15 1120.33,193.15 1121.72,193.15 1123.10,193.15 1124.49,193.15 1125.87,193.15 1127.25,193.15 1128.64,193.15 1130.02,193.15 1131.41,193.15 1132.79,191.26 1134.17,191.26 1135.56,191.26 1136.94,193.83 1138.33,193.83 1139.71,193.83 1141.09,193.83 1142.48,193.83 1143.86,193.83 1145.25,193.83 1146.63,193.83 1148.01,193.83 1149.40,193.83 1150.78,193.83 1152.17,193.83 1153.55,193.83 1154.93,193.83 1156.32,193.83 1157.70,193.83 1159.09,193.83 1160.47,193.83 1161.86,193.83 1163.24,193.83 1164.62,193.83 1166.01,193.83 1167.39,193.83 1168.78,193.83 1170.16,193.83 1171.54,193.83 1172.93,193.83 1174.31,207.16 1175.70,207.16 1177.08,207.16 1178.46,207.16 1179.85,207.16 1181.23,207.16 1182.62,207.16 1184.00,207.16" />
  <line x1="56.00" y1="280" x2="56.00" y2="286" stroke="#777777" /><text x="56.00" y="308" text-anchor="middle" font-size="12" fill="#777777">0</text><line x1="281.60" y1="280" x2="281.60" y2="286" stroke="#777777" /><text x="281.60" y="308" text-anchor="middle" font-size="12" fill="#777777">163</text><line x1="507.20" y1="280" x2="507.20" y2="286" stroke="#777777" /><text x="507.20" y="308" text-anchor="middle" font-size="12" fill="#777777">326</text><line x1="732.80" y1="280" x2="732.80" y2="286" stroke="#777777" /><text x="732.80" y="308" text-anchor="middle" font-size="12" fill="#777777">489</text><line x1="958.40" y1="280" x2="958.40" y2="286" stroke="#777777" /><text x="958.40" y="308" text-anchor="middle" font-size="12" fill="#777777">652</text><line x1="1184.00" y1="280" x2="1184.00" y2="286" stroke="#777777" /><text x="1184.00" y="308" text-anchor="middle" font-size="12" fill="#777777">815</text>
  <line x1="50" y1="280.00" x2="56" y2="280.00" stroke="#777777" /><text x="46" y="284.00" text-anchor="end" font-size="12" fill="#777777">0.00</text><line x1="50" y1="214.50" x2="56" y2="214.50" stroke="#777777" /><text x="46" y="218.50" text-anchor="end" font-size="12" fill="#777777">0.25</text><line x1="50" y1="149.00" x2="56" y2="149.00" stroke="#777777" /><text x="46" y="153.00" text-anchor="end" font-size="12" fill="#777777">0.50</text><line x1="50" y1="83.50" x2="56" y2="83.50" stroke="#777777" /><text x="46" y="87.50" text-anchor="end" font-size="12" fill="#777777">0.75</text><line x1="50" y1="18.00" x2="56" y2="18.00" stroke="#777777" /><text x="46" y="22.00" text-anchor="end" font-size="12" fill="#777777">1.00</text>
</svg>