<svg xmlns="http://www.w3.org/2000/svg" width="1200" height="320" viewBox="0 0 1200 320">
  <rect width="1200" height="320" fill="#fafafa" />
  <text x="56" y="14" font-size="14" fill="#111827">Anomaly score timeline</text>
  
  <line x1="56" y1="18" x2="56" y2="280" stroke="#777777" />
  <line x1="56" y1="280" x2="1184" y2="280" stroke="#777777" />
  <line x1="56" y1="18.00" x2="1184" y2="18.00" stroke="#b45309" stroke-dasharray="5 5" />
  <line x1="56" y1="18.00" x2="1184" y2="18.00" stroke="#b91c1c" stroke-dasharray="4 4" />
  <text x="1180" y="12.00" text-anchor="end" font-size="12" fill="#b45309">alert 1.00</text>
  <text x="1180" y="12.00" text-anchor="end" font-size="12" fill="#b91c1c">high 1.00</text>
  <polyline fill="none" stroke="#166534" stroke-width="2" points="56.00,280.00 57.53,280.00 59.07,280.00 60.60,280.00 62.13,280.00 63.66,280.00 65.20,280.00 66.73,280.00 68.26,280.00 69.79,280.00 71.33,280.00 72.86,280.00 74.39,280.00 75.92,280.00 77.46,280.00 78.99,280.00 80.52,280.00 82.05,280.00 83.59,280.00 85.12,280.00 86.65,280.00 88.18,280.00 89.72,280.00 91.25,280.00 92.78,280.00 94.32,280.00 95.85,280.00 97.38,280.00 98.91,280.00 100.45,280.00 101.98,280.00 103.51,280.00 105.04,280.00 106.58,280.00 108.11,280.00 109.64,280.00 111.17,280.00 112.71,280.00 114.24,280.00 115.77,280.00 117.30,280.00 118.84,280.00 120.37,280.00 121.90,280.00 123.43,280.00 124.97,280.00 126.50,280.00 128.03,280.00 129.57,280.00 131.10,280.00 132.63,280.00 134.16,280.00 135.70,280.00 137.23,280.00 138.76,280.00 140.29,280.00 141.83,280.00 143.36,280.00 144.89,280.00 146.42,280.00 147.96,280.00 149.49,280.00 151.02,280.00 152.55,280.00 154.09,280.00 155.62,280.00 157.15,280.00 158.68,280.00 160.22,280.00 161.75,280.00 163.28,280.00 164.82,280.00 166.35,280.00 167.88,280.00 169.41,280.00 170.95,280.00 172.48,280.00 174.01,280.00 175.54,280.00 177.08,280.00 178.61,280.00 180.14,280.00 181.67,280.00 183.21,280.00 184.74,280.00 186.27,280.00 187.80,280.00 189.34,280.00 190.87,280.00 192.40,280.00 193.93,280.00 195.47,280.00 197.00,280.00 198.53,280.00 200.07,280.00 201.60,280.00 203.13,280.00 204.66,280.00 206.20,280.00 207.73,280.00 209.26,280.00 210.79,280.00 212.33,280.00 213.86,280.00 215.39,280.00 216.92,280.00 218.46,280.00 219.99,280.00 221.52,280.00 223.05,280.00 224.59,280.00 226.12,280.00 227.65,280.00 229.18,280.00 230.72,280.00 232.25,280.00 233.78,280.00 235.32,280.00 236.85,280.00 238.38,280.00 239.91,280.00 241.45,280.00 242.98,280.00 244.51,280.00 246.04,280.00 247.58,280.00 249.11,280.00 250.64,280.00 252.17,280.00 253.71,280.00 255.24,280.00 256.77,280.00 258.30,280.00 259.84,280.00 261.37,280.00 262.90,280.00 264.43,280.00 265.97,280.00 267.50,280.00 269.03,280.00 270.57,280.00 272.10,280.00 273.63,280.00 275.16,280.00 276.70,280.00 278.23,280.00 279.76,280.00 281.29,280.00 282.83,280.00 284.36,280.00 285.89,280.00 287.42,280.00 288.96,280.00 290.49,280.00 292.02,280.00 293.55,280.00 295.09,280.00 296.62,280.00 298.15,280.00 299.68,280.00 301.22,280.00 302.75,280.00 304.28,280.00 305.82,280.00 307.35,280.00 308.88,280.00 310.41,280.00 311.95,280.00 313.48,280.00 315.01,280.00 316.54,280.00 318.08,280.00 319.61,280.00 321.14,280.00 322.67,280.00 324.21,280.00 325.74,280.00 327.27,280.00 328.80,280.00 330.34,280.00 331.87,280.00 333.40,280.00 334.93,280.00 336.47,280.00 338.00,280.00 339.53,280.00 341.07,280.00 342.60,280.00 344.13,280.00 345.66,280.00 347.20,280.00 348.73,280.00 350.26,280.00 351.79,280.00 353.33,280.00 354.86,280.00 356.39,280.00 357.92,280.00 359.46,280.00 360.99,280.00 362.52,280.00 364.05,280.00 365.59,280.00 367.12,280.00 368.65,280.00 370.18,280.00 371.72,280.00 373.25,280.00 374.78,280.00 376.32,280.00 377.85,280.00 379.38,280.00 380.91,280.00 382.45,280.00 383.98,280.00 385.51,280.00 387.04,280.00 388.58,280.00 390.11,280.00 391.64,280.00 393.17,280.00 394.71,280.00 396.24,280.00 397.77,280.00 399.30,280.00 400.84,280.00 402.37,280.00 403.90,280.00 405.43,280.00 406.97,280.00 408.50,280.00 410.03,280.00 411.57,280.00 413.10,280.00 414.63,280.00 416.16,280.00 417.70,280.00 419.23,280.00 420.76,280.00 422.29,280.00 423.83,280.00 425.36,280.00 426.89,280.00 428.42,280.00 429.96,280.00 431.49,280.00 433.02,280.00 434.55,280.00 436.09,280.00 437.62,280.00 439.15,280.00 440.68,280.00 442.22,280.00 443.75,280.00 445.28,280.00 446.82,280.00 448.35,280.00 449.88,280.00 451.41,280.00 452.95,280.00 454.48,280.00 456.01,280.00 457.54,280.00 459.08,280.00 460.61,280.00 462.14,280.00 463.67,280.00 465.21,280.00 466.74,280.00 468.27,280.00 469.80,280.00 471.34,280.00 472.87,280.00 474.40,280.00 475.93,280.00 477.47,280.00 479.00,280.00 480.53,280.00 482.07,280.00 483.60,280.00 485.13,280.00 486.66,280.00 488.20,280.00 489.73,280.00 491.26,280.00 492.79,280.00 494.33,280.00 495.86,280.00 497.39,280.00 498.92,280.00 500.46,280.00 501.99,280.00 503.52,280.00 505.05,280.00 506.59,280.00 508.12,280.00 509.65,280.00 511.18,280.00 512.72,280.00 514.25,280.00 515.78,280.00 517.32,280.00 518.85,280.00 520.38,280.00 521.91,280.00 523.45,280.00 524.98,280.00 526.51,280.00 528.04,280.00 529.58,280.00 531.11,280.00 532.64,280.00 534.17,280.00 535.71,280.00 537.24,280.00 538.77,280.00 540.30,280.00 541.84,280.00 543.37,280.00 544.90,280.00 546.43,280.00 547.97,280.00 549.50,280.00 551.03,280.00 552.57,280.00 554.10,280.00 555.63,280.00 557.16,280.00 558.70,280.00 560.23,280.00 561.76,280.00 563.29,280.00 564.83,280.00 566.36,280.00 567.89,280.00 569.42,280.00 570.96,280.00 572.49,280.00 574.02,280.00 575.55,280.00 577.09,280.00 578.62,280.00 580.15,280.00 581.68,280.00 583.22,280.00 584.75,280.00 586.28,280.00 587.82,280.00 589.35,280.00 590.88,280.00 592.41,280.00 593.95,280.00 595.48,280.00 597.01,280.00 598.54,280.00 600.08,280.00 601.61,280.00 603.14,280.00 604.67,280.00 606.21,280.00 607.74,280.00 609.27,280.00 610.80,280.00 612.34,280.00 613.87,280.00 615.40,280.00 616.93,280.00 618.47,280.00 620.00,280.00 621.53,280.00 623.07,280.00 624.60,280.00 626.13,280.00 627.66,280.00 629.20,280.00 630.73,280.00 632.26,280.00 633.79,280.00 635.33,280.00 636.86,280.00 638.39,280.00 639.92,280.00 641.46,280.00 642.99,280.00 644.52,280.00 646.05,280.00 647.59,280.00 649.12,280.00 650.65,280.00 652.18,280.00 653.72,280.00 655.25,280.00 656.78,280.00 658.32,280.00 659.85,280.00 661.38,280.00 662.91,280.00 664.45,280.00 665.98,280.00 667.51,280.00 669.04,280.00 670.58,280.00 672.11,280.00 673.64,280.00 675.17,280.00 676.71,280.00 678.24,280.00 679.77,280.00 681.30,280.00 682.84,280.00 684.37,280.00 685.90,280.00 687.43,280.00 688.97,280.00 690.50,280.00 692.03,280.00 693.57,280.00 695.10,280.00 696.63,280.00 698.16,280.00 699.70,280.00 701.23,280.00 702.76,280.00 704.29,280.00 705.83,280.00 707.36,280.00 708.89,280.00 710.42,280.00 711.96,280.00 713.49,280.00 715.02,280.00 716.55,280.00 718.09,280.00 719.62,280.00 721.15,280.00 722.68,280.00 724.22,280.00 725.75,280.00 727.28,280.00 728.82,280.00 730.35,280.00 731.88,280.00 733.41,280.00 734.95,280.00 736.48,280.00 738.01,280.00 739.54,280.00 741.08,280.00 742.61,280.00 744.14,280.00 745.67,280.00 747.21,280.00 748.74,280.00 750.27,280.00 751.80,280.00 753.34,280.00 754.87,280.00 756.40,280.00 757.93,280.00 759.47,280.00 761.00,280.00 762.53,280.00 764.07,280.00 765.60,280.00 767.13,280.00 768.66,280.00 770.20,280.00 771.73,280.00 773.26,280.00 774.79,280.00 776.33,280.00 777.86,280.00 779.39,280.00 780.92,280.00 782.46,280.00 783.99,280.00 785.52,280.00 787.05,280.00 788.59,280.00 790.12,280.00 791.65,280.00 793.18,280.00 794.72,280.00 796.25,280.00 797.78,280.00 799.32,280.00 800.85,280.00 802.38,280.00 803.91,280.00 805.45,280.00 806.98,280.00 808.51,280.00 810.04,280.00 811.58,280.00 813.11,280.00 814.64,280.00 816.17,280.00 817.71,280.00 819.24,280.00 820.77,280.00 822.30,280.00 823.84,280.00 825.37,280.00 826.90,280.00 828.43,280.00 829.97,280.00 831.50,280.00 833.03,280.00 834.57,280.00 836.10,280.00 837.63,280.00 839.16,280.00 840.70,280.00 842.23,280.00 843.76,280.00 845.29,280.00 846.83,280.00 848.36,280.00 849.89,280.00 851.42,280.00 852.96,280.00 854.49,280.00 856.02,280.00 857.55,280.00 859.09,280.00 860.62,280.00 862.15,280.00 863.68,280.00 865.22,280.00 866.75,280.00 868.28,280.00 869.82,280.00 871.35,280.00 872.88,280.00 874.41,280.00 875.95,280.00 877.48,280.00 879.01,280.00 880.54,280.00 882.08,280.00 883.61,280.00 885.14,280.00 886.67,280.00 888.21,280.00 889.74,280.00 891.27,280.00 892.80,280.00 894.34,280.00 895.87,280.00 897.40,280.00 898.93,280.00 900.47,280.00 902.00,280.00 903.53,280.00 905.07,280.00 906.60,280.00 908.13,280.00 909.66,280.00 911.20,280.00 912.73,280.00 914.26,280.00 915.79,280.00 917.33,280.00 918.86,280.00 920.39,280.00 921.92,280.00 923.46,280.00 924.99,280.00 926.52,280.00 928.05,280.00 929.59,280.00 931.12,280.00 932.65,280.00 934.18,280.00 935.72,280.00 937.25,280.00 938.78,280.00 940.32,280.00 941.85,280.00 943.38,280.00 944.91,280.00 946.45,280.00 947.98,280.00 949.51,280.00 951.04,280.00 952.58,280.00 954.11,280.00 955.64,280.00 957.17,280.00 958.71,280.00 960.24,280.00 961.77,280.00 963.30,280.00 964.84,280.00 966.37,280.00 967.90,280.00 969.43,280.00 970.97,280.00 972.50,280.00 974.03,280.00 975.57,280.00 977.10,280.00 978.63,280.00 980.16,280.00 981.70,280.00 983.23,280.00 984.76,280.00 986.29,280.00 987.83,280.00 989.36,280.00 990.89,280.00 992.42,280.00 993.96,280.00 995.49,280.00 997.02,280.00 998.55,280.00 1000.09,280.00 1001.62,280.00 1003.15,280.00 1004.68,280.00 1006.22,280.00 1007.75,280.00 1009.28,280.00 1010.82,280.00 1012.35,280.00 1013.88,280.00 1015.41,280.00 1016.95,280.00 1018.48,280.00 1020.01,280.00 1021.54,280.00 1023.08,280.00 1024.61,280.00 1026.14,280.00 1027.67,280.00 1029.21,280.00 1030.74,280.00 1032.27,280.00 1033.80,280.00 1035.34,280.00 1036.87,280.00 1038.40,280.00 1039.93,280.00 1041.47,280.00 1043.00,280.00 1044.53,280.00 1046.07,280.00 1047.60,280.00 1049.13,280.00 1050.66,280.00 1052.20,280.00 1053.73,280.00 1055.26,280.00 1056.79,280.00 1058.33,280.00 1059.86,280.00 1061.39,280.00 1062.92,280.00 1064.46,280.00 1065.99,280.00 1067.52,280.00 1069.05,280.00 1070.59,280.00 1072.12,280.00 1073.65,280.00 1075.18,280.00 1076.72,280.00 1078.25,280.00 1079.78,280.00 1081.32,280.00 1082.85,280.00 1084.38,280.00 1085.91,280.00 1087.45,280.00 1088.98,280.00 1090.51,280.00 1092.04,280.00 1093.58,280.00 1095.11,280.00 1096.64,280.00 1098.17,280.00 1099.71,280.00 1101.24,280.00 1102.77,280.00 1104.30,280.00 1105.84,280.00 1107.37,280.00 1108.90,280.00 1110.43,280.00 1111.97,280.00 1113.50,280.00 1115.03,280.00 1116.57,280.00 1118.10,280.00 1119.63,280.00 1121.16,280.00 1122.70,280.00 1124.23,280.00 1125.76,280.00 1127.29,280.00 1128.83,280.00 1130.36,280.00 1131.89,280.00 1133.42,280.00 1134.96,280.00 1136.49,280.00 1138.02,280.00 1139.55,280.00 1141.09,280.00 1142.62,280.00 1144.15,280.00 1145.68,280.00 1147.22,280.00 1148.75,280.00 1150.28,280.00 1151.82,280.00 1153.35,280.00 1154.88,280.00 1156.41,280.00 1157.95,280.00 1159.48,280.00 1161.01,280.00 1162.54,280.00 1164.08,280.00 1165.61,280.00 1167.14,280.00 1168.67,280.00 1170.21,280.00 1171.74,280.00 1173.27,280.00 1174.80,280.00 1176.34,280.00 1177.87,280.00 1179.40,280.00 1180.93,280.00 1182.47,280.00 1184.00,280.00" />
  <line x1="56.00" y1="280" x2="56.00" y2="286" stroke="#777777" /><text x="56.00" y="308" text-anchor="middle" font-size="12" fill="#777777">0</text><line x1="281.29" y1="280" x2="281.29" y2="286" stroke="#777777" /><text x="281.29" y="308" text-anchor="middle" font-size="12" fill="#777777">147</text><line x1="506.59" y1="280" x2="506.59" y2="286" stroke="#777777" /><text x="506.59" y="308" text-anchor="middle" font-size="12" fill="#777777">294</text><line x1="731.88" y1="280" x2="731.88" y2="286" stroke="#777777" /><text x="731.88" y="308" text-anchor="middle" font-size="12" fill="#777777">441</text><line x1="957.17" y1="280" x2="957.17" y2="286" stroke="#777777" /><text x="957.17" y="308" text-anchor="middle" font-size="12" fill="#777777">588</text><line x1="1184.00" y1="280" x2="1184.00" y2="286" stroke="#777777" /><text x="1184.00" y="308" text-anchor="middle" font-size="12" fill="#777777">736</text>
  <line x1="50" y1="280.00" x2="56" y2="280.00" stroke="#777777" /><text x="46" y="284.00" text-anchor="end" font-size="12" fill="#777777">0.00</text><line x1="50" y1="214.50" x2="56" y2="214.50" stroke="#777777" /><text x="46" y="218.50" text-anchor="end" font-size="12" fill="#777777">0.25</text><line x1="50" y1="149.00" x2="56" y2="149.00" stroke="#777777" /><text x="46" y="153.00" text-anchor="end" font-size="12" fill="#777777">0.50</text><line x1="50" y1="83.50" x2="56" y2="83.50" stroke="#777777" /><text x="46" y="87.50" text-anchor="end" font-size="12" fill="#777777">0.75</text><line x1="50" y1="18.00" x2="56" y2="18.00" stroke="#777777" /><text x="46" y="22.00" text-anchor="end" font-size="12" fill="#777777">1.00</text>
</svg>