<svg xmlns="http://www.w3.org/2000/svg" width="1200" height="320" viewBox="0 0 1200 320">
  <rect width="1200" height="320" fill="#fafafa" />
  <text x="56" y="14" font-size="14" fill="#111827">Anomaly Score Timeline</text>
  <rect x="56.00" y="18" width="500.15" height="262" fill="#fecaca" fill-opacity="0.35" />
  <line x1="56" y1="18" x2="56" y2="280" stroke="#777777" />
  <line x1="56" y1="280" x2="1184" y2="280" stroke="#777777" />
  <line x1="56" y1="206.38" x2="1184" y2="206.38" stroke="#b45309" stroke-dasharray="5 5" />
  <line x1="56" y1="199.99" x2="1184" y2="199.99" stroke="#b91c1c" stroke-dasharray="4 4" />
  <text x="1180" y="200.38" text-anchor="end" font-size="12" fill="#b45309">alert 0.28</text>
  <text x="1180" y="193.99" text-anchor="end" font-size="12" fill="#b91c1c">high 0.31</text>
  <polyline fill="none" stroke="#166534" stroke-width="2" points="56.00,201.30 57.52,201.30 59.04,201.30 60.56,199.99 62.08,199.99 63.60,199.99 65.12,199.99 66.64,199.99 68.16,199.99 69.68,199.99 71.20,199.99 72.72,199.99 74.24,199.99 75.76,199.99 77.28,199.99 78.80,199.99 80.32,199.99 81.84,199.99 83.36,199.99 84.88,199.99 86.40,199.99 87.92,199.99 89.44,199.99 90.96,199.99 92.49,199.99 94.01,199.99 95.53,199.99 97.05,199.99 98.57,199.99 100.09,199.99 101.61,199.99 103.13,199.99 104.65,199.99 106.17,199.99 107.69,199.99 109.21,199.99 110.73,199.99 112.25,199.99 113.77,199.99 115.29,199.99 116.81,199.99 118.33,199.99 119.85,202.16 121.37,202.16 122.89,202.16 124.41,202.16 125.93,202.16 127.45,202.16 128.97,202.16 130.49,202.16 132.01,202.16 133.53,202.16 135.05,202.16 136.57,202.16 138.09,202.16 139.61,202.16 141.13,202.16 142.65,202.16 144.17,202.16 145.69,202.16 147.21,202.16 148.73,202.16 150.25,202.16 151.77,202.16 153.29,202.16 154.81,202.16 156.33,202.16 157.85,202.16 159.37,202.16 160.89,202.16 162.42,202.16 163.94,202.16 165.46,202.16 166.98,202.16 168.50,202.16 170.02,202.16 171.54,202.16 173.06,202.16 174.58,202.16 176.10,202.16 177.62,202.16 179.14,202.16 180.66,202.16 182.18,202.16 183.70,202.16 185.22,202.16 186.74,202.16 188.26,202.16 189.78,202.16 191.30,202.16 192.82,202.16 194.34,202.16 195.86,202.16 197.38,202.16 198.90,202.16 200.42,202.16 201.94,202.16 203.46,202.16 204.98,202.16 206.50,202.16 208.02,202.16 209.54,202.16 211.06,202.16 212.58,202.16 214.10,202.16 215.62,202.16 217.14,202.16 218.66,202.16 220.18,202.16 221.70,202.16 223.22,202.16 224.74,202.16 226.26,202.16 227.78,202.16 229.30,202.16 230.82,202.16 232.35,202.16 233.87,202.16 235.39,202.16 236.91,202.16 238.43,202.16 239.95,202.16 241.47,202.16 242.99,202.16 244.51,202.16 246.03,202.16 247.55,202.16 249.07,202.16 250.59,202.16 252.11,202.16 253.63,202.16 255.15,202.16 256.67,201.30 258.19,201.30 259.71,201.30 261.23,201.30 262.75,201.30 264.27,201.30 265.79,201.30 267.31,201.30 268.83,201.30 270.35,201.30 271.87,201.30 273.39,201.30 274.91,201.30 276.43,201.30 277.95,201.30 279.47,201.30 280.99,201.30 282.51,201.30 284.03,201.30 285.55,201.30 287.07,201.30 288.59,201.30 290.11,201.30 291.63,201.30 293.15,201.30 294.67,201.30 296.19,201.30 297.71,201.30 299.23,201.30 300.75,201.30 302.27,201.30 303.80,201.30 305.32,201.30 306.84,201.30 308.36,201.30 309.88,201.30 311.40,201.30 312.92,201.30 314.44,201.30 315.96,201.30 317.48,201.30 319.00,201.30 320.52,201.30 322.04,201.30 323.56,201.30 325.08,201.30 326.60,201.30 328.12,201.30 329.64,201.30 331.16,201.30 332.68,201.30 334.20,201.30 335.72,201.30 337.24,201.30 338.76,201.30 340.28,201.30 341.80,201.30 343.32,201.30 344.84,201.30 346.36,201.30 347.88,201.30 349.40,201.30 350.92,201.30 352.44,201.30 353.96,201.30 355.48,201.30 357.00,201.30 358.52,201.30 360.04,201.30 361.56,201.30 363.08,201.30 364.60,201.30 366.12,201.30 367.64,201.30 369.16,201.30 370.68,201.30 372.20,201.30 373.73,201.30 375.25,201.30 376.77,201.30 378.29,201.30 379.81,201.30 381.33,201.30 382.85,201.30 384.37,201.30 385.89,201.30 387.41,201.30 388.93,201.30 390.45,201.30 391.97,201.30 393.49,201.30 395.01,201.30 396.53,201.30 398.05,201.30 399.57,201.30 401.09,201.30 402.61,201.30 404.13,201.30 405.65,201.30 407.17,201.30 408.69,201.30 410.21,201.30 411.73,201.30 413.25,201.30 414.77,201.30 416.29,201.30 417.81,201.30 419.33,201.30 420.85,201.30 422.37,201.30 423.89,201.30 425.41,201.30 426.93,201.30 428.45,201.30 429.97,201.30 431.49,201.30 433.01,201.30 434.53,201.30 436.05,201.30 437.57,201.30 439.09,201.30 440.61,201.30 442.13,201.30 443.65,201.30 445.18,201.30 446.70,201.30 448.22,201.30 449.74,201.30 451.26,201.30 452.78,201.30 454.30,201.30 455.82,201.30 457.34,201.30 458.86,201.30 460.38,201.30 461.90,201.30 463.42,203.78 464.94,203.78 466.46,203.78 467.98,203.78 469.50,203.78 471.02,203.78 472.54,203.78 474.06,203.78 475.58,203.78 477.10,203.78 478.62,203.78 480.14,203.78 481.66,203.78 483.18,203.78 484.70,203.78 486.22,203.78 487.74,203.78 489.26,203.78 490.78,203.78 492.30,203.78 493.82,203.78 495.34,203.78 496.86,203.78 498.38,203.78 499.90,203.78 501.42,203.78 502.94,203.78 504.46,203.78 505.98,203.78 507.50,203.78 509.02,203.78 510.54,203.78 512.06,203.78 513.58,203.78 515.11,203.78 516.63,203.78 518.15,203.78 519.67,203.78 521.19,203.78 522.71,203.78 524.23,203.78 525.75,203.78 527.27,203.78 528.79,203.78 530.31,203.78 531.83,203.78 533.35,203.78 534.87,203.78 536.39,203.78 537.91,203.78 539.43,203.78 540.95,203.78 542.47,203.78 543.99,203.78 545.51,203.78 547.03,203.78 548.55,203.78 550.07,203.78 551.59,203.78 553.11,203.78 554.63,203.78 556.15,203.78 557.67,203.78 559.19,203.78 560.71,203.78 562.23,203.78 563.75,211.67 565.27,211.67 566.79,211.67 568.31,211.67 569.83,211.67 571.35,211.67 572.87,211.67 574.39,211.67 575.91,211.67 577.43,211.67 578.95,211.67 580.47,211.67 581.99,211.67 583.51,211.67 585.04,211.67 586.56,211.67 588.08,211.67 589.60,211.67 591.12,211.67 592.64,211.67 594.16,211.67 595.68,211.67 597.20,211.67 598.72,211.67 600.24,211.67 601.76,211.67 603.28,211.67 604.80,211.67 606.32,211.67 607.84,211.67 609.36,211.67 610.88,211.67 612.40,211.67 613.92,211.67 615.44,211.67 616.96,211.67 618.48,211.67 620.00,211.67 621.52,211.67 623.04,211.67 624.56,211.67 626.08,211.67 627.60,211.67 629.12,211.67 630.64,211.67 632.16,211.67 633.68,211.67 635.20,211.67 636.72,211.67 638.24,211.67 639.76,211.67 641.28,211.67 642.80,211.67 644.32,211.67 645.84,211.67 647.36,211.67 648.88,211.67 650.40,211.67 651.92,211.67 653.44,211.67 654.96,211.67 656.49,211.67 658.01,211.67 659.53,211.67 661.05,211.67 662.57,211.67 664.09,211.67 665.61,211.67 667.13,211.67 668.65,211.67 670.17,211.67 671.69,211.67 673.21,211.67 674.73,211.67 676.25,211.67 677.77,211.67 679.29,211.67 680.81,211.67 682.33,211.67 683.85,211.67 685.37,211.67 686.89,211.67 688.41,211.67 689.93,211.67 691.45,211.67 692.97,211.67 694.49,211.67 696.01,211.67 697.53,211.67 699.05,211.67 700.57,211.67 702.09,211.67 703.61,211.67 705.13,211.67 706.65,211.67 708.17,211.67 709.69,211.67 711.21,211.67 712.73,211.67 714.25,211.67 715.77,211.67 717.29,211.67 718.81,211.67 720.33,211.67 721.85,211.67 723.37,211.67 724.89,211.67 726.42,211.67 727.94,211.67 729.46,211.67 730.98,211.67 732.50,211.67 734.02,211.67 735.54,211.67 737.06,211.67 738.58,211.67 740.10,211.67 741.62,211.67 743.14,211.67 744.66,211.67 746.18,211.67 747.70,211.67 749.22,211.67 750.74,211.67 752.26,211.67 753.78,211.67 755.30,211.67 756.82,211.67 758.34,211.67 759.86,211.67 761.38,211.67 762.90,211.67 764.42,211.67 765.94,211.67 767.46,211.67 768.98,211.67 770.50,211.67 772.02,211.67 773.54,211.67 775.06,211.67 776.58,211.67 778.10,211.67 779.62,211.67 781.14,211.67 782.66,211.67 784.18,211.67 785.70,211.67 787.22,211.67 788.74,211.67 790.26,211.67 791.78,211.67 793.30,211.67 794.82,211.67 796.35,211.67 797.87,211.67 799.39,211.67 800.91,211.67 802.43,211.67 803.95,211.67 805.47,211.67 806.99,211.67 808.51,211.67 810.03,211.67 811.55,211.67 813.07,211.67 814.59,211.67 816.11,211.67 817.63,211.67 819.15,211.67 820.67,211.67 822.19,211.67 823.71,211.67 825.23,211.67 826.75,211.67 828.27,211.67 829.79,211.67 831.31,211.67 832.83,211.67 834.35,211.67 835.87,211.67 837.39,211.67 838.91,211.67 840.43,211.67 841.95,211.67 843.47,211.67 844.99,211.67 846.51,211.67 848.03,211.67 849.55,211.67 851.07,211.67 852.59,211.67 854.11,211.67 855.63,211.67 857.15,211.67 858.67,211.67 860.19,211.67 861.71,211.67 863.23,211.67 864.75,211.67 866.27,211.67 867.80,211.67 869.32,211.67 870.84,211.67 872.36,211.67 873.88,211.67 875.40,211.67 876.92,211.67 878.44,211.67 879.96,211.67 881.48,211.67 883.00,211.67 884.52,211.67 886.04,211.67 887.56,211.67 889.08,211.67 890.60,211.67 892.12,211.67 893.64,211.67 895.16,211.67 896.68,211.67 898.20,211.67 899.72,211.67 901.24,211.67 902.76,211.67 904.28,211.67 905.80,211.67 907.32,211.67 908.84,211.67 910.36,211.67 911.88,211.67 913.40,211.67 914.92,211.67 916.44,211.67 917.96,211.67 919.48,211.67 921.00,211.67 922.52,211.67 924.04,211.67 925.56,211.67 927.08,211.67 928.60,211.67 930.12,211.67 931.64,211.67 933.16,211.67 934.68,211.67 936.20,211.67 937.73,211.67 939.25,211.67 940.77,211.67 942.29,211.67 943.81,211.67 945.33,211.67 946.85,211.67 948.37,211.67 949.89,211.67 951.41,211.67 952.93,211.67 954.45,211.67 955.97,211.67 957.49,211.67 959.01,211.67 960.53,211.67 962.05,211.67 963.57,211.67 965.09,211.67 966.61,211.67 968.13,211.67 969.65,211.67 971.17,211.67 972.69,211.67 974.21,211.67 975.73,211.67 977.25,211.67 978.77,211.67 980.29,211.67 981.81,211.67 983.33,211.67 984.85,211.67 986.37,211.67 987.89,211.67 989.41,211.67 990.93,211.67 992.45,211.67 993.97,211.67 995.49,211.67 997.01,211.67 998.53,211.67 1000.05,211.67 1001.57,211.67 1003.09,211.67 1004.61,211.67 1006.13,211.67 1007.65,211.67 1009.18,211.67 1010.70,211.67 1012.22,211.67 1013.74,211.67 1015.26,211.67 1016.78,211.67 1018.30,211.67 1019.82,211.67 1021.34,211.67 1022.86,211.67 1024.38,211.67 1025.90,211.67 1027.42,211.67 1028.94,211.67 1030.46,211.67 1031.98,211.67 1033.50,211.67 1035.02,211.67 1036.54,211.67 1038.06,211.67 1039.58,211.67 1041.10,211.67 1042.62,211.67 1044.14,211.67 1045.66,211.67 1047.18,211.67 1048.70,211.67 1050.22,211.67 1051.74,211.67 1053.26,211.67 1054.78,211.67 1056.30,211.67 1057.82,211.67 1059.34,211.67 1060.86,211.67 1062.38,211.67 1063.90,211.67 1065.42,211.67 1066.94,211.67 1068.46,211.67 1069.98,211.67 1071.50,211.67 1073.02,211.67 1074.54,211.67 1076.06,211.67 1077.58,211.67 1079.11,211.67 1080.63,211.67 1082.15,211.67 1083.67,211.67 1085.19,211.67 1086.71,211.67 1088.23,211.67 1089.75,211.67 1091.27,211.67 1092.79,211.67 1094.31,211.67 1095.83,211.67 1097.35,211.67 1098.87,211.67 1100.39,211.67 1101.91,211.67 1103.43,211.67 1104.95,211.67 1106.47,211.67 1107.99,211.67 1109.51,211.67 1111.03,211.67 1112.55,211.67 1114.07,211.67 1115.59,211.67 1117.11,211.67 1118.63,211.67 1120.15,211.67 1121.67,211.67 1123.19,211.67 1124.71,211.67 1126.23,211.67 1127.75,211.67 1129.27,211.67 1130.79,211.67 1132.31,211.67 1133.83,211.67 1135.35,211.67 1136.87,211.67 1138.39,211.67 1139.91,211.67 1141.43,211.67 1142.95,211.67 1144.47,211.67 1145.99,211.67 1147.51,211.67 1149.04,211.67 1150.56,211.67 1152.08,211.67 1153.60,211.67 1155.12,211.67 1156.64,211.67 1158.16,211.67 1159.68,211.67 1161.20,211.67 1162.72,211.67 1164.24,211.67 1165.76,211.67 1167.28,211.67 1168.80,211.67 1170.32,211.67 1171.84,211.67 1173.36,217.20 1174.88,217.20 1176.40,217.20 1177.92,217.20 1179.44,217.20 1180.96,217.20 1182.48,217.20 1184.00,217.20" />
  <line x1="56.00" y1="280" x2="56.00" y2="286" stroke="#777777" /><text x="56.00" y="308" text-anchor="middle" font-size="12" fill="#777777">0</text><line x1="280.99" y1="280" x2="280.99" y2="286" stroke="#777777" /><text x="280.99" y="308" text-anchor="middle" font-size="12" fill="#777777">148</text><line x1="505.98" y1="280" x2="505.98" y2="286" stroke="#777777" /><text x="505.98" y="308" text-anchor="middle" font-size="12" fill="#777777">296</text><line x1="732.50" y1="280" x2="732.50" y2="286" stroke="#777777" /><text x="732.50" y="308" text-anchor="middle" font-size="12" fill="#777777">445</text><line x1="957.49" y1="280" x2="957.49" y2="286" stroke="#777777" /><text x="957.49" y="308" text-anchor="middle" font-size="12" fill="#777777">593</text><line x1="1184.00" y1="280" x2="1184.00" y2="286" stroke="#777777" /><text x="1184.00" y="308" text-anchor="middle" font-size="12" fill="#777777">742</text>
  <line x1="50" y1="280.00" x2="56" y2="280.00" stroke="#777777" /><text x="46" y="284.00" text-anchor="end" font-size="12" fill="#777777">0.00</text><line x1="50" y1="214.50" x2="56" y2="214.50" stroke="#777777" /><text x="46" y="218.50" text-anchor="end" font-size="12" fill="#777777">0.25</text><line x1="50" y1="149.00" x2="56" y2="149.00" stroke="#777777" /><text x="46" y="153.00" text-anchor="end" font-size="12" fill="#777777">0.50</text><line x1="50" y1="83.50" x2="56" y2="83.50" stroke="#777777" /><text x="46" y="87.50" text-anchor="end" font-size="12" fill="#777777">0.75</text><line x1="50" y1="18.00" x2="56" y2="18.00" stroke="#777777" /><text x="46" y="22.00" text-anchor="end" font-size="12" fill="#777777">1.00</text>
</svg>