<svg xmlns="http://www.w3.org/2000/svg" width="1200" height="320" viewBox="0 0 1200 320">
  <rect width="1200" height="320" fill="#fafafa" />
  <text x="56" y="14" font-size="14" fill="#111827">Anomaly Score Timeline</text>
  
  <line x1="56" y1="18" x2="56" y2="280" stroke="#777777" />
  <line x1="56" y1="280" x2="1184" y2="280" stroke="#777777" />
  <line x1="56" y1="149.00" x2="1184" y2="149.00" stroke="#b45309" stroke-dasharray="5 5" />
  <line x1="56" y1="83.50" x2="1184" y2="83.50" stroke="#b91c1c" stroke-dasharray="4 4" />
  <text x="1180" y="143.00" text-anchor="end" font-size="12" fill="#b45309">alert 0.50</text>
  <text x="1180" y="77.50" text-anchor="end" font-size="12" fill="#b91c1c">high 0.75</text>
  <polyline fill="none" stroke="#166534" stroke-width="2" points="56.00,280.00 57.10,280.00 58.21,280.00 59.31,280.00 60.96,280.00 62.06,280.00 63.17,280.00 64.27,280.00 65.92,280.00 67.03,280.00 68.13,280.00 69.78,280.00 70.89,280.00 71.99,280.00 73.09,280.00 74.74,280.00 75.85,280.00 76.95,280.00 78.05,280.00 79.71,280.00 80.81,280.00 81.91,280.00 83.57,280.00 84.67,280.00 85.77,280.00 86.87,280.00 88.53,280.00 89.63,280.00 90.73,280.00 91.84,280.00 93.49,280.00 94.59,280.00 95.70,280.00 97.35,280.00 98.45,280.00 99.55,280.00 100.66,280.00 102.31,280.00 103.41,280.00 104.52,280.00 105.62,280.00 107.27,280.00 108.38,280.00 109.48,280.00 111.13,280.00 112.23,280.00 113.34,280.00 114.44,280.00 116.09,280.00 117.20,280.00 118.30,280.00 119.40,280.00 121.06,280.00 122.16,280.00 123.26,280.00 124.91,280.00 126.02,280.00 127.12,280.00 128.22,280.00 129.88,280.00 130.98,280.00 132.08,280.00 133.74,280.00 134.84,280.00 135.94,280.00 137.04,280.00 138.70,280.00 139.80,280.00 140.90,280.00 142.01,280.00 143.66,280.00 144.76,280.00 145.87,280.00 147.52,280.00 148.62,280.00 149.72,280.00 150.83,280.00 152.48,280.00 153.58,280.00 154.69,280.00 155.79,280.00 157.44,280.00 158.55,280.00 159.65,280.00 161.30,280.00 162.40,280.00 163.51,280.00 164.61,280.00 166.26,280.00 167.37,280.00 168.47,280.00 169.57,280.00 171.23,280.00 172.33,280.00 173.43,280.00 175.09,280.00 176.19,280.00 177.29,280.00 178.39,280.00 180.05,280.00 181.15,280.00 182.25,280.00 183.35,280.00 185.01,280.00 186.11,280.00 187.21,280.00 188.87,280.00 189.97,280.00 191.07,280.00 192.18,280.00 193.83,280.00 194.93,280.00 196.04,280.00 197.69,280.00 198.79,280.00 199.89,280.00 201.00,280.00 202.65,280.00 203.75,280.00 204.86,280.00 205.96,280.00 207.61,280.00 208.72,280.00 209.82,280.00 211.47,280.00 212.57,280.00 213.68,280.00 214.78,280.00 216.43,280.00 217.54,280.00 218.64,280.00 219.74,280.00 221.40,280.00 222.50,280.00 223.60,280.00 225.26,280.00 226.36,280.00 227.46,280.00 228.56,280.00 230.22,280.00 231.32,280.00 232.42,280.00 233.52,280.00 235.18,280.00 236.28,280.00 237.38,280.00 239.04,280.00 240.14,280.00 241.24,280.00 242.35,280.00 244.00,280.00 245.10,280.00 246.21,280.00 247.31,280.00 248.96,280.00 250.06,280.00 251.17,280.00 252.82,280.00 253.92,280.00 255.03,280.00 256.13,280.00 257.78,280.00 258.89,280.00 259.99,280.00 261.64,280.00 262.74,280.00 263.85,280.00 264.95,280.00 266.60,280.00 267.71,280.00 268.81,280.00 269.91,280.00 271.57,280.00 272.67,280.00 273.77,280.00 275.43,280.00 276.53,280.00 277.63,280.00 278.73,280.00 280.39,280.00 281.49,280.00 282.59,280.00 283.70,280.00 285.35,280.00 286.45,280.00 287.55,280.00 289.21,280.00 290.31,280.00 291.41,280.00 292.52,280.00 294.17,280.00 295.27,280.00 296.38,280.00 297.48,280.00 299.13,280.00 300.23,280.00 301.34,280.00 302.99,280.00 304.09,280.00 305.20,280.00 306.30,280.00 307.95,280.00 309.06,280.00 310.16,280.00 311.26,280.00 312.91,280.00 314.02,280.00 315.12,280.00 316.77,280.00 317.88,280.00 318.98,280.00 320.08,280.00 321.74,280.00 322.84,280.00 323.94,280.00 325.60,280.00 326.70,280.00 327.80,280.00 328.90,280.00 330.56,280.00 331.66,280.00 332.76,280.00 333.87,280.00 335.52,280.00 336.62,280.00 337.72,280.00 339.38,280.00 340.48,280.00 341.58,280.00 342.69,280.00 344.34,280.00 345.44,280.00 346.55,280.00 347.65,280.00 349.30,280.00 350.40,280.00 351.51,280.00 353.16,280.00 354.26,280.00 355.37,280.00 356.47,280.00 358.12,280.00 359.23,280.00 360.33,280.00 361.43,280.00 363.09,280.00 364.19,280.00 365.29,280.00 366.94,280.00 368.05,280.00 369.15,280.00 370.25,280.00 371.91,280.00 373.01,280.00 374.11,280.00 375.21,280.00 376.87,280.00 377.97,280.00 379.07,280.00 380.73,280.00 381.83,280.00 382.93,280.00 384.04,280.00 385.69,280.00 386.79,280.00 387.89,280.00 389.55,280.00 390.65,280.00 391.75,280.00 392.86,280.00 394.51,280.00 395.61,280.00 396.72,280.00 397.82,280.00 399.47,280.00 400.57,280.00 401.68,280.00 403.33,280.00 404.43,280.00 405.54,280.00 406.64,280.00 408.29,280.00 409.40,280.00 410.50,280.00 411.60,280.00 413.26,280.00 414.36,280.00 415.46,280.00 417.11,280.00 418.22,280.00 419.32,280.00 420.42,280.00 422.08,280.00 423.18,280.00 424.28,280.00 425.38,280.00 427.04,280.00 428.14,280.00 429.24,280.00 430.90,280.00 432.00,280.00 433.10,280.00 434.21,280.00 435.86,280.00 436.96,280.00 438.06,280.00 439.17,280.00 440.82,280.00 441.92,280.00 443.03,280.00 444.68,280.00 445.78,280.00 446.89,280.00 447.99,280.00 449.64,280.00 450.74,280.00 451.85,280.00 452.95,280.00 454.60,280.00 455.71,280.00 456.81,280.00 458.46,280.00 459.57,280.00 460.67,280.00 461.77,280.00 463.43,280.00 464.53,280.00 465.63,280.00 467.28,280.00 468.39,280.00 469.49,280.00 470.59,280.00 472.25,280.00 473.35,280.00 474.45,280.00 475.55,280.00 477.21,280.00 478.31,280.00 479.41,280.00 481.07,280.00 482.17,280.00 483.27,280.00 484.38,280.00 486.03,280.00 487.13,280.00 488.23,280.00 489.34,280.00 490.99,280.00 492.09,280.00 493.20,280.00 494.85,280.00 495.95,280.00 497.06,280.00 498.16,280.00 499.81,280.00 500.91,280.00 502.02,280.00 503.12,280.00 504.77,280.00 505.88,280.00 506.98,280.00 508.63,280.00 509.74,280.00 510.84,280.00 511.94,280.00 513.60,280.00 514.70,280.00 515.80,280.00 516.90,280.00 518.56,280.00 519.66,280.00 520.76,280.00 522.42,280.00 523.52,280.00 524.62,280.00 525.72,280.00 527.38,280.00 528.48,280.00 529.58,280.00 531.24,280.00 532.34,280.00 533.44,280.00 534.55,280.00 536.20,280.00 537.30,280.00 538.40,280.00 539.51,280.00 541.16,280.00 542.26,280.00 543.37,280.00 545.02,280.00 546.12,280.00 547.23,280.00 548.33,280.00 549.98,280.00 551.09,280.00 552.19,280.00 553.29,280.00 554.94,280.00 556.05,280.00 557.15,280.00 558.80,280.00 559.91,280.00 561.01,280.00 562.11,280.00 563.77,280.00 564.87,280.00 565.97,280.00 567.07,280.00 568.73,280.00 569.83,280.00 570.93,280.00 572.59,280.00 573.69,280.00 574.79,280.00 575.89,280.00 577.55,280.00 578.65,280.00 579.75,280.00 580.86,280.00 582.51,280.00 583.61,280.00 584.72,280.00 586.37,280.00 587.47,280.00 588.57,280.00 589.68,280.00 591.33,280.00 592.43,280.00 593.54,280.00 595.19,280.00 596.29,280.00 597.40,280.00 598.50,280.00 600.15,280.00 601.26,280.00 602.36,280.00 603.46,280.00 605.11,280.00 606.22,280.00 607.32,280.00 608.97,280.00 610.08,280.00 611.18,280.00 612.28,280.00 613.94,280.00 615.04,280.00 616.14,280.00 617.24,280.00 618.90,280.00 620.00,280.00 621.10,280.00 622.76,280.00 623.86,280.00 624.96,280.00 626.06,280.00 627.72,280.00 628.82,280.00 629.92,280.00 631.03,280.00 632.68,280.00 633.78,280.00 634.89,280.00 636.54,280.00 637.64,280.00 638.74,280.00 639.85,280.00 641.50,280.00 642.60,280.00 643.71,280.00 644.81,280.00 646.46,280.00 647.57,280.00 648.67,280.00 650.32,280.00 651.43,280.00 652.53,280.00 653.63,280.00 655.28,280.00 656.39,280.00 657.49,280.00 659.14,280.00 660.25,280.00 661.35,280.00 662.45,280.00 664.11,280.00 665.21,280.00 666.31,280.00 667.41,280.00 669.07,280.00 670.17,280.00 671.27,280.00 672.93,280.00 674.03,280.00 675.13,280.00 676.23,280.00 677.89,280.00 678.99,280.00 680.09,280.00 681.20,280.00 682.85,280.00 683.95,280.00 685.06,280.00 686.71,280.00 687.81,280.00 688.91,280.00 690.02,280.00 691.67,280.00 692.77,280.00 693.88,280.00 694.98,280.00 696.63,280.00 697.74,280.00 698.84,280.00 700.49,280.00 701.60,280.00 702.70,280.00 703.80,280.00 705.45,280.00 706.56,280.00 707.66,280.00 708.76,280.00 710.42,280.00 711.52,280.00 712.62,280.00 714.28,280.00 715.38,280.00 716.48,280.00 717.58,280.00 719.24,280.00 720.34,280.00 721.44,280.00 723.10,280.00 724.20,280.00 725.30,280.00 726.40,280.00 728.06,280.00 729.16,280.00 730.26,280.00 731.37,280.00 733.02,280.00 734.12,280.00 735.23,280.00 736.88,280.00 737.98,280.00 739.09,280.00 740.19,280.00 741.84,280.00 742.94,280.00 744.05,280.00 745.15,280.00 746.80,280.00 747.91,280.00 749.01,280.00 750.66,280.00 751.77,280.00 752.87,280.00 753.97,280.00 755.62,280.00 756.73,280.00 757.83,280.00 758.93,280.00 760.59,280.00 761.69,280.00 762.79,280.00 764.45,280.00 765.55,280.00 766.65,280.00 767.75,280.00 769.41,280.00 770.51,280.00 771.61,280.00 772.72,280.00 774.37,280.00 775.47,280.00 776.57,280.00 778.23,280.00 779.33,280.00 780.43,280.00 781.54,280.00 783.19,280.00 784.29,280.00 785.40,280.00 787.05,280.00 788.15,280.00 789.26,280.00 790.36,280.00 792.01,280.00 793.11,280.00 794.22,280.00 795.32,280.00 796.97,280.00 798.08,280.00 799.18,280.00 800.83,280.00 801.94,280.00 803.04,280.00 804.14,280.00 805.79,280.00 806.90,280.00 808.00,280.00 809.10,280.00 810.76,280.00 811.86,280.00 812.96,280.00 814.62,280.00 815.72,280.00 816.82,280.00 817.92,280.00 819.58,280.00 820.68,280.00 821.78,280.00 822.89,280.00 824.54,280.00 825.64,280.00 826.74,280.00 828.40,280.00 829.50,280.00 830.60,280.00 831.71,280.00 833.36,280.00 834.46,280.00 835.57,280.00 836.67,280.00 838.32,280.00 839.43,280.00 840.53,280.00 842.18,280.00 843.28,280.00 844.39,280.00 845.49,280.00 847.14,280.00 848.25,280.00 849.35,280.00 850.45,280.00 852.11,280.00 853.21,280.00 854.31,280.00 855.96,280.00 857.07,280.00 858.17,280.00 859.27,280.00 860.93,280.00 862.03,280.00 863.13,280.00 864.79,280.00 865.89,280.00 866.99,280.00 868.09,280.00 869.75,280.00 870.85,280.00 871.95,280.00 873.06,280.00 874.71,280.00 875.81,280.00 876.91,280.00 878.57,280.00 879.67,280.00 880.77,280.00 881.88,280.00 883.53,280.00 884.63,280.00 885.74,280.00 886.84,280.00 888.49,280.00 889.60,280.00 890.70,280.00 892.35,280.00 893.45,280.00 894.56,280.00 895.66,280.00 897.31,280.00 898.42,280.00 899.52,280.00 900.62,280.00 902.28,280.00 903.38,280.00 904.48,280.00 906.13,280.00 907.24,280.00 908.34,280.00 909.44,280.00 911.10,280.00 912.20,280.00 913.30,280.00 914.40,280.00 916.06,280.00 917.16,280.00 918.26,280.00 919.92,280.00 921.02,280.00 922.12,280.00 923.23,280.00 924.88,280.00 925.98,280.00 927.09,280.00 928.74,280.00 929.84,280.00 930.94,280.00 932.05,280.00 933.70,280.00 934.80,280.00 935.91,280.00 937.01,280.00 938.66,280.00 939.77,280.00 940.87,280.00 942.52,280.00 943.62,280.00 944.73,280.00 945.83,280.00 947.48,280.00 948.59,280.00 949.69,280.00 950.79,280.00 952.45,280.00 953.55,280.00 954.65,280.00 956.30,280.00 957.41,280.00 958.51,280.00 959.61,280.00 961.27,280.00 962.37,280.00 963.47,280.00 964.57,280.00 966.23,280.00 967.33,280.00 968.43,280.00 970.09,280.00 971.19,280.00 972.29,280.00 973.40,280.00 975.05,280.00 976.15,280.00 977.26,280.00 978.36,280.00 980.01,280.00 981.11,280.00 982.22,280.00 983.87,280.00 984.97,280.00 986.08,280.00 987.18,280.00 988.83,280.00 989.94,280.00 991.04,280.00 992.69,280.00 993.79,280.00 994.90,280.00 996.00,280.00 997.65,280.00 998.76,280.00 999.86,280.00 1000.96,280.00 1002.62,280.00 1003.72,280.00 1004.82,280.00 1006.48,280.00 1007.58,280.00 1008.68,280.00 1009.78,280.00 1011.44,280.00 1012.54,280.00 1013.64,280.00 1014.74,280.00 1016.40,280.00 1017.50,280.00 1018.60,280.00 1020.26,280.00 1021.36,280.00 1022.46,280.00 1023.57,280.00 1025.22,280.00 1026.32,280.00 1027.43,280.00 1028.53,280.00 1030.18,280.00 1031.28,280.00 1032.39,280.00 1034.04,280.00 1035.14,280.00 1036.25,280.00 1037.35,280.00 1039.00,280.00 1040.11,280.00 1041.21,280.00 1042.31,280.00 1043.96,280.00 1045.07,280.00 1046.17,280.00 1047.82,280.00 1048.93,280.00 1050.03,280.00 1051.13,280.00 1052.79,280.00 1053.89,280.00 1054.99,280.00 1056.65,280.00 1057.75,280.00 1058.85,280.00 1059.95,280.00 1061.61,280.00 1062.71,280.00 1063.81,280.00 1064.91,280.00 1066.57,280.00 1067.67,280.00 1068.77,280.00 1070.43,280.00 1071.53,280.00 1072.63,280.00 1073.74,280.00 1075.39,280.00 1076.49,280.00 1077.60,280.00 1078.70,280.00 1080.35,280.00 1081.45,280.00 1082.56,280.00 1084.21,280.00 1085.31,280.00 1086.42,280.00 1087.52,280.00 1089.17,280.00 1090.28,280.00 1091.38,280.00 1092.48,280.00 1094.13,280.00 1095.24,280.00 1096.34,280.00 1097.99,280.00 1099.10,280.00 1100.20,280.00 1101.30,280.00 1102.96,280.00 1104.06,280.00 1105.16,280.00 1106.26,280.00 1107.92,280.00 1109.02,280.00 1110.12,280.00 1111.78,280.00 1112.88,280.00 1113.98,280.00 1115.09,280.00 1116.74,280.00 1117.84,280.00 1118.94,280.00 1120.60,280.00 1121.70,280.00 1122.80,280.00 1123.91,280.00 1125.56,280.00 1126.66,280.00 1127.77,280.00 1128.87,280.00 1130.52,280.00 1131.62,280.00 1132.73,280.00 1134.38,280.00 1135.48,280.00 1136.59,280.00 1137.69,280.00 1139.34,280.00 1140.45,280.00 1141.55,280.00 1142.65,280.00 1144.30,280.00 1145.41,280.00 1146.51,280.00 1148.16,280.00 1149.27,280.00 1150.37,280.00 1151.47,280.00 1153.13,280.00 1154.23,280.00 1155.33,280.00 1156.43,280.00 1158.09,280.00 1159.19,280.00 1160.29,280.00 1161.95,280.00 1163.05,280.00 1164.15,280.00 1165.26,280.00 1166.91,280.00 1168.01,280.00 1169.11,280.00 1170.22,280.00 1171.87,280.00 1172.97,280.00 1174.08,280.00 1175.73,280.00 1176.83,280.00 1177.94,280.00 1179.04,280.00 1180.69,280.00 1181.79,280.00 1182.90,280.00 1184.00,280.00" />
  <line x1="56.00" y1="280" x2="56.00" y2="286" stroke="#777777" /><text x="56.00" y="308" text-anchor="middle" font-size="12" fill="#777777">0</text><line x1="281.49" y1="280" x2="281.49" y2="286" stroke="#777777" /><text x="281.49" y="308" text-anchor="middle" font-size="12" fill="#777777">409</text><line x1="506.98" y1="280" x2="506.98" y2="286" stroke="#777777" /><text x="506.98" y="308" text-anchor="middle" font-size="12" fill="#777777">818</text><line x1="732.47" y1="280" x2="732.47" y2="286" stroke="#777777" /><text x="732.47" y="308" text-anchor="middle" font-size="12" fill="#777777">1227</text><line x1="957.96" y1="280" x2="957.96" y2="286" stroke="#777777" /><text x="957.96" y="308" text-anchor="middle" font-size="12" fill="#777777">1636</text><line x1="1184.00" y1="280" x2="1184.00" y2="286" stroke="#777777" /><text x="1184.00" y="308" text-anchor="middle" font-size="12" fill="#777777">2046</text>
  <line x1="50" y1="280.00" x2="56" y2="280.00" stroke="#777777" /><text x="46" y="284.00" text-anchor="end" font-size="12" fill="#777777">0.00</text><line x1="50" y1="214.50" x2="56" y2="214.50" stroke="#777777" /><text x="46" y="218.50" text-anchor="end" font-size="12" fill="#777777">0.25</text><line x1="50" y1="149.00" x2="56" y2="149.00" stroke="#777777" /><text x="46" y="153.00" text-anchor="end" font-size="12" fill="#777777">0.50</text><line x1="50" y1="83.50" x2="56" y2="83.50" stroke="#777777" /><text x="46" y="87.50" text-anchor="end" font-size="12" fill="#777777">0.75</text><line x1="50" y1="18.00" x2="56" y2="18.00" stroke="#777777" /><text x="46" y="22.00" text-anchor="end" font-size="12" fill="#777777">1.00</text>
</svg>