<svg xmlns="http://www.w3.org/2000/svg" viewBox="0 0 1024 1024" role="img" aria-labelledby="title desc">
  <title id="title">AI Vision Network Logo - Green Transparent</title>
  <desc id="desc">The original thin-eye AI vision network logo recolored in soft green and white with a transparent background.</desc>

  <defs>
    <linearGradient id="navyGradient" x1="130" y1="720" x2="890" y2="280" gradientUnits="userSpaceOnUse">
      <stop offset="0" stop-color="#1F6F65"/>
      <stop offset="0.52" stop-color="#A8D5BA"/>
      <stop offset="1" stop-color="#F7FBF6"/>
    </linearGradient>

    <linearGradient id="coreGradient" x1="335" y1="660" x2="700" y2="330" gradientUnits="userSpaceOnUse">
      <stop offset="0" stop-color="#15544D"/>
      <stop offset="0.52" stop-color="#1F6F65"/>
      <stop offset="1" stop-color="#A8D5BA"/>
    </linearGradient>

    <linearGradient id="ringGradient" x1="240" y1="220" x2="790" y2="800" gradientUnits="userSpaceOnUse">
      <stop offset="0" stop-color="#1F6F65"/>
      <stop offset="0.5" stop-color="#A8D5BA"/>
      <stop offset="1" stop-color="#F7FBF6"/>
    </linearGradient>
  </defs>

  <g id="thin-eye-contour" fill="none" stroke-linecap="round">
    <path
      d="M42 512 C132 414 246 350 382 318"
      stroke="url(#navyGradient)"
      stroke-width="34"/>
    <path
      d="M42 512 C132 610 246 674 382 706"
      stroke="url(#navyGradient)"
      stroke-width="34"/>
    <path
      d="M982 512 C892 414 778 350 642 318"
      stroke="url(#navyGradient)"
      stroke-width="34"/>
    <path
      d="M982 512 C892 610 778 674 642 706"
      stroke="url(#navyGradient)"
      stroke-width="34"/>

    <path
      d="M86 512 C154 452 245 413 342 395"
      stroke="#F7FBF6"
      stroke-width="7"
      opacity="0.62"/>
    <path
      d="M86 512 C154 572 245 611 342 629"
      stroke="#A8D5BA"
      stroke-width="7"
      opacity="0.58"/>
    <path
      d="M938 512 C870 452 779 413 682 395"
      stroke="#F7FBF6"
      stroke-width="7"
      opacity="0.58"/>
    <path
      d="M938 512 C870 572 779 611 682 629"
      stroke="#A8D5BA"
      stroke-width="7"
      opacity="0.58"/>
  </g>

  <g id="outer-orbit-rings" fill="none" stroke-linecap="round">
    <path d="M224 415 A320 320 0 0 1 495 116" stroke="#1F6F65" stroke-width="12"/>
    <path d="M568 124 A320 320 0 0 1 790 415" stroke="#A8D5BA" stroke-width="8"/>
    <path d="M790 609 A320 320 0 0 1 568 900" stroke="#A8D5BA" stroke-width="8"/>
    <path d="M495 908 A320 320 0 0 1 224 609" stroke="#1F6F65" stroke-width="8"/>
    <circle cx="216" cy="326" r="13" fill="#1F6F65"/>
    <circle cx="500" cy="114" r="8" fill="#1F6F65"/>
    <circle cx="790" cy="326" r="13" fill="#A8D5BA"/>
    <circle cx="790" cy="698" r="13" fill="#A8D5BA"/>
    <circle cx="500" cy="910" r="8" fill="#1F6F65"/>
    <circle cx="216" cy="698" r="13" fill="#A8D5BA"/>
  </g>

  <g id="segmented-technology-rings" fill="none" stroke-linecap="round">
    <path d="M327 258 A270 270 0 0 1 621 251" stroke="#A8D5BA" stroke-width="42"/>
    <path d="M673 276 A270 270 0 0 1 713 306" stroke="#1F6F65" stroke-width="42"/>
    <path d="M738 409 A270 270 0 0 1 756 470" stroke="#F7FBF6" stroke-width="34"/>
    <path d="M711 718 A270 270 0 0 1 675 748" stroke="#1F6F65" stroke-width="42"/>
    <path d="M621 773 A270 270 0 0 1 327 766" stroke="#A8D5BA" stroke-width="42"/>
    <path d="M263 444 A255 255 0 0 1 496 224" stroke="#1F6F65" stroke-width="12"/>
    <path d="M540 236 A255 255 0 0 1 724 392" stroke="#A8D5BA" stroke-width="10"/>
    <path d="M724 632 A255 255 0 0 1 540 788" stroke="#1F6F65" stroke-width="10"/>
    <path d="M496 800 A255 255 0 0 1 263 580" stroke="#1F6F65" stroke-width="12"/>
    <circle cx="512" cy="114" r="19" fill="#A8D5BA"/>
    <circle cx="512" cy="910" r="19" fill="#A8D5BA"/>
    <circle cx="248" cy="515" r="16" fill="#A8D5BA"/>
  </g>

  <g id="central-core">
    <circle cx="512" cy="512" r="200" fill="url(#coreGradient)"/>
    <path
      d="M356 514 C388 610 472 664 573 648 C653 636 708 586 728 514"
      fill="none"
      stroke="#F7FBF6"
      stroke-width="5"
      opacity="0.8"/>
    <path
      d="M369 369 C422 327 520 318 603 355 C663 382 707 431 727 488"
      fill="none"
      stroke="#A8D5BA"
      stroke-width="4"
      opacity="0.65"/>
  </g>

  <g id="neural-network" stroke="#EAF5EE" stroke-width="5" stroke-linecap="round" stroke-linejoin="round">
    <path d="M384 420 L458 420 L488 348 L542 421 L621 421 L619 512 L556 601 L461 668 L437 513 L384 420Z" fill="none"/>
    <path d="M458 420 L437 513 L542 421 L619 512 L719 512" fill="none"/>
    <path d="M488 348 L621 421 L700 421 L700 512 L712 668 L556 601" fill="none"/>
    <path d="M356 566 L437 513 L556 601 L712 668" fill="none"/>
    <path d="M384 420 L337 494 L356 566" fill="none"/>
    <path d="M488 348 L458 420 L437 513 L542 421" fill="none"/>
    <path d="M461 668 L556 601 L700 512 L752 512" fill="none"/>
  </g>

  <g id="network-nodes" fill="#F7FBF6">
    <circle cx="488" cy="348" r="17"/>
    <circle cx="384" cy="420" r="12"/>
    <circle cx="458" cy="420" r="12"/>
    <circle cx="542" cy="421" r="12"/>
    <circle cx="621" cy="421" r="13"/>
    <circle cx="700" cy="421" r="15"/>
    <circle cx="437" cy="513" r="22"/>
    <circle cx="700" cy="512" r="15"/>
    <circle cx="752" cy="512" r="12"/>
    <circle cx="356" cy="566" r="17"/>
    <circle cx="556" cy="601" r="12"/>
    <circle cx="712" cy="668" r="13"/>
    <circle cx="461" cy="668" r="17"/>
  </g>

  <g id="inner-highlight" fill="none">
    <circle cx="512" cy="512" r="202" stroke="#F7FBF6" stroke-width="10" opacity="0.9"/>
    <circle cx="512" cy="512" r="246" stroke="#F7FBF6" stroke-width="18" opacity="0.95"/>
  </g>
</svg>
